<svg width="320" height="320" viewBox="0 0 320 320" fill="none" xmlns="http://www.w3.org/2000/svg">
<path d="M275.306 119.161C273.618 113.673 271.414 108.358 268.722 103.287C254.839 77.4866 230.493 58.0212 203.863 46.5053C182.719 37.3755 156.574 32.6033 134.142 40.8271C122.798 44.9869 112.118 52.9491 106.038 63.5718C98.1141 77.4419 98.8606 94.5978 92.5699 109.176C87.4659 120.973 74.7825 128.061 64.8424 135.334C49.3327 146.639 34.0526 160.006 28.6742 179.126C21.5031 204.614 23.6276 234.958 38.1421 257.626C48.9881 274.539 67.5539 279.618 86.7131 279.956C104.794 280.281 126.907 275.713 143.782 283.963C172.53 297.999 210.466 313.757 242.634 302.65C275.81 291.197 292.06 268.893 296.864 239.96C301.668 211.026 288.43 186.923 284.206 164.038C281.577 149.561 279.836 133.58 275.306 119.161Z" fill="#E0EBE3"/>
<path opacity="0.8" d="M275.306 119.161C273.618 113.673 271.414 108.358 268.722 103.287C254.839 77.4866 230.493 58.0212 203.863 46.5053C182.719 37.3755 156.574 32.6033 134.142 40.8271C122.798 44.9869 112.118 52.9491 106.038 63.5718C98.1141 77.4419 98.8606 94.5978 92.5699 109.176C87.4659 120.973 74.7825 128.061 64.8424 135.334C49.3327 146.639 34.0526 160.006 28.6742 179.126C21.5031 204.614 23.6276 234.958 38.1421 257.626C48.9881 274.539 67.5539 279.618 86.7131 279.956C104.794 280.281 126.907 275.713 143.782 283.963C172.53 297.999 210.466 313.757 242.634 302.65C275.81 291.197 292.06 268.893 296.864 239.96C301.668 211.026 288.43 186.923 284.206 164.038C281.577 149.561 279.836 133.58 275.306 119.161Z" fill="#E0EBE3"/>
<path d="M33.4282 206.031C33.2623 204.187 33.224 202.49 33.2049 200.984C33.2049 200.129 33.2049 199.357 33.2049 198.636C33.8429 198.094 36.5033 195.893 37.237 194.406C37.9707 192.92 38.4684 190.897 37.69 189.341C37.5224 188.97 37.279 188.637 36.9755 188.366C36.672 188.094 36.315 187.889 35.9275 187.763C35.54 187.638 35.1306 187.595 34.7254 187.637C34.3203 187.679 33.9284 187.805 33.5749 188.007C31.5142 189.283 31.3419 193.692 31.897 195.816C31.9416 196.001 33.0198 198.783 33.0517 198.758L33.0964 198.726C33.0645 199.421 33.0326 200.168 33.0198 200.978C33.0198 202.484 33.0198 204.168 33.1347 206.044C33.1347 206.35 33.1793 206.682 33.2049 206.994C33.4345 207.339 33.5621 207.562 33.5621 207.562C33.5366 207.045 33.4728 206.522 33.4282 206.031Z" fill="#BABABA"/>
<path d="M26.7985 201.354C24.0295 201.807 23.6723 204.404 26.2562 206.063C28.4445 207.466 32.1832 207.562 33.2742 207.562C33.2742 207.371 33.2742 207.179 33.2295 206.994C32.1832 205.393 29.0697 200.978 26.7985 201.354Z" fill="#BABABA"/>
<path d="M81.8894 189.169C79.4459 189.092 76.8683 192.627 76.1474 194.681C76.0836 194.86 75.4584 197.756 75.5094 197.75H75.5604C75.1457 198.305 74.7119 198.905 74.2844 199.574C73.4423 200.812 72.5044 202.216 71.5921 203.811L71.2731 204.366C71.2284 204.812 71.1901 205.08 71.1901 205.08L70.9732 204.902C70.2026 206.271 69.502 207.679 68.8742 209.119C67.968 211.156 67.2463 213.27 66.7178 215.435C66.7178 215.435 66.7178 215.486 66.7178 215.512C66.6667 214.797 66.4498 212.8 66.4179 212.653C65.9394 210.51 63.7702 206.637 61.3139 206.376C60.911 206.342 60.5055 206.394 60.1244 206.529C59.7433 206.664 59.3954 206.879 59.1038 207.159C58.8122 207.439 58.5837 207.778 58.4334 208.153C58.2832 208.529 58.2146 208.932 58.2324 209.336C58.2324 211.065 59.6487 212.692 60.9566 213.681C62.4368 214.804 66.335 215.703 66.6412 215.773C66.1614 217.997 65.8289 220.25 65.6459 222.517C65.5311 223.838 65.4609 225.171 65.4035 226.517C65.3333 225.879 65.2759 225.343 65.2567 225.241C64.7782 223.104 62.609 219.231 60.1527 218.97C59.7501 218.936 59.3449 218.988 58.9641 219.123C58.5833 219.258 58.2357 219.473 57.9447 219.753C57.6536 220.034 57.4256 220.373 57.2761 220.748C57.1266 221.123 57.0589 221.526 57.0776 221.93C57.0776 223.659 58.4939 225.28 59.8018 226.275C61.1097 227.27 64.4401 228.119 65.3205 228.323C65.3205 228.84 65.2823 229.35 65.2695 229.867C65.1993 232.336 65.1355 234.798 65.0079 237.216C64.9633 238.065 64.8867 238.901 64.8101 239.737C64.7527 239.188 64.7017 238.729 64.6825 238.658C64.2104 236.521 62.0348 232.648 59.5785 232.387C59.1757 232.352 58.77 232.403 58.3887 232.538C58.0075 232.673 57.6595 232.888 57.3682 233.168C57.0768 233.449 56.8489 233.788 56.6998 234.164C56.5506 234.54 56.4836 234.943 56.5034 235.347C56.5034 237.076 57.9134 238.697 59.2213 239.692C60.5292 240.687 63.5405 241.446 64.5805 241.702C64.5103 242.289 64.4401 242.876 64.3572 243.45C64.7272 243.558 65.1036 243.648 65.4928 243.724C65.6332 242.614 65.7416 241.485 65.8309 240.343C66.7369 240.598 69.9779 241.459 71.5729 241.223C73.1679 240.987 75.1585 240.241 75.9688 238.722C76.1687 238.368 76.2926 237.976 76.3327 237.571C76.3727 237.166 76.328 236.758 76.2013 236.371C76.0747 235.985 75.8689 235.629 75.5971 235.326C75.3252 235.023 74.9934 234.781 74.6226 234.613C72.3513 233.656 68.6637 236.011 67.2601 237.663C67.1771 237.765 66.3031 239.067 65.8373 239.788C65.8947 238.952 65.9522 238.122 65.9777 237.28C66.0606 234.837 66.067 232.361 66.0798 229.899C66.0798 229.139 66.0798 228.387 66.0798 227.634C66.4051 227.729 70.2331 228.833 72.0451 228.565C73.6592 228.329 75.6306 227.583 76.4409 226.071C76.6416 225.716 76.766 225.324 76.8061 224.918C76.8462 224.513 76.8012 224.104 76.6738 223.717C76.5464 223.33 76.3396 222.974 76.0666 222.672C75.7935 222.37 75.4603 222.128 75.0883 221.962C72.8234 221.005 69.1358 223.353 67.7322 225.005C67.6301 225.133 66.3796 227.002 66.0861 227.493C66.0861 225.835 66.1499 224.182 66.252 222.555C66.3834 220.358 66.6562 218.172 67.0687 216.009C67.2218 216.054 71.2157 217.222 73.0659 216.954C74.68 216.718 76.6578 215.965 77.4617 214.453C77.6616 214.098 77.7855 213.706 77.8256 213.302C77.8656 212.897 77.8209 212.488 77.6942 212.102C77.5676 211.715 77.3618 211.359 77.09 211.056C76.8182 210.754 76.4863 210.511 76.1155 210.344C73.8506 209.387 70.1566 211.741 68.753 213.394C68.6445 213.521 67.3047 215.537 67.0814 215.946C67.0814 215.818 67.1197 215.684 67.1452 215.563C67.6213 213.412 68.2896 211.309 69.1422 209.278C69.5951 208.149 70.0928 207.103 70.6032 206.088C71.3241 206.382 74.6417 207.69 76.3452 207.632C78.0486 207.575 80.0264 207.052 80.9962 205.635C81.2351 205.306 81.4022 204.93 81.4868 204.533C81.5715 204.135 81.5717 203.723 81.4875 203.325C81.4034 202.927 81.2367 202.551 80.9982 202.222C80.7597 201.892 80.4547 201.616 80.103 201.412C77.9529 200.212 74.0165 202.139 72.447 203.626C72.3641 203.702 71.5857 204.627 71.0243 205.304C71.2603 204.851 71.4964 204.379 71.7324 203.951C72.6129 202.337 73.5188 200.914 74.3291 199.664C74.7948 198.956 75.2351 198.324 75.6498 197.75C76.4983 197.673 79.9371 197.31 81.3918 196.474C82.8464 195.638 84.3585 194.26 84.5818 192.55C84.6426 192.149 84.62 191.74 84.5154 191.348C84.4107 190.955 84.2262 190.589 83.9735 190.272C83.7207 189.954 83.4052 189.693 83.0465 189.503C82.6879 189.313 82.294 189.199 81.8894 189.169Z" fill="#BABABA"/>
<path d="M48.35 241.842C48.5159 242.168 48.6754 242.48 48.8349 242.825L49.9259 242.467C49.5112 241.644 49.0837 240.821 48.6499 240.011C49.5367 239.724 52.6884 238.659 53.8878 237.568C55.0873 236.477 56.3059 234.754 56.14 233.038C56.1127 232.631 56.0014 232.234 55.8131 231.872C55.6248 231.51 55.3636 231.191 55.0459 230.935C54.7282 230.679 54.361 230.492 53.9673 230.385C53.5737 230.278 53.1621 230.254 52.7586 230.314C50.3597 230.76 48.6116 234.78 48.3691 236.942C48.3691 237.083 48.3691 238.659 48.3691 239.494C47.9481 238.767 47.5397 238.033 47.0931 237.306C45.8171 235.201 44.4518 233.114 43.0993 231.028L41.8743 229.114C42.1933 229.018 45.9639 227.838 47.3101 226.607C48.5095 225.522 49.7281 223.8 49.5622 222.083C49.5359 221.676 49.4252 221.278 49.2372 220.916C49.0492 220.554 48.7879 220.234 48.47 219.978C48.1521 219.722 47.7845 219.535 47.3904 219.428C46.9964 219.322 46.5845 219.298 46.1808 219.359C43.7819 219.806 42.0338 223.825 41.7914 225.988C41.7914 226.154 41.7914 228.419 41.7914 228.999C40.8918 227.583 40.0113 226.167 39.2011 224.737C38.098 222.813 37.1178 220.82 36.2663 218.772C36.413 218.727 40.3559 217.496 41.7339 216.252C42.9334 215.167 44.152 213.445 43.9861 211.722C43.9589 211.315 43.8476 210.919 43.6592 210.557C43.4708 210.195 43.2095 209.877 42.8917 209.621C42.5739 209.366 42.2066 209.179 41.8129 209.073C41.4193 208.967 41.0078 208.943 40.6047 209.004C38.2058 209.451 36.4577 213.47 36.2152 215.633C36.2152 215.805 36.2152 218.243 36.2152 218.689C36.1706 218.568 36.1068 218.447 36.0621 218.332C35.2693 216.262 34.6588 214.128 34.2374 211.952C33.9886 210.752 33.8227 209.591 33.6824 208.456C34.4416 208.309 37.8996 207.575 39.2713 206.593C40.643 205.61 41.9828 204.041 42.0083 202.344C42.0254 201.936 41.9577 201.529 41.8096 201.148C41.6615 200.768 41.4362 200.422 41.1479 200.133C40.8595 199.845 40.5144 199.618 40.1343 199.47C39.7542 199.321 39.3474 199.252 38.9395 199.268C36.5023 199.447 34.3204 203.243 33.8355 205.368C33.8355 205.483 33.6696 206.688 33.5803 207.569H33.2677C33.3889 208.985 33.5612 210.478 33.8419 212.035C34.2141 214.255 34.7842 216.437 35.5453 218.555C35.5521 218.58 35.5628 218.604 35.5772 218.625C35.137 218.051 33.861 216.488 33.7526 216.38C32.1767 214.842 28.253 212.775 26.0966 213.898C25.744 214.097 25.4376 214.369 25.1975 214.695C24.9574 215.021 24.789 215.395 24.7035 215.79C24.6179 216.186 24.6171 216.596 24.701 216.992C24.785 217.388 24.9518 217.762 25.1906 218.089C26.1604 219.538 28.2083 220.137 29.8352 220.246C31.6727 220.38 35.3858 218.97 35.6793 218.874C36.5053 221.014 37.4729 223.096 38.5758 225.107C39.2138 226.288 39.8837 227.455 40.5792 228.616C40.1836 228.132 39.8263 227.698 39.7689 227.647C38.1994 226.103 34.2693 224.036 32.1129 225.158C31.7594 225.358 31.4521 225.63 31.2114 225.956C30.9707 226.283 30.8019 226.657 30.7163 227.054C30.6307 227.451 30.6302 227.861 30.7147 228.258C30.7993 228.655 30.9671 229.029 31.2069 229.357C32.1703 230.805 34.2247 231.398 35.8516 231.513C37.4785 231.628 40.694 230.492 41.5425 230.173C41.8169 230.613 42.0785 231.06 42.3528 231.5C43.6288 233.618 44.9686 235.73 46.1808 237.836C46.6083 238.582 47.0102 239.328 47.4058 240.075C47.0549 239.641 46.7678 239.284 46.7103 239.233C45.1345 237.695 41.2044 235.628 39.0543 236.751C38.7013 236.95 38.3943 237.221 38.1535 237.547C37.9128 237.873 37.7438 238.246 37.6576 238.642C37.5714 239.038 37.57 239.448 37.6535 239.844C37.737 240.241 37.9035 240.615 38.142 240.943C39.1054 242.391 41.1597 242.991 42.7866 243.105C44.4135 243.22 47.3356 242.199 48.35 241.842Z" fill="#BABABA"/>
<path d="M69.8248 195.97C67.394 194.573 65.4736 196.365 66.4306 199.281C67.2472 201.776 70.1374 204.245 70.954 204.895L71.2539 204.359C71.458 202.42 71.8089 197.105 69.8248 195.97Z" fill="#BABABA"/>
<path d="M216.979 297.201C214.287 297.271 211.678 301.348 211.033 303.671C211.001 303.792 210.791 305.061 210.65 306.025C211.926 306.14 213.202 306.229 214.478 306.293C215.35 306.083 216.187 305.753 216.967 305.31C218.466 304.334 220.093 302.669 220.208 300.761C220.251 300.311 220.2 299.856 220.058 299.427C219.915 298.997 219.685 298.602 219.381 298.267C219.077 297.932 218.706 297.664 218.293 297.48C217.879 297.297 217.432 297.202 216.979 297.201Z" fill="#BABABA"/>
<path d="M193.745 261.116C190.644 261.116 189.802 263.898 192.335 266.156C194.472 268.07 198.536 268.829 199.723 269.021L199.78 268.383C198.919 266.437 196.29 261.078 193.745 261.116Z" fill="#BABABA"/>
<path d="M243.674 296.742C243.955 296.39 244.159 295.984 244.274 295.548C244.388 295.113 244.411 294.659 244.34 294.215C244.269 293.771 244.107 293.346 243.862 292.968C243.618 292.59 243.298 292.267 242.921 292.02C240.618 290.585 236.178 292.505 234.366 294.062C234.226 294.177 232.541 296.008 232.133 296.493C232.445 294.681 232.771 292.888 233.179 291.127C233.701 288.746 234.379 286.402 235.208 284.109C235.368 284.186 239.515 286.157 241.588 286.189C243.387 286.189 245.671 285.736 246.813 284.23C247.094 283.879 247.298 283.472 247.413 283.037C247.527 282.602 247.55 282.148 247.479 281.704C247.408 281.259 247.246 280.835 247.001 280.457C246.757 280.079 246.437 279.756 246.06 279.509C243.757 278.074 239.317 279.994 237.505 281.551C237.358 281.672 235.546 283.637 235.24 284.02C235.291 283.886 235.323 283.746 235.374 283.612C236.269 281.349 237.364 279.171 238.647 277.104C239.336 275.956 240.063 274.897 240.797 273.914C241.531 274.361 244.925 276.364 246.788 276.594C248.651 276.823 250.903 276.594 252.204 275.228C252.522 274.91 252.769 274.529 252.931 274.11C253.092 273.69 253.164 273.242 253.142 272.793C253.119 272.344 253.004 271.905 252.801 271.504C252.599 271.102 252.316 270.748 251.968 270.462C249.831 268.778 245.206 270.201 243.228 271.541C243.119 271.617 242.111 272.485 241.384 273.123C241.716 272.67 242.06 272.198 242.386 271.77C243.63 270.163 244.861 268.772 245.965 267.547C246.603 266.858 247.183 266.271 247.738 265.677C248.683 265.741 252.498 265.945 254.214 265.301C255.93 264.657 257.838 263.387 258.355 261.569C258.49 261.139 258.535 260.686 258.486 260.238C258.437 259.79 258.296 259.357 258.071 258.966C257.846 258.576 257.542 258.236 257.179 257.969C256.816 257.702 256.402 257.514 255.962 257.415C253.314 256.899 249.888 260.312 248.759 262.43C248.663 262.615 247.483 265.658 247.521 265.665H247.579C247.037 266.194 246.456 266.775 245.837 267.419C244.708 268.625 243.438 269.971 242.156 271.579L241.716 272.128C241.588 272.606 241.505 272.887 241.505 272.887C241.505 272.887 241.422 272.804 241.295 272.657C240.28 273.933 239.247 275.35 238.27 276.887C236.927 278.953 235.772 281.135 234.819 283.407C234.819 283.407 234.819 283.465 234.819 283.49C234.889 282.699 235.004 280.485 234.991 280.3C234.851 277.882 233.154 273.282 230.525 272.568C230.091 272.462 229.64 272.449 229.201 272.531C228.762 272.613 228.346 272.787 227.979 273.042C227.613 273.298 227.305 273.628 227.076 274.012C226.848 274.395 226.703 274.823 226.652 275.267C226.372 277.181 227.609 279.165 228.866 280.479C230.283 281.959 234.379 283.618 234.704 283.752C233.788 286.093 233.032 288.493 232.439 290.936C232.088 292.352 231.801 293.8 231.476 295.249C231.514 294.566 231.54 293.973 231.533 293.871C231.386 291.453 229.696 286.853 227.067 286.138C226.634 286.03 226.182 286.015 225.743 286.096C225.303 286.177 224.886 286.35 224.52 286.605C224.153 286.86 223.845 287.191 223.616 287.574C223.388 287.958 223.244 288.387 223.194 288.83C222.914 290.744 224.151 292.735 225.408 294.049C226.665 295.364 230.149 296.863 231.067 297.239L230.742 298.911C230.308 301.201 229.881 303.485 229.409 305.737L230.557 305.578C230.953 303.428 231.316 301.259 231.674 299.089C231.807 298.266 231.954 297.45 232.101 296.627C232.433 296.786 236.42 298.656 238.443 298.688C240.248 298.719 242.532 298.247 243.674 296.742Z" fill="#BABABA"/>
<path d="M241.619 262.717C239.207 260.771 236.808 262.392 237.338 265.735C237.797 268.606 240.528 271.796 241.293 272.651L241.714 272.121C242.301 270.048 243.577 264.306 241.619 262.717Z" fill="#BABABA"/>
<path d="M200.195 267.343C200.335 265.308 200.59 263.445 200.833 261.805C200.973 260.874 201.12 260.031 201.267 259.253C202.083 258.781 205.343 256.835 206.403 255.342C207.462 253.849 208.355 251.731 207.781 249.9C207.662 249.466 207.454 249.062 207.17 248.713C206.887 248.364 206.533 248.078 206.133 247.873C205.732 247.668 205.294 247.549 204.845 247.524C204.396 247.498 203.946 247.567 203.525 247.724C201.05 248.764 200.099 253.537 200.335 255.948C200.335 256.159 201.043 259.381 201.088 259.361L201.139 259.33C200.98 260.082 200.82 260.893 200.667 261.78C200.386 263.419 200.093 265.276 199.908 267.324C199.876 267.662 199.844 268.019 199.818 268.37C200.003 268.791 200.112 269.053 200.112 269.053C200.099 268.479 200.125 267.892 200.195 267.343Z" fill="#BABABA"/>
<path d="M200.959 301.84C200.423 302.02 199.949 302.349 199.593 302.788C199.238 303.228 199.014 303.76 198.949 304.321C202.248 304.959 205.546 305.489 208.838 305.84C207.371 303.862 203.485 300.997 200.959 301.84Z" fill="#BABABA"/>
<path d="M224.131 300.672C223.698 300.563 223.246 300.549 222.807 300.629C222.368 300.71 221.951 300.884 221.584 301.139C221.217 301.394 220.909 301.724 220.68 302.108C220.452 302.492 220.308 302.92 220.259 303.364C220.152 304.412 220.375 305.467 220.897 306.382C223.308 306.331 225.703 306.171 228.08 305.903C227.372 303.657 225.988 301.188 224.131 300.672Z" fill="#BABABA"/>
<path d="M209.578 303.862C208.551 301.348 207.428 298.828 206.325 296.315C205.986 295.549 205.655 294.777 205.323 294.005C205.687 293.954 210.006 293.322 211.703 292.219C213.202 291.242 214.829 289.577 214.944 287.67C214.986 287.223 214.936 286.772 214.795 286.346C214.655 285.92 214.427 285.528 214.128 285.194C213.828 284.86 213.462 284.592 213.054 284.406C212.645 284.221 212.203 284.122 211.754 284.116C209.062 284.18 206.452 288.263 205.808 290.579C205.757 290.758 205.361 293.233 205.297 293.865C204.564 292.168 203.849 290.47 203.218 288.761C202.346 286.47 201.624 284.126 201.055 281.743C201.221 281.743 205.731 281.105 207.435 279.956C208.928 278.98 210.561 277.308 210.676 275.407C210.718 274.96 210.667 274.509 210.527 274.083C210.387 273.656 210.159 273.264 209.86 272.929C209.56 272.595 209.195 272.326 208.786 272.14C208.377 271.954 207.935 271.854 207.486 271.847C204.793 271.917 202.184 275.994 201.54 278.317C201.489 278.495 201.068 281.162 201.029 281.647C200.997 281.513 200.946 281.373 200.914 281.232C200.412 278.829 200.122 276.387 200.047 273.933C199.983 272.581 200.002 271.286 200.047 270.029C200.895 269.997 204.793 269.799 206.465 268.963C208.137 268.128 209.866 266.686 210.185 264.81C210.275 264.369 210.273 263.913 210.178 263.473C210.084 263.032 209.898 262.616 209.635 262.251C209.371 261.885 209.034 261.579 208.645 261.351C208.257 261.122 207.825 260.977 207.377 260.925C204.691 260.689 201.635 264.453 200.749 266.667C200.704 266.788 200.347 268.083 200.111 269.027L199.76 268.976C199.645 270.539 199.575 272.166 199.613 273.927C199.634 276.413 199.875 278.891 200.334 281.334V281.417C199.957 280.715 198.835 278.789 198.732 278.648C197.284 276.696 193.36 273.755 190.815 274.603C190.397 274.762 190.017 275.007 189.699 275.322C189.382 275.637 189.134 276.015 188.972 276.432C188.81 276.849 188.738 277.295 188.76 277.742C188.781 278.188 188.897 278.626 189.099 279.025C189.896 280.766 192.033 281.781 193.788 282.215C195.766 282.674 200.059 281.8 200.404 281.73C200.932 284.207 201.623 286.648 202.471 289.035C202.962 290.432 203.498 291.823 204.047 293.207C203.702 292.614 203.409 292.078 203.339 292.014C201.891 290.056 197.967 287.121 195.421 287.969C195.004 288.128 194.625 288.373 194.308 288.687C193.991 289.002 193.743 289.379 193.582 289.795C193.42 290.212 193.347 290.657 193.369 291.103C193.39 291.549 193.504 291.986 193.705 292.384C194.502 294.133 196.633 295.141 198.394 295.574C200.155 296.008 203.849 295.319 204.819 295.128C205.036 295.657 205.246 296.187 205.457 296.716C206.51 299.268 207.575 301.789 208.538 304.302C208.743 304.838 208.934 305.374 209.125 305.904L210.401 306.031C210.14 305.291 209.872 304.577 209.578 303.862Z" fill="#BABABA"/>
<path d="M127.385 145.695L122.166 142.327" stroke="#263238" stroke-width="1.914" stroke-linecap="round" stroke-linejoin="round"/>
<path d="M136.45 135.564L135.098 134.435" stroke="#263238" stroke-width="1.914" stroke-linecap="round" stroke-linejoin="round"/>
<path d="M121.215 165.27L110.414 162.564" stroke="#263238" stroke-width="1.914" stroke-linecap="round" stroke-linejoin="round"/>
<path d="M179.592 231.66C179.512 231.659 179.433 231.648 179.356 231.628C179.107 231.563 178.894 231.402 178.763 231.181C178.431 230.601 178.252 230.288 180.945 227.2C175.139 230.754 174.52 230.607 174.182 230.524C173.917 230.446 173.69 230.273 173.544 230.039C173.008 229.114 172.906 228.929 183.65 220.137C181.927 221.254 180.134 222.453 178.546 223.512C169.091 229.822 166.149 231.615 164.848 231.315C164.69 231.279 164.541 231.212 164.411 231.116C164.28 231.021 164.171 230.899 164.089 230.76C163.514 229.765 163.514 229.765 176.211 220.59L178.724 218.778C177.257 219.755 175.796 220.75 174.456 221.662C164.465 228.457 159.916 231.392 158.213 231.009C158.035 230.969 157.868 230.891 157.722 230.781C157.577 230.671 157.457 230.531 157.371 230.371C156.733 229.293 156.605 229.05 175.069 216.507L150.786 230.543C150.57 230.664 150.315 230.694 150.077 230.629C149.838 230.563 149.635 230.406 149.51 230.192C149.083 229.452 149.415 228.546 151.169 227.002C148.375 228.61 146.754 229.254 145.957 229.069C145.791 229.031 145.634 228.96 145.496 228.86C145.358 228.761 145.241 228.634 145.153 228.489C144.623 227.57 144.827 226.722 151.584 222.179C144.617 226.537 142.046 227.819 141.044 227.583C140.895 227.548 140.755 227.483 140.632 227.392C140.509 227.301 140.406 227.186 140.33 227.053C139.864 226.256 140.298 225.969 141.899 224.91L145.427 222.606L150.825 219.117C144.878 222.205 143.985 221.994 143.488 221.873C143.32 221.835 143.162 221.763 143.023 221.662C142.883 221.561 142.766 221.433 142.677 221.286C142.56 221.07 142.53 220.816 142.594 220.579C142.658 220.341 142.811 220.137 143.022 220.01C161.747 208.909 190.655 191.102 197.622 185.213C190.674 188.371 169.901 201.272 158.066 208.641C142.824 218.115 142.754 218.096 142.116 217.93C141.984 217.9 141.86 217.844 141.75 217.765C141.64 217.687 141.548 217.586 141.478 217.471C140.961 216.577 140.987 216.003 147.086 212.226C144.279 213.547 142.429 214.14 141.612 213.949C141.433 213.907 141.265 213.829 141.118 213.719C140.971 213.609 140.848 213.47 140.757 213.311C140.635 213.099 140.599 212.848 140.657 212.61C140.716 212.372 140.863 212.166 141.07 212.035C159.967 199.996 186.553 182.948 197.399 175.745C194.381 177.283 190.33 179.573 185.825 182.272C182.182 184.614 177.863 187.338 172.753 190.515C166.003 194.719 159.176 198.886 153.491 202.331C139.762 210.995 139.596 210.957 138.926 210.791C138.794 210.759 138.67 210.702 138.56 210.622C138.451 210.542 138.358 210.441 138.288 210.325C138.17 210.109 138.14 209.856 138.205 209.618C138.269 209.38 138.422 209.177 138.632 209.049C142.767 206.593 147.328 203.856 152.062 200.985L154.551 199.415C144.636 205.087 139.156 207.569 137.541 207.173C137.355 207.137 137.178 207.061 137.023 206.951C136.868 206.841 136.738 206.699 136.642 206.535C136.049 205.514 136.891 204.213 143.883 199.645C139.373 202.395 137.586 203.211 136.827 203.026C136.682 202.994 136.546 202.931 136.426 202.844C136.306 202.756 136.206 202.644 136.131 202.516C135.73 201.82 135.404 201.24 140.074 197.852C137.561 199.128 135.972 199.645 135.213 199.46C135.041 199.423 134.878 199.35 134.735 199.247C134.593 199.144 134.473 199.012 134.383 198.86C134.319 198.75 134.278 198.629 134.261 198.503C134.245 198.377 134.254 198.249 134.288 198.126C134.355 197.882 134.515 197.674 134.734 197.546C155.437 185.775 186.789 167.132 196.333 159.61C185.864 165.391 157 182.336 136.859 194.279C136.75 194.343 136.63 194.385 136.505 194.403C136.379 194.42 136.252 194.413 136.13 194.381C136.008 194.349 135.893 194.293 135.793 194.216C135.692 194.14 135.608 194.044 135.545 193.935C135.447 193.76 135.385 193.566 135.365 193.367C135.344 193.167 135.364 192.965 135.423 192.774C135.779 191.965 136.316 191.248 136.993 190.681C135.506 191.287 134.511 191.51 133.943 191.37C133.767 191.327 133.601 191.248 133.456 191.138C133.311 191.029 133.19 190.89 133.101 190.732C132.527 189.743 133.624 188.977 135.283 187.823C136.559 186.961 138.365 185.768 140.891 184.186C145.606 181.239 152.075 177.334 158.927 173.206C166.628 168.561 175.777 163.043 183.044 158.475C167.496 167.407 143.009 181.711 131.251 188.588C131.028 188.715 130.765 188.749 130.517 188.684C130.395 188.652 130.281 188.596 130.182 188.519C130.082 188.443 129.999 188.347 129.937 188.237C129.445 187.382 129.299 187.134 137.752 181.813C134.441 183.631 132.348 184.416 131.283 184.167C131.082 184.125 130.891 184.042 130.724 183.922C130.557 183.802 130.417 183.649 130.313 183.472C129.675 182.374 129.675 182.374 145.025 173.461C152.126 169.34 160.599 164.414 168.395 159.681C174.941 155.329 180.064 152.025 183.95 149.728C185.988 148.372 187.922 146.866 189.736 145.223C181.768 148.803 150.301 167.828 130.402 180.205C130.187 180.34 129.927 180.385 129.68 180.329C129.432 180.272 129.217 180.12 129.082 179.905C128.946 179.69 128.902 179.43 128.958 179.183C129.014 178.935 129.167 178.72 129.381 178.584L135.557 174.654C130.453 177.277 128.539 177.717 127.755 177.519C127.577 177.478 127.409 177.399 127.263 177.289C127.117 177.18 126.995 177.041 126.906 176.881C126.782 176.669 126.746 176.418 126.804 176.18C126.862 175.942 127.011 175.735 127.219 175.605L140.814 166.89C129.7 173.168 128.801 172.945 128.252 172.804C128.106 172.77 127.969 172.707 127.848 172.618C127.727 172.529 127.626 172.417 127.55 172.287C127.431 172.073 127.398 171.822 127.459 171.585C127.519 171.347 127.669 171.142 127.876 171.011C142.205 162.15 162.564 149.319 174.45 141.274C164.848 146.806 150.844 155.023 140.993 160.816L130.013 167.196C127.576 168.619 126.396 169.314 125.764 169.633L125.598 169.735C125.158 169.946 125.049 169.914 124.864 169.863C124.684 169.815 124.522 169.715 124.398 169.576C124.274 169.437 124.193 169.265 124.165 169.081C124.137 168.897 124.164 168.708 124.242 168.539C124.319 168.37 124.445 168.227 124.603 168.128C139.8 158.73 162.245 144.566 172.3 137.599C166.947 140.7 158.953 145.798 152.522 149.913C134.492 161.397 129.011 164.702 127.423 164.306C127.272 164.27 127.13 164.204 127.005 164.112C126.88 164.02 126.774 163.904 126.695 163.77C126.3 163.075 126.013 162.583 132.004 158.264C130.37 158.985 129.267 159.259 128.622 159.106C128.44 159.065 128.268 158.987 128.117 158.877C127.965 158.768 127.838 158.629 127.742 158.468C127.623 158.255 127.59 158.004 127.65 157.767C127.709 157.531 127.856 157.325 128.061 157.192C139.832 149.785 157.721 138.174 163.872 133.369C158.487 136.004 146.735 143.577 139.819 148.005C128.52 155.208 128.099 155.387 127.378 155.208C127.246 155.177 127.121 155.12 127.012 155.04C126.902 154.96 126.81 154.859 126.74 154.742C126.23 153.868 125.783 153.09 136.846 145.485C135.481 146.353 134.084 147.252 132.654 148.171C132.536 148.267 132.398 148.334 132.25 148.368C132.102 148.403 131.948 148.403 131.799 148.369C131.674 148.339 131.555 148.283 131.452 148.205C131.349 148.127 131.263 148.029 131.2 147.916C130.517 146.736 131.5 145.721 139.264 139.769C139.122 139.738 138.987 139.678 138.87 139.593C138.752 139.507 138.654 139.397 138.581 139.271C138.463 139.051 138.435 138.793 138.503 138.553C138.571 138.313 138.729 138.108 138.945 137.982C139.124 137.884 139.329 137.842 139.532 137.861C140.541 137.275 141.519 136.636 142.46 135.947C145.574 133.759 146.454 133.235 147.214 133.395C147.362 133.427 147.502 133.49 147.625 133.579C147.748 133.668 147.851 133.781 147.928 133.912C148.477 134.869 148.049 135.443 142.824 139.488C144.279 138.588 145.778 137.657 147.29 136.738C162.041 127.717 163.183 127.985 163.878 128.151C164.031 128.183 164.176 128.248 164.302 128.341C164.428 128.433 164.534 128.551 164.612 128.686C164.732 128.9 164.766 129.151 164.706 129.388C164.647 129.625 164.499 129.831 164.293 129.962C157.096 134.428 149.619 139.265 143.347 143.443C157.906 134.148 164.905 130.045 166.877 130.543C167.048 130.581 167.209 130.654 167.351 130.757C167.492 130.86 167.611 130.992 167.7 131.143C168.306 132.195 168.746 132.961 148.604 146.219L145.708 148.133C149.766 145.581 153.874 142.901 157.192 140.732C170.111 132.349 172.204 131.117 173.18 131.347C173.314 131.382 173.439 131.443 173.549 131.528C173.659 131.612 173.75 131.718 173.818 131.838C173.94 132.05 173.976 132.301 173.918 132.539C173.86 132.777 173.712 132.983 173.506 133.114C161.014 141.076 142.767 152.962 133.745 159.349C138.594 156.491 145.465 152.107 151.45 148.292C170.418 136.17 176.606 132.502 178.354 132.923C178.511 132.96 178.658 133.029 178.787 133.124C178.916 133.219 179.025 133.34 179.107 133.478C179.573 134.288 179.911 134.862 168.816 142.269C184.364 133.248 184.664 133.337 185.155 133.452C185.28 133.484 185.398 133.541 185.501 133.619C185.604 133.697 185.69 133.794 185.755 133.905C186.393 135.009 186.846 135.819 157.511 154.564C155.38 155.929 153.243 157.288 151.131 158.615C162.742 151.75 176.581 143.303 187.063 136.757C187.173 136.69 187.295 136.646 187.422 136.626C187.549 136.606 187.678 136.612 187.803 136.642C188.054 136.706 188.27 136.867 188.403 137.089C188.856 137.88 188.186 138.365 187.478 138.85C187.044 139.15 186.406 139.584 185.564 140.126C184.02 141.153 181.736 142.678 178.788 144.592C173.825 147.826 166.889 152.312 158.174 157.926C149.778 163.33 141.318 168.772 135.519 172.479C143.181 168.427 158.085 159.674 186.795 141.332C190.929 138.697 190.929 138.697 191.35 138.78C191.477 138.811 191.595 138.867 191.699 138.945C191.804 139.022 191.891 139.12 191.956 139.233C192.193 139.641 192.327 139.871 191.561 140.553C190.54 141.446 188.001 143.105 182.208 146.869C190.413 142.372 191.178 142.557 191.676 142.684C191.821 142.717 191.957 142.779 192.077 142.867C192.196 142.955 192.297 143.066 192.371 143.195C192.716 143.794 192.799 144.515 191.523 145.944C192.026 145.787 192.559 145.748 193.079 145.83C193.288 145.873 193.484 145.959 193.657 146.084C193.829 146.208 193.974 146.367 194.081 146.55C194.719 147.648 195.038 148.209 176.083 160.165C196.155 148.541 196.352 148.592 196.831 148.72C196.954 148.751 197.069 148.807 197.17 148.883C197.271 148.96 197.355 149.056 197.418 149.166C198.056 150.225 196.907 151.291 194.164 153.294C192.397 154.57 189.902 156.254 186.559 158.398C197.705 151.438 200.499 149.996 201.495 150.238C201.635 150.272 201.768 150.335 201.884 150.421C202 150.508 202.098 150.617 202.171 150.742C202.235 150.851 202.276 150.971 202.293 151.096C202.309 151.221 202.3 151.348 202.267 151.469C202.234 151.593 202.177 151.708 202.1 151.809C202.022 151.91 201.925 151.994 201.814 152.056C195.306 155.744 188.69 159.559 182.297 163.323L175.675 167.509C162.653 175.752 153.153 181.679 146.486 185.558C144.374 187.006 142.569 188.295 141.121 189.386C147.054 185.877 157.16 179.911 167.279 174.01C199.179 155.342 199.664 155.476 200.27 155.636C200.395 155.668 200.512 155.724 200.615 155.802C200.718 155.88 200.804 155.977 200.869 156.089C200.962 156.252 201.02 156.432 201.041 156.618C201.062 156.805 201.045 156.994 200.991 157.173C200.802 157.791 200.442 158.342 199.951 158.762C202.139 157.671 203.511 157.224 204.187 157.384C204.351 157.421 204.506 157.492 204.643 157.592C204.779 157.692 204.893 157.819 204.978 157.964C205.488 158.845 204.774 159.323 203.198 160.37C202.247 161.008 200.844 161.894 198.898 163.107L198.522 163.343C201.495 161.92 203.581 161.25 204.627 161.505C204.841 161.549 205.043 161.637 205.221 161.764C205.399 161.89 205.549 162.052 205.661 162.239C206.541 163.764 205.661 164.733 174.533 183.146C161.46 190.936 144.189 201.144 139.481 204.972C142.078 204.06 148.547 200.934 164.625 191.204C177.729 183.274 192.161 174.016 199.077 169.57C203.881 166.488 203.874 166.494 204.302 166.596C204.556 166.661 204.774 166.824 204.908 167.049C205.297 167.726 205.693 168.408 200.442 172.319C201.183 171.984 201.998 171.844 202.809 171.911C202.987 171.953 203.156 172.031 203.303 172.141C203.45 172.251 203.573 172.39 203.664 172.549C204.225 173.525 204.225 173.525 193.902 180.288C188.798 183.618 181.717 188.218 172.785 193.96C164.172 199.498 155.488 205.055 149.542 208.851C161.588 202.395 184.16 188.078 194.202 181.711C203.134 176.064 203.134 176.064 203.619 176.186C203.744 176.218 203.861 176.274 203.964 176.352C204.067 176.43 204.154 176.527 204.219 176.639C204.902 177.825 203.817 179.51 199.619 182.629C199.742 182.612 199.866 182.612 199.989 182.629C200.145 182.667 200.292 182.735 200.422 182.83C200.551 182.926 200.66 183.046 200.742 183.184C201.412 184.346 202.171 185.66 173.856 203.39C181.997 198.375 190.444 193.042 197.265 188.62C197.374 188.549 197.496 188.501 197.625 188.479C197.753 188.457 197.884 188.461 198.011 188.491C198.138 188.522 198.257 188.578 198.361 188.656C198.465 188.734 198.552 188.833 198.617 188.946C199.083 189.762 198.439 190.222 197.341 190.987C196.703 191.44 195.74 192.104 194.477 192.946C193.213 193.788 191.644 194.86 189.749 196.085C192.39 194.745 194.024 194.203 194.853 194.407C195.033 194.447 195.203 194.525 195.351 194.635C195.499 194.745 195.623 194.884 195.714 195.045C196.25 195.97 196.129 196.321 189.672 200.493C191.031 199.913 191.995 199.702 192.614 199.855C192.806 199.897 192.987 199.978 193.147 200.093C193.306 200.208 193.439 200.356 193.539 200.525C194.292 201.801 193.724 202.401 176.434 212.871C171.483 215.869 165.25 219.64 160.203 222.894L194.151 203.301C194.26 203.236 194.38 203.195 194.505 203.178C194.63 203.162 194.757 203.171 194.879 203.205C195.122 203.27 195.331 203.428 195.459 203.645C195.931 204.468 195.261 204.959 194.151 205.776C193.481 206.267 192.499 206.963 191.146 207.894C188.626 209.642 185.124 212.009 181.417 214.523C177.097 217.445 171.662 221.126 167.208 224.221C169.256 222.868 171.387 221.42 173.282 220.131C183.152 213.419 187.318 210.733 188.945 211.091C189.116 211.128 189.277 211.2 189.418 211.302C189.56 211.404 189.679 211.534 189.768 211.684C190.323 212.654 190.349 212.698 179.031 220.897C187.242 215.435 189.928 213.879 191.153 214.153C191.31 214.189 191.459 214.257 191.59 214.352C191.72 214.448 191.83 214.569 191.912 214.708C192.358 215.486 192.358 215.486 186.648 220.15C184.926 221.554 182.533 223.506 180.377 225.312C182.125 224.233 184.052 223.008 185.883 221.822C185.992 221.751 186.114 221.703 186.243 221.68C186.371 221.658 186.502 221.663 186.629 221.693C186.756 221.723 186.875 221.779 186.979 221.858C187.083 221.936 187.17 222.034 187.235 222.147C187.593 222.785 187.459 222.913 186.151 224.316C185.085 225.458 184.173 226.46 183.401 227.315C189.194 223.863 189.405 223.921 189.813 224.023C189.937 224.055 190.053 224.112 190.155 224.19C190.257 224.267 190.342 224.365 190.406 224.476C190.47 224.584 190.511 224.705 190.528 224.83C190.545 224.954 190.537 225.081 190.504 225.203C190.472 225.325 190.415 225.439 190.338 225.539C190.261 225.638 190.165 225.722 190.055 225.784C189.963 225.839 189.861 225.878 189.755 225.899C188.907 226.281 184.192 229.057 180.039 231.57C179.899 231.634 179.746 231.665 179.592 231.66ZM188.798 225.388C188.9 225.559 189.051 225.695 189.232 225.777C189.053 225.693 188.902 225.558 188.798 225.388ZM165.243 215.646C159.731 219.085 154.308 222.53 150.774 224.986C154.621 222.696 160.21 219.008 165.243 215.646ZM188.971 198.656C182.712 202.127 172.587 208.647 164.893 213.617C167.725 211.85 170.954 209.853 174.622 207.594C179.675 204.487 185.117 201.144 188.971 198.656ZM188.562 203.122C185.162 204.934 180 208.226 174.967 211.512L175.496 211.193C180.198 208.334 185.302 205.24 188.562 203.109V203.122ZM157.192 188.792C152.981 191.427 149.153 193.909 145.963 196.04C149.268 193.928 153.185 191.396 157.192 188.792ZM202.611 163.7C200.761 164.338 196.837 166.124 188.537 171.107C180.236 176.09 170.207 182.642 161.275 188.448C157.377 191 154.098 193.105 151.329 194.879C156.701 191.574 163.916 187.255 173.557 181.551C185.289 174.591 198.407 166.832 202.611 163.7ZM196.62 182.419L195.268 183.28C190.802 186.117 186.572 188.786 182.578 191.287C187.905 188.084 192.939 184.952 196.62 182.419ZM154.308 178.176C148.458 181.711 142.773 185.194 138.996 187.574C140.91 186.598 143.213 185.29 145.816 183.746C148.375 182.004 151.239 180.122 154.308 178.176ZM169.288 161.32C166.838 162.953 164.427 164.574 162.168 166.086C157.702 169.097 153.734 171.726 150.295 173.984L153.81 171.815C166.73 163.853 185.385 152.344 190.872 148.171C188.843 149.078 186.875 150.118 184.983 151.284C182.801 152.809 180.026 154.64 176.511 156.861C174.22 158.296 171.789 159.789 169.288 161.307V161.32Z" fill="#E0EBE3"/>
<g opacity="0.4">
<path d="M179.592 231.66C179.512 231.659 179.433 231.648 179.356 231.628C179.107 231.563 178.894 231.402 178.763 231.181C178.431 230.601 178.252 230.288 180.945 227.2C175.139 230.754 174.52 230.607 174.182 230.524C173.917 230.446 173.69 230.273 173.544 230.039C173.008 229.114 172.906 228.929 183.65 220.137C181.927 221.254 180.134 222.453 178.546 223.512C169.091 229.822 166.149 231.615 164.848 231.315C164.69 231.279 164.541 231.212 164.411 231.116C164.28 231.021 164.171 230.899 164.089 230.76C163.514 229.765 163.514 229.765 176.211 220.59L178.724 218.778C177.257 219.755 175.796 220.75 174.456 221.662C164.465 228.457 159.916 231.392 158.213 231.009C158.035 230.969 157.868 230.891 157.722 230.781C157.577 230.671 157.457 230.531 157.371 230.371C156.733 229.293 156.605 229.05 175.069 216.507L150.786 230.543C150.57 230.664 150.315 230.694 150.077 230.629C149.838 230.563 149.635 230.406 149.51 230.192C149.083 229.452 149.415 228.546 151.169 227.002C148.375 228.61 146.754 229.254 145.957 229.069C145.791 229.031 145.634 228.96 145.496 228.86C145.358 228.761 145.241 228.634 145.153 228.489C144.623 227.57 144.827 226.722 151.584 222.179C144.617 226.537 142.046 227.819 141.044 227.583C140.895 227.548 140.755 227.483 140.632 227.392C140.509 227.301 140.406 227.186 140.33 227.053C139.864 226.256 140.298 225.969 141.899 224.91L145.427 222.606L150.825 219.117C144.878 222.205 143.985 221.994 143.488 221.873C143.32 221.835 143.162 221.763 143.023 221.662C142.883 221.561 142.766 221.433 142.677 221.286C142.56 221.07 142.53 220.816 142.594 220.579C142.658 220.341 142.811 220.137 143.022 220.01C161.747 208.909 190.655 191.102 197.622 185.213C190.674 188.371 169.901 201.272 158.066 208.641C142.824 218.115 142.754 218.096 142.116 217.93C141.984 217.9 141.86 217.844 141.75 217.765C141.64 217.687 141.548 217.586 141.478 217.471C140.961 216.577 140.987 216.003 147.086 212.226C144.279 213.547 142.429 214.14 141.612 213.949C141.433 213.907 141.265 213.829 141.118 213.719C140.971 213.609 140.848 213.47 140.757 213.311C140.635 213.099 140.599 212.848 140.657 212.61C140.716 212.372 140.863 212.166 141.07 212.035C159.967 199.996 186.553 182.948 197.399 175.745C194.381 177.283 190.33 179.573 185.825 182.272C182.182 184.614 177.863 187.338 172.753 190.515C166.003 194.719 159.176 198.886 153.491 202.331C139.762 210.995 139.596 210.957 138.926 210.791C138.794 210.759 138.67 210.702 138.56 210.622C138.451 210.542 138.358 210.441 138.288 210.325C138.17 210.109 138.14 209.856 138.205 209.618C138.269 209.38 138.422 209.177 138.632 209.049C142.767 206.593 147.328 203.856 152.062 200.985L154.551 199.415C144.636 205.087 139.156 207.569 137.541 207.173C137.355 207.137 137.178 207.061 137.023 206.951C136.868 206.841 136.738 206.699 136.642 206.535C136.049 205.514 136.891 204.213 143.883 199.645C139.373 202.395 137.586 203.211 136.827 203.026C136.682 202.994 136.546 202.931 136.426 202.844C136.306 202.756 136.206 202.644 136.131 202.516C135.73 201.82 135.404 201.24 140.074 197.852C137.561 199.128 135.972 199.645 135.213 199.46C135.041 199.423 134.878 199.35 134.735 199.247C134.593 199.144 134.473 199.012 134.383 198.86C134.319 198.75 134.278 198.629 134.261 198.503C134.245 198.377 134.254 198.249 134.288 198.126C134.355 197.882 134.515 197.674 134.734 197.546C155.437 185.775 186.789 167.132 196.333 159.61C185.864 165.391 157 182.336 136.859 194.279C136.75 194.343 136.63 194.385 136.505 194.403C136.379 194.42 136.252 194.413 136.13 194.381C136.008 194.349 135.893 194.293 135.793 194.216C135.692 194.14 135.608 194.044 135.545 193.935C135.447 193.76 135.385 193.566 135.365 193.367C135.344 193.167 135.364 192.965 135.423 192.774C135.779 191.965 136.316 191.248 136.993 190.681C135.506 191.287 134.511 191.51 133.943 191.37C133.767 191.327 133.601 191.248 133.456 191.138C133.311 191.029 133.19 190.89 133.101 190.732C132.527 189.743 133.624 188.977 135.283 187.823C136.559 186.961 138.365 185.768 140.891 184.186C145.606 181.239 152.075 177.334 158.927 173.206C166.628 168.561 175.777 163.043 183.044 158.475C167.496 167.407 143.009 181.711 131.251 188.588C131.028 188.715 130.765 188.749 130.517 188.684C130.395 188.652 130.281 188.596 130.182 188.519C130.082 188.443 129.999 188.347 129.937 188.237C129.445 187.382 129.299 187.134 137.752 181.813C134.441 183.631 132.348 184.416 131.283 184.167C131.082 184.125 130.891 184.042 130.724 183.922C130.557 183.802 130.417 183.649 130.313 183.472C129.675 182.374 129.675 182.374 145.025 173.461C152.126 169.34 160.599 164.414 168.395 159.681C174.941 155.329 180.064 152.025 183.95 149.728C185.988 148.372 187.922 146.866 189.736 145.223C181.768 148.803 150.301 167.828 130.402 180.205C130.187 180.34 129.927 180.385 129.68 180.329C129.432 180.272 129.217 180.12 129.082 179.905C128.946 179.69 128.902 179.43 128.958 179.183C129.014 178.935 129.167 178.72 129.381 178.584L135.557 174.654C130.453 177.277 128.539 177.717 127.755 177.519C127.577 177.478 127.409 177.399 127.263 177.289C127.117 177.18 126.995 177.041 126.906 176.881C126.782 176.669 126.746 176.418 126.804 176.18C126.862 175.942 127.011 175.735 127.219 175.605L140.814 166.89C129.7 173.168 128.801 172.945 128.252 172.804C128.106 172.77 127.969 172.707 127.848 172.618C127.727 172.529 127.626 172.417 127.55 172.287C127.431 172.073 127.398 171.822 127.459 171.585C127.519 171.347 127.669 171.142 127.876 171.011C142.205 162.15 162.564 149.319 174.45 141.274C164.848 146.806 150.844 155.023 140.993 160.816L130.013 167.196C127.576 168.619 126.396 169.314 125.764 169.633L125.598 169.735C125.158 169.946 125.049 169.914 124.864 169.863C124.684 169.815 124.522 169.715 124.398 169.576C124.274 169.437 124.193 169.265 124.165 169.081C124.137 168.897 124.164 168.708 124.242 168.539C124.319 168.37 124.445 168.227 124.603 168.128C139.8 158.73 162.245 144.566 172.3 137.599C166.947 140.7 158.953 145.798 152.522 149.913C134.492 161.397 129.011 164.702 127.423 164.306C127.272 164.27 127.13 164.204 127.005 164.112C126.88 164.02 126.774 163.904 126.695 163.77C126.3 163.075 126.013 162.583 132.004 158.264C130.37 158.985 129.267 159.259 128.622 159.106C128.44 159.065 128.268 158.987 128.117 158.877C127.965 158.768 127.838 158.629 127.742 158.468C127.623 158.255 127.59 158.004 127.65 157.767C127.709 157.531 127.856 157.325 128.061 157.192C139.832 149.785 157.721 138.174 163.872 133.369C158.487 136.004 146.735 143.577 139.819 148.005C128.52 155.208 128.099 155.387 127.378 155.208C127.246 155.177 127.121 155.12 127.012 155.04C126.902 154.96 126.81 154.859 126.74 154.742C126.23 153.868 125.783 153.09 136.846 145.485C135.481 146.353 134.084 147.252 132.654 148.171C132.536 148.267 132.398 148.334 132.25 148.368C132.102 148.403 131.948 148.403 131.799 148.369C131.674 148.339 131.555 148.283 131.452 148.205C131.349 148.127 131.263 148.029 131.2 147.916C130.517 146.736 131.5 145.721 139.264 139.769C139.122 139.738 138.987 139.678 138.87 139.593C138.752 139.507 138.654 139.397 138.581 139.271C138.463 139.051 138.435 138.793 138.503 138.553C138.571 138.313 138.729 138.108 138.945 137.982C139.124 137.884 139.329 137.842 139.532 137.861C140.541 137.275 141.519 136.636 142.46 135.947C145.574 133.759 146.454 133.235 147.214 133.395C147.362 133.427 147.502 133.49 147.625 133.579C147.748 133.668 147.851 133.781 147.928 133.912C148.477 134.869 148.049 135.443 142.824 139.488C144.279 138.588 145.778 137.657 147.29 136.738C162.041 127.717 163.183 127.985 163.878 128.151C164.031 128.183 164.176 128.248 164.302 128.341C164.428 128.433 164.534 128.551 164.612 128.686C164.732 128.9 164.766 129.151 164.706 129.388C164.647 129.625 164.499 129.831 164.293 129.962C157.096 134.428 149.619 139.265 143.347 143.443C157.906 134.148 164.905 130.045 166.877 130.543C167.048 130.581 167.209 130.654 167.351 130.757C167.492 130.86 167.611 130.992 167.7 131.143C168.306 132.195 168.746 132.961 148.604 146.219L145.708 148.133C149.766 145.581 153.874 142.901 157.192 140.732C170.111 132.349 172.204 131.117 173.18 131.347C173.314 131.382 173.439 131.443 173.549 131.528C173.659 131.612 173.75 131.718 173.818 131.838C173.94 132.05 173.976 132.301 173.918 132.539C173.86 132.777 173.712 132.983 173.506 133.114C161.014 141.076 142.767 152.962 133.745 159.349C138.594 156.491 145.465 152.107 151.45 148.292C170.418 136.17 176.606 132.502 178.354 132.923C178.511 132.96 178.658 133.029 178.787 133.124C178.916 133.219 179.025 133.34 179.107 133.478C179.573 134.288 179.911 134.862 168.816 142.269C184.364 133.248 184.664 133.337 185.155 133.452C185.28 133.484 185.398 133.541 185.501 133.619C185.604 133.697 185.69 133.794 185.755 133.905C186.393 135.009 186.846 135.819 157.511 154.564C155.38 155.929 153.243 157.288 151.131 158.615C162.742 151.75 176.581 143.303 187.063 136.757C187.173 136.69 187.295 136.646 187.422 136.626C187.549 136.606 187.678 136.612 187.803 136.642C188.054 136.706 188.27 136.867 188.403 137.089C188.856 137.88 188.186 138.365 187.478 138.85C187.044 139.15 186.406 139.584 185.564 140.126C184.02 141.153 181.736 142.678 178.788 144.592C173.825 147.826 166.889 152.312 158.174 157.926C149.778 163.33 141.318 168.772 135.519 172.479C143.181 168.427 158.085 159.674 186.795 141.332C190.929 138.697 190.929 138.697 191.35 138.78C191.477 138.811 191.595 138.867 191.699 138.945C191.804 139.022 191.891 139.12 191.956 139.233C192.193 139.641 192.327 139.871 191.561 140.553C190.54 141.446 188.001 143.105 182.208 146.869C190.413 142.372 191.178 142.557 191.676 142.684C191.821 142.717 191.957 142.779 192.077 142.867C192.196 142.955 192.297 143.066 192.371 143.195C192.716 143.794 192.799 144.515 191.523 145.944C192.026 145.787 192.559 145.748 193.079 145.83C193.288 145.873 193.484 145.959 193.657 146.084C193.829 146.208 193.974 146.367 194.081 146.55C194.719 147.648 195.038 148.209 176.083 160.165C196.155 148.541 196.352 148.592 196.831 148.72C196.954 148.751 197.069 148.807 197.17 148.883C197.271 148.96 197.355 149.056 197.418 149.166C198.056 150.225 196.907 151.291 194.164 153.294C192.397 154.57 189.902 156.254 186.559 158.398C197.705 151.438 200.499 149.996 201.495 150.238C201.635 150.272 201.768 150.335 201.884 150.421C202 150.508 202.098 150.617 202.171 150.742C202.235 150.851 202.276 150.971 202.293 151.096C202.309 151.221 202.3 151.348 202.267 151.469C202.234 151.593 202.177 151.708 202.1 151.809C202.022 151.91 201.925 151.994 201.814 152.056C195.306 155.744 188.69 159.559 182.297 163.323L175.675 167.509C162.653 175.752 153.153 181.679 146.486 185.558C144.374 187.006 142.569 188.295 141.121 189.386C147.054 185.877 157.16 179.911 167.279 174.01C199.179 155.342 199.664 155.476 200.27 155.636C200.395 155.668 200.512 155.724 200.615 155.802C200.718 155.88 200.804 155.977 200.869 156.089C200.962 156.252 201.02 156.432 201.041 156.618C201.062 156.805 201.045 156.994 200.991 157.173C200.802 157.791 200.442 158.342 199.951 158.762C202.139 157.671 203.511 157.224 204.187 157.384C204.351 157.421 204.506 157.492 204.643 157.592C204.779 157.692 204.893 157.819 204.978 157.964C205.488 158.845 204.774 159.323 203.198 160.37C202.247 161.008 200.844 161.894 198.898 163.107L198.522 163.343C201.495 161.92 203.581 161.25 204.627 161.505C204.841 161.549 205.043 161.637 205.221 161.764C205.399 161.89 205.549 162.052 205.661 162.239C206.541 163.764 205.661 164.733 174.533 183.146C161.46 190.936 144.189 201.144 139.481 204.972C142.078 204.06 148.547 200.934 164.625 191.204C177.729 183.274 192.161 174.016 199.077 169.57C203.881 166.488 203.874 166.494 204.302 166.596C204.556 166.661 204.774 166.824 204.908 167.049C205.297 167.726 205.693 168.408 200.442 172.319C201.183 171.984 201.998 171.844 202.809 171.911C202.987 171.953 203.156 172.031 203.303 172.141C203.45 172.251 203.573 172.39 203.664 172.549C204.225 173.525 204.225 173.525 193.902 180.288C188.798 183.618 181.717 188.218 172.785 193.96C164.172 199.498 155.488 205.055 149.542 208.851C161.588 202.395 184.16 188.078 194.202 181.711C203.134 176.064 203.134 176.064 203.619 176.186C203.744 176.218 203.861 176.274 203.964 176.352C204.067 176.43 204.154 176.527 204.219 176.639C204.902 177.825 203.817 179.51 199.619 182.629C199.742 182.612 199.866 182.612 199.989 182.629C200.145 182.667 200.292 182.735 200.422 182.83C200.551 182.926 200.66 183.046 200.742 183.184C201.412 184.346 202.171 185.66 173.856 203.39C181.997 198.375 190.444 193.042 197.265 188.62C197.374 188.549 197.496 188.501 197.625 188.479C197.753 188.457 197.884 188.461 198.011 188.491C198.138 188.522 198.257 188.578 198.361 188.656C198.465 188.734 198.552 188.833 198.617 188.946C199.083 189.762 198.439 190.222 197.341 190.987C196.703 191.44 195.74 192.104 194.477 192.946C193.213 193.788 191.644 194.86 189.749 196.085C192.39 194.745 194.024 194.203 194.853 194.407C195.033 194.447 195.203 194.525 195.351 194.635C195.499 194.745 195.623 194.884 195.714 195.045C196.25 195.97 196.129 196.321 189.672 200.493C191.031 199.913 191.995 199.702 192.614 199.855C192.806 199.897 192.987 199.978 193.147 200.093C193.306 200.208 193.439 200.356 193.539 200.525C194.292 201.801 193.724 202.401 176.434 212.871C171.483 215.869 165.25 219.64 160.203 222.894L194.151 203.301C194.26 203.236 194.38 203.195 194.505 203.178C194.63 203.162 194.757 203.171 194.879 203.205C195.122 203.27 195.331 203.428 195.459 203.645C195.931 204.468 195.261 204.959 194.151 205.776C193.481 206.267 192.499 206.963 191.146 207.894C188.626 209.642 185.124 212.009 181.417 214.523C177.097 217.445 171.662 221.126 167.208 224.221C169.256 222.868 171.387 221.42 173.282 220.131C183.152 213.419 187.318 210.733 188.945 211.091C189.116 211.128 189.277 211.2 189.418 211.302C189.56 211.404 189.679 211.534 189.768 211.684C190.323 212.654 190.349 212.698 179.031 220.897C187.242 215.435 189.928 213.879 191.153 214.153C191.31 214.189 191.459 214.257 191.59 214.352C191.72 214.448 191.83 214.569 191.912 214.708C192.358 215.486 192.358 215.486 186.648 220.15C184.926 221.554 182.533 223.506 180.377 225.312C182.125 224.233 184.052 223.008 185.883 221.822C185.992 221.751 186.114 221.703 186.243 221.68C186.371 221.658 186.502 221.663 186.629 221.693C186.756 221.723 186.875 221.779 186.979 221.858C187.083 221.936 187.17 222.034 187.235 222.147C187.593 222.785 187.459 222.913 186.151 224.316C185.085 225.458 184.173 226.46 183.401 227.315C189.194 223.863 189.405 223.921 189.813 224.023C189.937 224.055 190.053 224.112 190.155 224.19C190.257 224.267 190.342 224.365 190.406 224.476C190.47 224.584 190.511 224.705 190.528 224.83C190.545 224.954 190.537 225.081 190.504 225.203C190.472 225.325 190.415 225.439 190.338 225.539C190.261 225.638 190.165 225.722 190.055 225.784C189.963 225.839 189.861 225.878 189.755 225.899C188.907 226.281 184.192 229.057 180.039 231.57C179.899 231.634 179.746 231.665 179.592 231.66ZM188.798 225.388C188.9 225.559 189.051 225.695 189.232 225.777C189.053 225.693 188.902 225.558 188.798 225.388ZM165.243 215.646C159.731 219.085 154.308 222.53 150.774 224.986C154.621 222.696 160.21 219.008 165.243 215.646ZM188.971 198.656C182.712 202.127 172.587 208.647 164.893 213.617C167.725 211.85 170.954 209.853 174.622 207.594C179.675 204.487 185.117 201.144 188.971 198.656ZM188.562 203.122C185.162 204.934 180 208.226 174.967 211.512L175.496 211.193C180.198 208.334 185.302 205.24 188.562 203.109V203.122ZM157.192 188.792C152.981 191.427 149.153 193.909 145.963 196.04C149.268 193.928 153.185 191.396 157.192 188.792ZM202.611 163.7C200.761 164.338 196.837 166.124 188.537 171.107C180.236 176.09 170.207 182.642 161.275 188.448C157.377 191 154.098 193.105 151.329 194.879C156.701 191.574 163.916 187.255 173.557 181.551C185.289 174.591 198.407 166.832 202.611 163.7ZM196.62 182.419L195.268 183.28C190.802 186.117 186.572 188.786 182.578 191.287C187.905 188.084 192.939 184.952 196.62 182.419ZM154.308 178.176C148.458 181.711 142.773 185.194 138.996 187.574C140.91 186.598 143.213 185.29 145.816 183.746C148.375 182.004 151.239 180.122 154.308 178.176ZM169.288 161.32C166.838 162.953 164.427 164.574 162.168 166.086C157.702 169.097 153.734 171.726 150.295 173.984L153.81 171.815C166.73 163.853 185.385 152.344 190.872 148.171C188.843 149.078 186.875 150.118 184.983 151.284C182.801 152.809 180.026 154.64 176.511 156.861C174.22 158.296 171.789 159.789 169.288 161.307V161.32Z" fill="#F0F5F1"/>
</g>
<path d="M166.041 129.401H165.613C142.48 129.829 125.043 147.527 125.043 169.302C125.033 175.805 126.619 182.21 129.662 187.957C130.938 190.987 134.026 198.407 137.082 208.003C139.915 216.858 141.395 225.771 141.395 227.143C141.395 227.271 141.395 227.405 141.395 227.551C141.382 227.952 141.45 228.351 141.594 228.724C141.738 229.098 141.956 229.439 142.235 229.727C142.513 230.015 142.846 230.244 143.215 230.401C143.584 230.557 143.98 230.639 144.381 230.639H185.813C186.213 230.639 186.609 230.557 186.978 230.401C187.347 230.244 187.68 230.015 187.959 229.727C188.237 229.439 188.455 229.098 188.599 228.724C188.743 228.351 188.811 227.952 188.798 227.551C188.798 227.405 188.798 227.271 188.798 227.143C188.798 225.797 190.279 216.884 193.105 208.003C196.167 198.433 199.223 190.987 200.525 187.957C203.707 181.937 205.295 175.203 205.14 168.396C204.985 161.589 203.091 154.934 199.638 149.066C196.185 143.197 191.288 138.309 185.413 134.868C179.538 131.426 172.88 129.544 166.073 129.401H166.041Z" stroke="#263238" stroke-width="1.276" stroke-linecap="round" stroke-linejoin="round"/>
<path d="M180.02 135.807C178.865 135.288 177.68 134.836 176.473 134.454" stroke="#263238" stroke-width="1.914" stroke-linecap="round" stroke-linejoin="round"/>
<path d="M193.316 145.938C193.316 145.938 190.062 140.77 182.91 137.255" stroke="#263238" stroke-width="1.914" stroke-linecap="round" stroke-linejoin="round"/>
<path d="M162.45 212.545V192.053C162.45 192.053 164.025 182.074 158.839 182.074C153.652 182.074 154.047 187.268 160.032 192.85C166.016 198.433 175.203 193.252 176.403 188.863C177.602 184.473 174.406 182.483 172.409 186.068C170.412 189.654 172.409 230.377 172.409 230.377" stroke="#263238" stroke-width="1.914" stroke-linecap="round" stroke-linejoin="round"/>
<path d="M151.355 119.034L153.563 125.982" stroke="#263238" stroke-width="1.914" stroke-linecap="round" stroke-linejoin="round"/>
<path d="M205.445 134.186L198.178 139.871" stroke="#263238" stroke-width="1.914" stroke-linecap="round" stroke-linejoin="round"/>
<path d="M178.501 113.961L175.764 125.981" stroke="#263238" stroke-width="1.914" stroke-linecap="round" stroke-linejoin="round"/>
<path d="M186.968 233.625H143.208C142.648 233.625 142.193 234.079 142.193 234.639V235.143C142.193 235.703 142.648 236.157 143.208 236.157H186.968C187.528 236.157 187.983 235.703 187.983 235.143V234.639C187.983 234.079 187.528 233.625 186.968 233.625Z" fill="#263238" stroke="#263238" stroke-width="0.638" stroke-linecap="round" stroke-linejoin="round"/>
<path d="M186.968 239.329H143.208C142.648 239.329 142.193 239.783 142.193 240.343V240.847C142.193 241.407 142.648 241.861 143.208 241.861H186.968C187.528 241.861 187.983 241.407 187.983 240.847V240.343C187.983 239.783 187.528 239.329 186.968 239.329Z" fill="#263238" stroke="#263238" stroke-width="0.638" stroke-linecap="round" stroke-linejoin="round"/>
<path d="M186.968 245.032H143.208C142.648 245.032 142.193 245.486 142.193 246.047V246.551C142.193 247.111 142.648 247.565 143.208 247.565H186.968C187.528 247.565 187.983 247.111 187.983 246.551V246.047C187.983 245.486 187.528 245.032 186.968 245.032Z" fill="#263238" stroke="#263238" stroke-width="0.638" stroke-linecap="round" stroke-linejoin="round"/>
<path d="M166.431 250.602H143.961L150.43 259.534C150.985 260.301 151.714 260.925 152.557 261.356C153.399 261.786 154.333 262.01 155.279 262.009H175.057C176.006 262.009 176.94 261.783 177.784 261.35C178.628 260.918 179.358 260.291 179.912 259.521L186.331 250.634L166.431 250.602Z" fill="#263238" stroke="#263238" stroke-width="0.638" stroke-linecap="round" stroke-linejoin="round"/>
<path d="M214.671 155.208C214.671 155.208 210.587 159.674 207.244 161.894C203.901 164.114 201.573 167.068 204.641 168.58C206.485 169.486 209.107 168.21 209.107 168.21C209.107 168.21 205.018 169.321 204.278 173.04C203.538 176.76 211.678 175.254 211.678 175.254C211.678 175.254 205.739 179.337 207.595 180.824C209.452 182.31 213.165 181.194 215.022 181.194C216.878 181.194 226.167 175.254 228.42 175.254C230.672 175.254 235.106 180.084 235.106 183.797C235.106 187.51 241.026 187.14 241.786 175.624C242.545 164.108 239.559 154.455 234.729 151.482C229.9 148.509 214.671 155.208 214.671 155.208Z" fill="#F0F5F1" stroke="#263238" stroke-width="0.638" stroke-miterlimit="10" stroke-linecap="round"/>
<path d="M212.445 167.821L227.266 162.284C227.266 162.284 233.774 160.874 238.444 168.568" stroke="#263238" stroke-width="0.638" stroke-miterlimit="10" stroke-linecap="round"/>
<path d="M215.041 172.281L228.439 170.054C228.439 170.054 234.385 169.684 238.098 176.74" stroke="#263238" stroke-width="0.638" stroke-miterlimit="10" stroke-linecap="round"/>
<path d="M231.387 181.194L221.358 183.427L227.297 207.192C227.297 207.192 232.503 217.592 233.984 222.051C235.464 226.511 250.699 241.338 250.699 241.338L268.525 224.252C268.525 224.252 260.358 214.599 259.988 212.366C259.618 210.133 258.125 184.141 258.125 180.428C258.125 176.715 250.699 167.796 250.699 167.796C250.699 167.796 247.65 163.425 246.163 155.999C244.676 148.573 237.869 145.517 234.143 145.887C230.417 146.257 220.241 147.373 216.158 150.353C212.075 153.332 208.355 157.039 212.075 158.155C218.244 160.006 228.337 151.775 233.205 157.466C235.438 160.063 238.073 171.502 238.443 173.015C238.443 173.015 236.587 180.071 231.387 181.181" fill="#F0F5F1"/>
<path d="M231.387 181.194L221.358 183.427L227.297 207.192C227.297 207.192 232.503 217.592 233.984 222.051C235.464 226.511 250.699 241.338 250.699 241.338L268.525 224.252C268.525 224.252 260.358 214.599 259.988 212.366C259.618 210.133 258.125 184.141 258.125 180.428C258.125 176.715 250.699 167.796 250.699 167.796C250.699 167.796 247.65 163.425 246.163 155.999C244.676 148.573 237.869 145.517 234.143 145.887C230.417 146.257 220.241 147.373 216.158 150.353C212.075 153.332 208.355 157.039 212.075 158.155C218.244 160.006 228.337 151.775 233.205 157.466C235.438 160.063 238.073 171.502 238.443 173.015C238.443 173.015 236.587 180.071 231.387 181.181" stroke="#263238" stroke-width="0.638" stroke-miterlimit="10" stroke-linecap="round"/>
<path d="M193.987 146.671C194.101 146.552 194.253 146.477 194.417 146.461C194.581 146.445 194.745 146.487 194.88 146.582L196.399 147.634C196.548 147.74 196.651 147.9 196.683 148.081C196.715 148.261 196.675 148.447 196.571 148.598C196.467 148.747 196.307 148.849 196.128 148.882C195.949 148.914 195.764 148.874 195.614 148.77L194.095 147.711C193.946 147.607 193.844 147.447 193.812 147.268C193.779 147.089 193.819 146.904 193.923 146.754C193.941 146.724 193.962 146.696 193.987 146.671Z" fill="#263238" stroke="#263238" stroke-width="0.638" stroke-miterlimit="10" stroke-linecap="round"/>
<path d="M195.729 147.896C195.987 147.621 196.335 147.448 196.711 147.409C197.086 147.37 197.462 147.469 197.771 147.686L202.53 150.136L249.257 180.875C249.656 181.152 249.996 181.504 250.258 181.912C250.52 182.321 250.699 182.777 250.785 183.254C250.871 183.732 250.862 184.221 250.758 184.695C250.655 185.169 250.459 185.619 250.182 186.017C249.906 186.415 249.553 186.755 249.145 187.017C248.736 187.279 248.28 187.459 247.803 187.544C247.325 187.63 246.836 187.621 246.362 187.518C245.888 187.415 245.439 187.219 245.04 186.942L199.691 153.485L195.984 150.295C195.814 150.177 195.669 150.027 195.557 149.853C195.445 149.678 195.368 149.484 195.332 149.28C195.295 149.076 195.299 148.867 195.343 148.665C195.387 148.462 195.471 148.271 195.589 148.101C195.629 148.028 195.676 147.96 195.729 147.896Z" fill="#E0EBE3" stroke="#263238" stroke-width="0.638" stroke-miterlimit="10" stroke-linecap="round"/>
<path d="M249.264 180.875L235.777 172.006C234.736 172.308 233.819 172.933 233.157 173.791C232.495 174.649 232.123 175.695 232.096 176.779C232.097 176.992 232.114 177.206 232.147 177.417L245.047 186.936C245.852 187.495 246.845 187.712 247.81 187.538C248.774 187.365 249.63 186.815 250.189 186.01C250.749 185.206 250.965 184.212 250.792 183.248C250.618 182.283 250.069 181.427 249.264 180.868V180.875Z" fill="#263238" stroke="#263238" stroke-width="0.638" stroke-miterlimit="10" stroke-linecap="round"/>
<path d="M234.009 222.051C229.926 216.112 224.726 200.883 222.525 197.909C220.324 194.936 214.321 188.339 212.094 181.679C209.867 175.018 208.406 169.684 208.406 164.108C208.406 158.532 213.198 157.575 216.911 163.521C220.624 169.467 225.077 178.597 225.077 178.597C225.077 178.597 228.05 182.31 234.009 181.194" fill="#F0F5F1"/>
<path d="M234.009 222.051C229.926 216.112 224.726 200.883 222.525 197.909C220.324 194.936 214.321 188.339 212.094 181.679C209.867 175.018 208.406 169.684 208.406 164.108C208.406 158.532 213.198 157.575 216.911 163.521C220.624 169.467 225.077 178.597 225.077 178.597C225.077 178.597 228.05 182.31 234.009 181.194" stroke="#263238" stroke-width="0.638" stroke-miterlimit="10" stroke-linecap="round"/>
<path d="M213.013 161.786L214.289 164.268C214.289 164.268 214.008 164.268 212.024 165.397C210.84 166.072 209.846 167.035 209.134 168.198C209.134 168.198 207.22 162.851 208.91 161.18C209.321 160.746 209.864 160.461 210.454 160.369C210.975 160.315 211.499 160.421 211.957 160.675C212.414 160.928 212.783 161.316 213.013 161.786Z" fill="#F0F5F1" stroke="#263238" stroke-width="0.638" stroke-miterlimit="10" stroke-linecap="round"/>
<path d="M264.633 216.686C264.633 216.686 254.801 219.595 249.697 224.699C246.317 228.143 243.153 231.793 240.223 235.628L249.333 246.193C249.333 246.193 256.989 237.446 262.093 233.433C265.57 230.763 269.221 228.329 273.022 226.147L264.633 216.686Z" fill="#F0F5F1" stroke="#263238" stroke-width="0.638" stroke-miterlimit="10" stroke-linecap="round"/>
<path d="M273.763 293.551L244.982 247.284C244.982 247.284 252.268 236.355 258.463 230.893C264.658 225.432 272.672 223.971 272.672 223.971L308.655 258.506" fill="#263238"/>
<path d="M273.763 293.551L244.982 247.284C244.982 247.284 252.268 236.355 258.463 230.893C264.658 225.432 272.672 223.971 272.672 223.971L308.655 258.506" stroke="#263238" stroke-width="0.638" stroke-miterlimit="10" stroke-linecap="round"/>
<path d="M218.314 175.299L218.952 175.235" stroke="#263238" stroke-width="0.638" stroke-miterlimit="10" stroke-linecap="round"/>
<path d="M212.758 178.386C212.758 178.386 213.096 176.351 217.186 175.496" stroke="#263238" stroke-width="0.638" stroke-miterlimit="10" stroke-linecap="round"/>
<path d="M217.197 176.951C217.197 176.951 216.91 177.812 214.045 178.96" stroke="#263238" stroke-width="0.638" stroke-miterlimit="10" stroke-linecap="round"/>
<path d="M217.083 174.227C215.649 174.452 214.287 175.004 213.102 175.841" stroke="#263238" stroke-width="0.638" stroke-miterlimit="10" stroke-linecap="round"/>
<path d="M127.309 110.771C127.309 110.771 133.332 111.262 137.147 112.532C140.962 113.801 144.714 113.808 144.018 110.477C143.603 108.468 140.988 107.185 140.988 107.185C140.988 107.185 144.375 109.737 147.763 108.034C151.151 106.33 144.962 100.805 144.962 100.805C144.962 100.805 151.84 102.987 151.872 100.607C151.904 98.2277 148.746 95.9819 147.604 94.5145C146.462 93.0471 136.075 89.3659 134.703 87.6114C133.332 85.8569 134.41 79.3684 137.345 77.0844C140.279 74.8003 136.337 70.3535 126.824 76.8228C117.311 83.2921 111.512 91.5797 112.093 97.2388C112.673 102.898 127.309 110.771 127.309 110.771Z" fill="#F0F5F1" stroke="#263238" stroke-width="0.638" stroke-miterlimit="10" stroke-linecap="round"/>
<path d="M138.646 104.806L125.172 96.5115C125.172 96.5115 120.068 92.2433 123.258 83.8345" stroke="#263238" stroke-width="0.638" stroke-miterlimit="10" stroke-linecap="round"/>
<path d="M140.568 99.9888L130.602 90.8016C130.602 90.8016 126.66 86.3356 129.964 79.0752" stroke="#263238" stroke-width="0.638" stroke-miterlimit="10" stroke-linecap="round"/>
<path d="M137.575 81.6144L145.486 88.1667L160.639 68.88C160.639 68.88 170.4 64.4969 172.971 60.586C175.543 56.675 177.731 35.4934 177.731 35.4934L153.238 32.0737C153.238 32.0737 150.744 44.4764 149.225 46.1544C147.707 47.8323 123.501 58.6783 120.573 60.9624C117.644 63.2464 115.162 74.5773 115.162 74.5773C113.856 79.1841 112.149 83.6673 110.058 87.9753C104.476 99.2806 105.471 98.413 108.042 101.118C110.613 103.823 116.872 109.323 121.727 110.726C126.582 112.13 132.618 117.145 131.265 111.013C129.875 104.729 116.247 102.081 117.746 94.7572C118.429 91.4014 125.862 82.2843 126.806 81.0785C126.806 81.0785 133.511 78.2139 137.588 81.6336" fill="#F0F5F1"/>
<path d="M137.575 81.6144L145.486 88.1667L160.639 68.88C160.639 68.88 170.4 64.4969 172.971 60.586C175.543 56.675 177.731 35.4934 177.731 35.4934L153.238 32.0737C153.238 32.0737 150.744 44.4765 149.225 46.1544C147.707 47.8323 123.501 58.6783 120.573 60.9624C117.644 63.2464 115.162 74.5773 115.162 74.5773C113.856 79.1841 112.149 83.6673 110.058 87.9753C104.476 99.2806 105.471 98.413 108.042 101.118C110.613 103.823 116.872 109.323 121.727 110.726C126.582 112.13 132.618 117.145 131.265 111.013C129.875 104.729 116.247 102.081 117.746 94.7572C118.429 91.4014 125.862 82.2843 126.806 81.0785C126.806 81.0785 133.511 78.2139 137.588 81.6336" stroke="#263238" stroke-width="0.638" stroke-miterlimit="10" stroke-linecap="round"/>
<path d="M133.281 132.335C133.116 132.324 132.96 132.253 132.843 132.135C132.726 132.018 132.655 131.863 132.643 131.697L132.547 129.847C132.534 129.753 132.541 129.657 132.567 129.566C132.594 129.474 132.638 129.389 132.699 129.316C132.759 129.243 132.834 129.183 132.919 129.14C133.004 129.097 133.097 129.072 133.192 129.067C133.287 129.062 133.382 129.076 133.471 129.109C133.56 129.142 133.641 129.194 133.709 129.26C133.777 129.326 133.831 129.405 133.867 129.493C133.904 129.581 133.921 129.676 133.919 129.771L134.021 131.621C134.032 131.802 133.971 131.979 133.851 132.115C133.732 132.251 133.564 132.335 133.383 132.348L133.281 132.335Z" fill="#263238" stroke="#263238" stroke-width="0.638" stroke-miterlimit="10" stroke-linecap="round"/>
<path d="M133.205 130.198C132.829 130.165 132.478 129.996 132.217 129.724C131.955 129.452 131.801 129.095 131.782 128.718L130.8 123.454L126.378 67.6996C126.326 66.7207 126.664 65.7611 127.32 65.0318C127.975 64.3026 128.893 63.8634 129.871 63.811C130.85 63.7585 131.81 64.0971 132.539 64.7521C133.268 65.4072 133.708 66.3251 133.76 67.304L135.189 123.646L134.921 128.552C134.932 128.758 134.903 128.965 134.834 129.159C134.765 129.354 134.659 129.533 134.521 129.687C134.383 129.84 134.216 129.965 134.029 130.054C133.843 130.143 133.641 130.194 133.435 130.204C133.358 130.209 133.281 130.207 133.205 130.198Z" fill="#E0EBE3" stroke="#263238" stroke-width="0.638" stroke-miterlimit="10" stroke-linecap="round"/>
<path d="M126.347 67.6994L127.623 83.7898C128.498 84.43 129.554 84.7752 130.638 84.7752C131.722 84.7752 132.777 84.43 133.652 83.7898C133.822 83.6569 133.982 83.5119 134.131 83.356L133.729 67.3294C133.676 66.3505 133.237 65.4326 132.508 64.7775C131.779 64.1224 130.819 63.7839 129.84 63.8364C128.861 63.8888 127.943 64.328 127.288 65.0572C126.633 65.7865 126.295 66.7461 126.347 67.725V67.6994Z" fill="#263238" stroke="#263238" stroke-width="0.638" stroke-miterlimit="10" stroke-linecap="round"/>
<path d="M172.94 60.5601C170.848 67.4568 161.609 76.9375 160.002 80.2806C156.396 87.8553 152.225 95.147 147.522 102.094C145.934 104.474 144.218 104.812 143.171 105.667C141.64 106.943 140.855 108.251 138.239 110.279C133.844 113.699 130.143 110.515 132.555 103.938C134.967 97.3599 139.394 88.2174 139.394 88.2174C139.394 88.2174 140.504 83.5919 135.981 79.5852" fill="#F0F5F1"/>
<path d="M172.94 60.5601C170.848 67.4568 161.609 76.9375 160.002 80.2806C156.396 87.8553 152.225 95.147 147.522 102.094C145.934 104.474 144.218 104.812 143.171 105.667C141.64 106.943 140.855 108.251 138.239 110.279C133.844 113.699 130.143 110.515 132.555 103.938C134.967 97.3599 139.394 88.2174 139.394 88.2174C139.394 88.2174 140.504 83.5919 135.981 79.5852" stroke="#263238" stroke-width="0.638" stroke-miterlimit="10" stroke-linecap="round"/>
<path d="M133.524 108.034L134.723 105.533C134.723 105.533 134.896 105.757 137.007 106.624C138.266 107.144 139.635 107.337 140.988 107.186C140.988 107.186 137.945 111.983 135.565 111.684C134.972 111.627 134.415 111.373 133.983 110.963C133.611 110.583 133.367 110.097 133.285 109.572C133.202 109.047 133.286 108.509 133.524 108.034Z" fill="#F0F5F1" stroke="#263238" stroke-width="0.638" stroke-miterlimit="10" stroke-linecap="round"/>
<path d="M151.172 12.085L146.1 45.025C146.1 45.025 152.218 50.4033 160.346 51.8516C168.474 53.2998 183.314 55.4945 183.314 55.4945L196.304 12.0723" fill="#263238"/>
<path d="M151.172 12.085L146.1 45.025C146.1 45.025 152.218 50.4033 160.346 51.8516C168.474 53.2998 183.314 55.4945 183.314 55.4945L196.304 12.0723" stroke="#263238" stroke-width="0.638" stroke-miterlimit="10" stroke-linecap="round"/>
<path d="M180.698 48.1319C180.698 48.6278 180.551 49.1125 180.276 49.5249C180 49.9372 179.609 50.2586 179.15 50.4483C178.692 50.6381 178.188 50.6878 177.702 50.591C177.215 50.4943 176.769 50.2555 176.418 49.9048C176.067 49.5542 175.829 49.1074 175.732 48.621C175.635 48.1346 175.685 47.6305 175.874 47.1723C176.064 46.7142 176.386 46.3226 176.798 46.0471C177.21 45.7716 177.695 45.6245 178.191 45.6245C178.856 45.6245 179.494 45.8887 179.964 46.3589C180.434 46.8291 180.698 47.4669 180.698 48.1319Z" fill="#F0F5F1" stroke="#263238" stroke-width="1.276" stroke-linecap="round" stroke-linejoin="round"/>
<path d="M139.082 99.8992L138.654 99.4653" stroke="#263238" stroke-width="0.638" stroke-miterlimit="10" stroke-linecap="round"/>
<path d="M144.925 102.394C144.925 102.394 143.113 103.376 139.93 100.678" stroke="#263238" stroke-width="0.638" stroke-miterlimit="10" stroke-linecap="round"/>
<path d="M141.064 99.765C141.064 99.765 141.919 99.4651 144.586 101.041" stroke="#263238" stroke-width="0.638" stroke-miterlimit="10" stroke-linecap="round"/>
<path d="M138.992 101.539C140.05 102.528 141.32 103.262 142.705 103.683" stroke="#263238" stroke-width="0.638" stroke-miterlimit="10" stroke-linecap="round"/>
<path d="M140.821 208.909C140.821 208.909 141.402 214.925 142.735 218.721C144.068 222.517 144.145 226.269 140.783 225.624C138.767 225.235 137.446 222.645 137.446 222.645C137.446 222.645 140.043 225.994 138.397 229.401C136.751 232.808 131.123 226.709 131.123 226.709C131.123 226.709 133.407 233.548 131.034 233.618C128.661 233.689 126.357 230.562 124.877 229.446C123.397 228.329 119.556 217.962 117.776 216.648C115.996 215.333 109.533 216.475 107.3 219.442C105.067 222.409 100.538 218.536 106.879 208.896C113.221 199.256 121.407 193.329 127.047 193.865C132.686 194.401 140.821 208.909 140.821 208.909Z" fill="#F0F5F1" stroke="#263238" stroke-width="0.638" stroke-miterlimit="10" stroke-linecap="round"/>
<path d="M134.996 220.335L126.498 206.982C126.498 206.982 122.153 201.935 113.789 205.272" stroke="#263238" stroke-width="0.638" stroke-miterlimit="10" stroke-linecap="round"/>
<path d="M130.237 222.326L120.903 212.494C120.903 212.494 116.379 208.621 109.17 212.022" stroke="#263238" stroke-width="0.638" stroke-miterlimit="10" stroke-linecap="round"/>
<path d="M111.824 219.601L118.485 227.423L99.4275 242.824C99.4275 242.824 89.0153 247.992 85.1491 250.659C81.2828 253.326 60.1714 256.012 60.1714 256.012L56.2285 231.64C56.2285 231.64 68.5674 228.852 70.2007 227.295C71.834 225.739 88.7027 205.878 90.9166 202.911C93.1304 199.944 104.455 197.297 104.455 197.297C104.455 197.297 109.521 195.644 115.18 190.61C120.839 185.577 128.118 187.242 130.862 189.775C133.605 192.308 141.07 199.345 142.544 204.155C144.017 208.966 144.745 214.191 141.108 212.845C135.066 210.605 131.959 197.967 124.648 199.568C121.305 200.302 112.296 207.862 111.109 208.832C111.109 208.832 108.34 215.582 111.824 219.601Z" fill="#F0F5F1" stroke="#263238" stroke-width="0.638" stroke-miterlimit="10" stroke-linecap="round"/>
<path d="M162.469 214.542C162.457 214.377 162.386 214.221 162.269 214.104C162.152 213.987 161.996 213.916 161.831 213.904L159.981 213.834C159.89 213.831 159.8 213.845 159.715 213.877C159.63 213.908 159.552 213.956 159.486 214.018C159.42 214.079 159.366 214.153 159.328 214.236C159.291 214.318 159.269 214.407 159.266 214.497C159.263 214.588 159.277 214.678 159.309 214.763C159.34 214.848 159.388 214.926 159.45 214.992C159.511 215.059 159.586 215.112 159.668 215.15C159.75 215.188 159.839 215.209 159.93 215.212L161.78 215.282C161.958 215.288 162.131 215.225 162.264 215.106C162.397 214.987 162.48 214.822 162.494 214.644C162.49 214.609 162.481 214.575 162.469 214.542Z" fill="#263238" stroke="#263238" stroke-width="0.638" stroke-miterlimit="10" stroke-linecap="round"/>
<path d="M160.337 214.484C160.296 214.109 160.121 213.76 159.845 213.503C159.569 213.245 159.209 213.095 158.831 213.081L153.555 212.175L97.7427 208.583C97.2576 208.564 96.7735 208.641 96.3181 208.809C95.8627 208.977 95.4449 209.234 95.0886 209.563C94.7322 209.893 94.4443 210.29 94.2413 210.731C94.0382 211.172 93.924 211.648 93.9051 212.133C93.8863 212.618 93.9632 213.103 94.1314 213.558C94.2996 214.013 94.5559 214.431 94.8856 214.787C95.2153 215.144 95.6119 215.432 96.0529 215.635C96.4939 215.838 96.9705 215.952 97.4556 215.971L153.81 216.558L158.71 216.226C159.127 216.242 159.533 216.091 159.839 215.808C160.145 215.524 160.327 215.131 160.343 214.714C160.348 214.637 160.345 214.561 160.337 214.484Z" fill="#E0EBE3" stroke="#263238" stroke-width="0.638" stroke-miterlimit="10" stroke-linecap="round"/>
<path d="M97.7431 208.583L113.846 209.623C114.497 210.49 114.854 211.542 114.867 212.626C114.879 213.71 114.546 214.77 113.916 215.652C113.782 215.821 113.64 215.983 113.489 216.137L97.4751 215.971C96.99 215.952 96.5134 215.838 96.0724 215.635C95.6315 215.432 95.2348 215.144 94.9051 214.787C94.5754 214.431 94.3191 214.013 94.1509 213.558C93.9827 213.103 93.9058 212.618 93.9247 212.133C93.9435 211.648 94.0577 211.172 94.2608 210.731C94.4638 210.29 94.7518 209.893 95.1081 209.563C95.4645 209.234 95.8823 208.977 96.3377 208.809C96.7931 208.641 97.2771 208.564 97.7622 208.583H97.7431Z" fill="#263238" stroke="#263238" stroke-width="0.638" stroke-miterlimit="10" stroke-linecap="round"/>
<path d="M85.1484 250.659C91.9878 248.375 105.309 239.347 108.876 238.314C112.442 237.28 121.17 235.634 126.976 231.64C132.782 227.646 137.139 224.278 140.495 219.825C143.851 215.371 140.61 211.728 134.064 214.236C127.518 216.743 118.427 221.33 118.427 221.33C118.427 221.33 113.82 222.504 109.743 218.038" fill="#F0F5F1"/>
<path d="M85.1484 250.659C91.9878 248.375 105.309 239.347 108.876 238.314C112.442 237.28 121.17 235.634 126.976 231.64C132.782 227.646 137.139 224.278 140.495 219.825C143.851 215.371 140.61 211.728 134.064 214.236C127.518 216.743 118.427 221.33 118.427 221.33C118.427 221.33 113.82 222.504 109.743 218.038" stroke="#263238" stroke-width="0.638" stroke-miterlimit="10" stroke-linecap="round"/>
<path d="M138.18 215.18L135.691 216.411C135.691 216.411 135.921 216.584 136.821 218.676C137.366 219.928 137.586 221.298 137.459 222.657C137.459 222.657 142.212 219.544 141.874 217.164C141.808 216.571 141.548 216.017 141.134 215.588C140.746 215.219 140.253 214.981 139.722 214.908C139.192 214.835 138.653 214.93 138.18 215.18Z" fill="#F0F5F1" stroke="#263238" stroke-width="0.638" stroke-miterlimit="10" stroke-linecap="round"/>
<path d="M68.8791 226.39C68.8791 226.39 74.9784 234.639 75.9801 241.785C76.6052 246.568 76.9333 251.386 76.9626 256.21L58.3394 260.676C58.3394 260.676 57.4972 249.09 55.8384 242.812C54.6704 238.588 53.221 234.446 51.5 230.415L68.8791 226.39Z" fill="#F0F5F1" stroke="#263238" stroke-width="0.638" stroke-miterlimit="10" stroke-linecap="round"/>
<path d="M69.7285 240.783C68.0697 232.693 62.551 226.702 62.551 226.702L18.4844 233.72V283.484L70.6217 261.977C70.6217 261.977 71.381 248.873 69.7285 240.783Z" fill="#263238" stroke="#263238" stroke-width="0.638" stroke-miterlimit="10" stroke-linecap="round"/>
<path d="M57.9198 262.392C57.9274 262.781 57.8184 263.164 57.6068 263.491C57.3952 263.818 57.0907 264.074 56.7325 264.226C56.3742 264.379 55.9786 264.421 55.5963 264.346C55.2141 264.272 54.8628 264.086 54.5874 263.81C54.3121 263.535 54.1254 263.184 54.0513 262.801C53.9772 262.419 54.0191 262.023 54.1716 261.665C54.3241 261.307 54.5802 261.003 54.907 260.791C55.2339 260.579 55.6165 260.47 56.0058 260.478C56.5104 260.488 56.9915 260.693 57.3484 261.049C57.7052 261.406 57.91 261.887 57.9198 262.392Z" fill="#F0F5F1"/>
<path d="M63.3928 260.069C63.3916 260.455 63.276 260.832 63.0607 261.152C62.8454 261.473 62.5401 261.722 62.1832 261.869C61.8264 262.015 61.4341 262.053 61.0558 261.977C60.6775 261.901 60.3302 261.715 60.0578 261.441C59.7854 261.168 59.6001 260.82 59.5253 260.442C59.4505 260.063 59.4895 259.671 59.6375 259.315C59.7854 258.958 60.0357 258.654 60.3566 258.439C60.6775 258.225 61.0547 258.111 61.4405 258.111C61.6975 258.111 61.9519 258.162 62.1891 258.26C62.4264 258.359 62.6419 258.503 62.8233 258.685C63.0046 258.867 63.1483 259.083 63.2461 259.32C63.3438 259.558 63.3937 259.813 63.3928 260.069Z" fill="#F0F5F1"/>
<path d="M125.803 222.766L125.369 222.345" stroke="#263238" stroke-width="0.638" stroke-miterlimit="10" stroke-linecap="round"/>
<path d="M128.387 228.578C128.387 228.578 129.344 226.747 126.594 223.602" stroke="#263238" stroke-width="0.638" stroke-miterlimit="10" stroke-linecap="round"/>
<path d="M125.707 224.75C125.707 224.75 125.413 225.611 127.015 228.253" stroke="#263238" stroke-width="0.638" stroke-miterlimit="10" stroke-linecap="round"/>
<path d="M127.461 222.651C128.469 223.694 129.222 224.956 129.662 226.339" stroke="#263238" stroke-width="0.638" stroke-miterlimit="10" stroke-linecap="round"/>
</svg>
