<svg width="81" height="113" viewBox="0 0 81 113" fill="none" xmlns="http://www.w3.org/2000/svg">
<path d="M6.25195 1.29907L12.5363 71.8509L40.7351 79.7134L69.0126 71.8222L75.302 1.29907H6.25195ZM62.2463 17.4628L60.1545 40.9659L60.1607 41.0928L60.152 41.3847V41.3822L58.6657 57.8159L58.502 59.2759L40.777 64.1784L40.7632 64.1909L23.0688 59.2609L21.8707 45.6741H30.5476L31.1632 52.5828L40.7795 55.1891L40.777 55.1941V55.1928L50.4288 52.5497L51.4488 41.2991H31.272L31.0988 39.3972L30.7045 34.9416L30.4976 32.5491H52.2157L53.0057 23.7991H19.927L19.7538 21.8984L19.3601 17.4416L19.1526 15.0491H62.4532L62.2463 17.4628Z" fill="#545454"/>
</svg>
