<svg width="81" height="113" viewBox="0 0 81 113" fill="none" xmlns="http://www.w3.org/2000/svg">
<g clip-path="url(#clip0_107_2356)">
<path d="M28.7715 81.2991C36.209 81.2991 42.209 75.2991 42.209 67.8616V54.4241H28.7715C21.334 54.4241 15.334 60.4241 15.334 67.8616C15.334 75.2991 21.334 81.2991 28.7715 81.2991Z" fill="#545454"/>
<path d="M15.334 40.9866C15.334 33.5491 21.334 27.5491 28.7715 27.5491H42.209V54.4241H28.7715C21.334 54.4241 15.334 48.4241 15.334 40.9866Z" fill="#545454"/>
<path d="M15.334 14.1116C15.334 6.67407 21.334 0.674072 28.7715 0.674072H42.209V27.5491H28.7715C21.334 27.5491 15.334 21.5491 15.334 14.1116Z" fill="#545454"/>
<path d="M42.209 0.674072H55.6465C63.084 0.674072 69.084 6.67407 69.084 14.1116C69.084 21.5491 63.084 27.5491 55.6465 27.5491H42.209V0.674072Z" fill="#545454"/>
<path d="M69.084 40.9866C69.084 48.4241 63.084 54.4241 55.6465 54.4241C48.209 54.4241 42.209 48.4241 42.209 40.9866C42.209 33.5491 48.209 27.5491 55.6465 27.5491C63.084 27.5491 69.084 33.5491 69.084 40.9866Z" fill="#545454"/>
</g>
<defs>
<clipPath id="clip0_107_2356">
<rect width="80" height="80" fill="white" transform="translate(0.333984 0.674072)"/>
</clipPath>
</defs>
</svg>
