<svg width="264" height="49" viewBox="0 0 264 49" fill="none" xmlns="http://www.w3.org/2000/svg">
<rect y="0.173828" width="48" height="48" rx="24" fill="#393E46"/>
<path d="M30 14.1738H27C25.6739 14.1738 24.4021 14.7006 23.4645 15.6383C22.5268 16.576 22 17.8477 22 19.1738V22.1738H19V26.1738H22V34.1738H26V26.1738H29L30 22.1738H26V19.1738C26 18.9086 26.1054 18.6543 26.2929 18.4667C26.4804 18.2792 26.7348 18.1738 27 18.1738H30V14.1738Z" stroke="#EEEEEE" stroke-opacity="0.75" stroke-width="2" stroke-linecap="round" stroke-linejoin="round"/>
<g clip-path="url(#clip0_107_2924)">
<rect x="72" y="0.173828" width="48" height="48" rx="24" fill="#393E46"/>
<rect x="72" y="0.173828" width="48" height="48" rx="24" fill="#393E46"/>
<rect x="72" y="0.173828" width="48" height="48" rx="24" fill="#393E46"/>
<path d="M101 14.1738H91C88.2386 14.1738 86 16.4124 86 19.1738V29.1738C86 31.9353 88.2386 34.1738 91 34.1738H101C103.761 34.1738 106 31.9353 106 29.1738V19.1738C106 16.4124 103.761 14.1738 101 14.1738Z" stroke="#EEEEEE" stroke-opacity="0.75" stroke-width="2" stroke-linecap="round" stroke-linejoin="round"/>
<path d="M99.9997 23.5436C100.123 24.3759 99.981 25.2259 99.5935 25.9727C99.206 26.7195 98.5929 27.3251 97.8413 27.7033C97.0898 28.0816 96.2382 28.2132 95.4075 28.0796C94.5768 27.9459 93.8095 27.5537 93.2145 26.9588C92.6196 26.3639 92.2274 25.5965 92.0938 24.7659C91.9601 23.9352 92.0918 23.0835 92.47 22.332C92.8483 21.5805 93.4539 20.9674 94.2007 20.5799C94.9475 20.1924 95.7975 20.0502 96.6297 20.1736C97.4786 20.2995 98.2646 20.6951 98.8714 21.3019C99.4782 21.9088 99.8738 22.6947 99.9997 23.5436Z" stroke="#EEEEEE" stroke-opacity="0.75" stroke-width="2" stroke-linecap="round" stroke-linejoin="round"/>
<path d="M101.5 18.6738H101.51" stroke="#EEEEEE" stroke-opacity="0.75" stroke-width="2" stroke-linecap="round" stroke-linejoin="round"/>
</g>
<g clip-path="url(#clip1_107_2924)">
<rect x="144" y="0.173828" width="48" height="48" rx="24" fill="#393E46"/>
<rect x="144" y="0.173828" width="48" height="48" rx="24" fill="#393E46"/>
<rect x="144" y="0.173828" width="48" height="48" rx="24" fill="#393E46"/>
<path d="M179 15.1736C178.042 15.8491 176.982 16.3657 175.86 16.7036C175.258 16.0111 174.457 15.5203 173.567 15.2976C172.677 15.0748 171.739 15.1308 170.882 15.4581C170.025 15.7853 169.288 16.368 168.773 17.1273C168.258 17.8867 167.988 18.786 168 19.7036V20.7036C166.243 20.7492 164.501 20.3594 162.931 19.5691C161.361 18.7787 160.01 17.6123 159 16.1736C159 16.1736 155 25.1736 164 29.1736C161.941 30.5716 159.487 31.2726 157 31.1736C166 36.1736 177 31.1736 177 19.6736C176.999 19.3951 176.972 19.1172 176.92 18.8436C177.941 17.8371 178.661 16.5663 179 15.1736V15.1736Z" stroke="#EEEEEE" stroke-opacity="0.75" stroke-width="2" stroke-linecap="round" stroke-linejoin="round"/>
</g>
<rect x="216" y="0.173828" width="48" height="48" rx="24" fill="#393E46"/>
<g clip-path="url(#clip2_107_2924)">
<path d="M250.541 18.5938C250.422 18.1192 250.18 17.6844 249.839 17.3332C249.499 16.9821 249.071 16.727 248.601 16.5938C246.881 16.1738 240.001 16.1738 240.001 16.1738C240.001 16.1738 233.121 16.1738 231.401 16.6338C230.93 16.767 230.503 17.0221 230.162 17.3732C229.821 17.7244 229.579 18.1592 229.461 18.6338C229.146 20.3794 228.992 22.1501 229.001 23.9238C228.989 25.7109 229.143 27.4951 229.461 29.2538C229.592 29.7137 229.839 30.132 230.179 30.4683C230.519 30.8046 230.939 31.0476 231.401 31.1738C233.121 31.6338 240.001 31.6338 240.001 31.6338C240.001 31.6338 246.881 31.6338 248.601 31.1738C249.071 31.0406 249.499 30.7856 249.839 30.4344C250.18 30.0833 250.422 29.6484 250.541 29.1738C250.853 27.4414 251.007 25.6842 251.001 23.9238C251.012 22.1368 250.858 20.3525 250.541 18.5938V18.5938Z" stroke="#EEEEEE" stroke-opacity="0.75" stroke-width="2" stroke-linecap="round" stroke-linejoin="round"/>
<path d="M237.75 27.1938L243.5 23.9238L237.75 20.6538V27.1938Z" stroke="#EEEEEE" stroke-opacity="0.75" stroke-width="2" stroke-linecap="round" stroke-linejoin="round"/>
</g>
<defs>
<clipPath id="clip0_107_2924">
<rect x="72" y="0.173828" width="48" height="48" rx="24" fill="white"/>
</clipPath>
<clipPath id="clip1_107_2924">
<rect x="144" y="0.173828" width="48" height="48" rx="24" fill="white"/>
</clipPath>
<clipPath id="clip2_107_2924">
<rect width="24" height="24" fill="white" transform="translate(228 12.1738)"/>
</clipPath>
</defs>
</svg>
