<svg width="690" height="48" viewBox="0 0 690 48" fill="none" xmlns="http://www.w3.org/2000/svg">
<path d="M13 19.1738L22 12.1738L31 19.1738V30.1738C31 30.7043 30.7893 31.213 30.4142 31.588C30.0391 31.9631 29.5304 32.1738 29 32.1738H15C14.4696 32.1738 13.9609 31.9631 13.5858 31.588C13.2107 31.213 13 30.7043 13 30.1738V19.1738Z" stroke="#0A0F0B" stroke-width="2" stroke-linecap="round" stroke-linejoin="round"/>
<path d="M19 32.1738V22.1738H25V32.1738" stroke="#0A0F0B" stroke-width="2" stroke-linecap="round" stroke-linejoin="round"/>
<path d="M47.024 17.6278V30.1738H45.386V17.6278H47.024ZM54.6217 20.1298C55.8217 20.1298 56.7937 20.4958 57.5377 21.2278C58.2817 21.9478 58.6537 22.9918 58.6537 24.3598V30.1738H57.0337V24.5938C57.0337 23.6098 56.7877 22.8598 56.2957 22.3438C55.8037 21.8158 55.1317 21.5518 54.2797 21.5518C53.4157 21.5518 52.7257 21.8218 52.2097 22.3618C51.7057 22.9018 51.4537 23.6878 51.4537 24.7198V30.1738H49.8157V20.3098H51.4537V21.7138C51.7777 21.2098 52.2157 20.8198 52.7677 20.5438C53.3317 20.2678 53.9497 20.1298 54.6217 20.1298ZM62.1754 18.7078C61.8634 18.7078 61.5994 18.5998 61.3834 18.3838C61.1674 18.1678 61.0594 17.9038 61.0594 17.5918C61.0594 17.2798 61.1674 17.0158 61.3834 16.7998C61.5994 16.5838 61.8634 16.4758 62.1754 16.4758C62.4754 16.4758 62.7274 16.5838 62.9314 16.7998C63.1474 17.0158 63.2554 17.2798 63.2554 17.5918C63.2554 17.9038 63.1474 18.1678 62.9314 18.3838C62.7274 18.5998 62.4754 18.7078 62.1754 18.7078ZM62.9674 20.3098V30.1738H61.3294V20.3098H62.9674ZM65.147 25.2238C65.147 24.2038 65.351 23.3158 65.759 22.5598C66.167 21.7918 66.731 21.1978 67.451 20.7778C68.183 20.3578 69.017 20.1478 69.953 20.1478C71.165 20.1478 72.161 20.4418 72.941 21.0298C73.733 21.6178 74.255 22.4338 74.507 23.4778H72.743C72.575 22.8778 72.245 22.4038 71.753 22.0558C71.273 21.7078 70.673 21.5338 69.953 21.5338C69.017 21.5338 68.261 21.8578 67.685 22.5058C67.109 23.1418 66.821 24.0478 66.821 25.2238C66.821 26.4118 67.109 27.3298 67.685 27.9778C68.261 28.6258 69.017 28.9498 69.953 28.9498C70.673 28.9498 71.273 28.7818 71.753 28.4458C72.233 28.1098 72.563 27.6298 72.743 27.0058H74.507C74.243 28.0138 73.715 28.8238 72.923 29.4358C72.131 30.0358 71.141 30.3358 69.953 30.3358C69.017 30.3358 68.183 30.1258 67.451 29.7058C66.731 29.2858 66.167 28.6918 65.759 27.9238C65.351 27.1558 65.147 26.2558 65.147 25.2238ZM77.5386 18.7078C77.2266 18.7078 76.9626 18.5998 76.7466 18.3838C76.5306 18.1678 76.4226 17.9038 76.4226 17.5918C76.4226 17.2798 76.5306 17.0158 76.7466 16.7998C76.9626 16.5838 77.2266 16.4758 77.5386 16.4758C77.8386 16.4758 78.0906 16.5838 78.2946 16.7998C78.5106 17.0158 78.6186 17.2798 78.6186 17.5918C78.6186 17.9038 78.5106 18.1678 78.2946 18.3838C78.0906 18.5998 77.8386 18.7078 77.5386 18.7078ZM78.3306 20.3098V30.1738H76.6926V20.3098H78.3306ZM85.4243 30.3358C84.5003 30.3358 83.6603 30.1258 82.9043 29.7058C82.1603 29.2858 81.5723 28.6918 81.1403 27.9238C80.7203 27.1438 80.5103 26.2438 80.5103 25.2238C80.5103 24.2158 80.7263 23.3278 81.1583 22.5598C81.6023 21.7798 82.2023 21.1858 82.9583 20.7778C83.7143 20.3578 84.5603 20.1478 85.4963 20.1478C86.4323 20.1478 87.2783 20.3578 88.0343 20.7778C88.7903 21.1858 89.3843 21.7738 89.8163 22.5418C90.2603 23.3098 90.4823 24.2038 90.4823 25.2238C90.4823 26.2438 90.2543 27.1438 89.7983 27.9238C89.3543 28.6918 88.7483 29.2858 87.9803 29.7058C87.2123 30.1258 86.3603 30.3358 85.4243 30.3358ZM85.4243 28.8958C86.0123 28.8958 86.5643 28.7578 87.0803 28.4818C87.5963 28.2058 88.0103 27.7918 88.3223 27.2398C88.6463 26.6878 88.8083 26.0158 88.8083 25.2238C88.8083 24.4318 88.6523 23.7598 88.3403 23.2078C88.0283 22.6558 87.6203 22.2478 87.1163 21.9838C86.6123 21.7078 86.0663 21.5698 85.4783 21.5698C84.8783 21.5698 84.3263 21.7078 83.8223 21.9838C83.3303 22.2478 82.9343 22.6558 82.6343 23.2078C82.3343 23.7598 82.1843 24.4318 82.1843 25.2238C82.1843 26.0278 82.3283 26.7058 82.6163 27.2578C82.9163 27.8098 83.3123 28.2238 83.8043 28.4998C84.2963 28.7638 84.8363 28.8958 85.4243 28.8958Z" fill="#0A0F0B"/>
<path d="M180 31.1738V29.1738C180 28.113 179.579 27.0955 178.828 26.3454C178.078 25.5953 177.061 25.1738 176 25.1738H168C166.939 25.1738 165.922 25.5953 165.172 26.3454C164.421 27.0955 164 28.113 164 29.1738V31.1738" stroke="#0A0F0B" stroke-width="2" stroke-linecap="round" stroke-linejoin="round"/>
<path d="M172 21.1738C174.209 21.1738 176 19.383 176 17.1738C176 14.9647 174.209 13.1738 172 13.1738C169.791 13.1738 168 14.9647 168 17.1738C168 19.383 169.791 21.1738 172 21.1738Z" stroke="#0A0F0B" stroke-width="2" stroke-linecap="round" stroke-linejoin="round"/>
<path d="M199.364 30.2998C198.536 30.2998 197.792 30.1558 197.132 29.8678C196.484 29.5678 195.974 29.1598 195.602 28.6438C195.23 28.1158 195.038 27.5098 195.026 26.8258H196.772C196.832 27.4138 197.072 27.9118 197.492 28.3198C197.924 28.7158 198.548 28.9138 199.364 28.9138C200.144 28.9138 200.756 28.7218 201.2 28.3378C201.656 27.9418 201.884 27.4378 201.884 26.8258C201.884 26.3458 201.752 25.9558 201.488 25.6558C201.224 25.3558 200.894 25.1278 200.498 24.9718C200.102 24.8158 199.568 24.6478 198.896 24.4678C198.068 24.2518 197.402 24.0358 196.898 23.8198C196.406 23.6038 195.98 23.2678 195.62 22.8118C195.272 22.3438 195.098 21.7198 195.098 20.9398C195.098 20.2558 195.272 19.6498 195.62 19.1218C195.968 18.5938 196.454 18.1858 197.078 17.8978C197.714 17.6098 198.44 17.4658 199.256 17.4658C200.432 17.4658 201.392 17.7598 202.136 18.3478C202.892 18.9358 203.318 19.7158 203.414 20.6878H201.614C201.554 20.2078 201.302 19.7878 200.858 19.4278C200.414 19.0558 199.826 18.8698 199.094 18.8698C198.41 18.8698 197.852 19.0498 197.42 19.4098C196.988 19.7578 196.772 20.2498 196.772 20.8858C196.772 21.3418 196.898 21.7138 197.15 22.0018C197.414 22.2898 197.732 22.5118 198.104 22.6678C198.488 22.8118 199.022 22.9798 199.706 23.1718C200.534 23.3998 201.2 23.6278 201.704 23.8558C202.208 24.0718 202.64 24.4138 203 24.8818C203.36 25.3378 203.54 25.9618 203.54 26.7538C203.54 27.3658 203.378 27.9418 203.054 28.4818C202.73 29.0218 202.25 29.4598 201.614 29.7958C200.978 30.1318 200.228 30.2998 199.364 30.2998ZM210.252 30.3358C209.328 30.3358 208.488 30.1258 207.732 29.7058C206.988 29.2858 206.4 28.6918 205.968 27.9238C205.548 27.1438 205.338 26.2438 205.338 25.2238C205.338 24.2158 205.554 23.3278 205.986 22.5598C206.43 21.7798 207.03 21.1858 207.786 20.7778C208.542 20.3578 209.388 20.1478 210.324 20.1478C211.26 20.1478 212.106 20.3578 212.862 20.7778C213.618 21.1858 214.212 21.7738 214.644 22.5418C215.088 23.3098 215.31 24.2038 215.31 25.2238C215.31 26.2438 215.082 27.1438 214.626 27.9238C214.182 28.6918 213.576 29.2858 212.808 29.7058C212.04 30.1258 211.188 30.3358 210.252 30.3358ZM210.252 28.8958C210.84 28.8958 211.392 28.7578 211.908 28.4818C212.424 28.2058 212.838 27.7918 213.15 27.2398C213.474 26.6878 213.636 26.0158 213.636 25.2238C213.636 24.4318 213.48 23.7598 213.168 23.2078C212.856 22.6558 212.448 22.2478 211.944 21.9838C211.44 21.7078 210.894 21.5698 210.306 21.5698C209.706 21.5698 209.154 21.7078 208.65 21.9838C208.158 22.2478 207.762 22.6558 207.462 23.2078C207.162 23.7598 207.012 24.4318 207.012 25.2238C207.012 26.0278 207.156 26.7058 207.444 27.2578C207.744 27.8098 208.14 28.2238 208.632 28.4998C209.124 28.7638 209.664 28.8958 210.252 28.8958ZM219.102 16.8538V30.1738H217.464V16.8538H219.102ZM222.74 18.7078C222.428 18.7078 222.164 18.5998 221.948 18.3838C221.732 18.1678 221.624 17.9038 221.624 17.5918C221.624 17.2798 221.732 17.0158 221.948 16.7998C222.164 16.5838 222.428 16.4758 222.74 16.4758C223.04 16.4758 223.292 16.5838 223.496 16.7998C223.712 17.0158 223.82 17.2798 223.82 17.5918C223.82 17.9038 223.712 18.1678 223.496 18.3838C223.292 18.5998 223.04 18.7078 222.74 18.7078ZM223.532 20.3098V30.1738H221.894V20.3098H223.532ZM225.712 25.2238C225.712 24.2038 225.916 23.3158 226.324 22.5598C226.732 21.7918 227.296 21.1978 228.016 20.7778C228.748 20.3578 229.582 20.1478 230.518 20.1478C231.73 20.1478 232.726 20.4418 233.506 21.0298C234.298 21.6178 234.82 22.4338 235.072 23.4778H233.308C233.14 22.8778 232.81 22.4038 232.318 22.0558C231.838 21.7078 231.238 21.5338 230.518 21.5338C229.582 21.5338 228.826 21.8578 228.25 22.5058C227.674 23.1418 227.386 24.0478 227.386 25.2238C227.386 26.4118 227.674 27.3298 228.25 27.9778C228.826 28.6258 229.582 28.9498 230.518 28.9498C231.238 28.9498 231.838 28.7818 232.318 28.4458C232.798 28.1098 233.128 27.6298 233.308 27.0058H235.072C234.808 28.0138 234.28 28.8238 233.488 29.4358C232.696 30.0358 231.706 30.3358 230.518 30.3358C229.582 30.3358 228.748 30.1258 228.016 29.7058C227.296 29.2858 226.732 28.6918 226.324 27.9238C225.916 27.1558 225.712 26.2558 225.712 25.2238ZM238.103 18.7078C237.791 18.7078 237.527 18.5998 237.311 18.3838C237.095 18.1678 236.987 17.9038 236.987 17.5918C236.987 17.2798 237.095 17.0158 237.311 16.7998C237.527 16.5838 237.791 16.4758 238.103 16.4758C238.403 16.4758 238.655 16.5838 238.859 16.7998C239.075 17.0158 239.183 17.2798 239.183 17.5918C239.183 17.9038 239.075 18.1678 238.859 18.3838C238.655 18.5998 238.403 18.7078 238.103 18.7078ZM238.895 20.3098V30.1738H237.257V20.3098H238.895ZM243.685 21.6598V27.4738C243.685 27.9538 243.787 28.2958 243.991 28.4998C244.195 28.6918 244.549 28.7878 245.053 28.7878H246.259V30.1738H244.783C243.871 30.1738 243.187 29.9638 242.731 29.5438C242.275 29.1238 242.047 28.4338 242.047 27.4738V21.6598H240.769V20.3098H242.047V17.8258H243.685V20.3098H246.259V21.6598H243.685ZM247.631 25.2058C247.631 24.1978 247.835 23.3158 248.243 22.5598C248.651 21.7918 249.209 21.1978 249.917 20.7778C250.637 20.3578 251.435 20.1478 252.311 20.1478C253.175 20.1478 253.925 20.3338 254.561 20.7058C255.197 21.0778 255.671 21.5458 255.983 22.1098V20.3098H257.639V30.1738H255.983V28.3378C255.659 28.9138 255.173 29.3938 254.525 29.7778C253.889 30.1498 253.145 30.3358 252.293 30.3358C251.417 30.3358 250.625 30.1198 249.917 29.6878C249.209 29.2558 248.651 28.6498 248.243 27.8698C247.835 27.0898 247.631 26.2018 247.631 25.2058ZM255.983 25.2238C255.983 24.4798 255.833 23.8318 255.533 23.2798C255.233 22.7278 254.825 22.3078 254.309 22.0198C253.805 21.7198 253.247 21.5698 252.635 21.5698C252.023 21.5698 251.465 21.7138 250.961 22.0018C250.457 22.2898 250.055 22.7098 249.755 23.2618C249.455 23.8138 249.305 24.4618 249.305 25.2058C249.305 25.9618 249.455 26.6218 249.755 27.1858C250.055 27.7378 250.457 28.1638 250.961 28.4638C251.465 28.7518 252.023 28.8958 252.635 28.8958C253.247 28.8958 253.805 28.7518 254.309 28.4638C254.825 28.1638 255.233 27.7378 255.533 27.1858C255.833 26.6218 255.983 25.9678 255.983 25.2238ZM262.045 21.9118C262.333 21.3478 262.741 20.9098 263.269 20.5978C263.809 20.2858 264.463 20.1298 265.231 20.1298V21.8218H264.799C262.963 21.8218 262.045 22.8178 262.045 24.8098V30.1738H260.407V20.3098H262.045V21.9118ZM271.309 25.2238C271.309 24.2038 271.513 23.3158 271.921 22.5598C272.329 21.7918 272.893 21.1978 273.613 20.7778C274.345 20.3578 275.179 20.1478 276.115 20.1478C277.327 20.1478 278.323 20.4418 279.103 21.0298C279.895 21.6178 280.417 22.4338 280.669 23.4778H278.905C278.737 22.8778 278.407 22.4038 277.915 22.0558C277.435 21.7078 276.835 21.5338 276.115 21.5338C275.179 21.5338 274.423 21.8578 273.847 22.5058C273.271 23.1418 272.983 24.0478 272.983 25.2238C272.983 26.4118 273.271 27.3298 273.847 27.9778C274.423 28.6258 275.179 28.9498 276.115 28.9498C276.835 28.9498 277.435 28.7818 277.915 28.4458C278.395 28.1098 278.725 27.6298 278.905 27.0058H280.669C280.405 28.0138 279.877 28.8238 279.085 29.4358C278.293 30.0358 277.303 30.3358 276.115 30.3358C275.179 30.3358 274.345 30.1258 273.613 29.7058C272.893 29.2858 272.329 28.6918 271.921 27.9238C271.513 27.1558 271.309 26.2558 271.309 25.2238ZM284.493 16.8538V30.1738H282.855V16.8538H284.493ZM286.672 25.2058C286.672 24.1978 286.876 23.3158 287.284 22.5598C287.692 21.7918 288.25 21.1978 288.958 20.7778C289.678 20.3578 290.476 20.1478 291.352 20.1478C292.216 20.1478 292.966 20.3338 293.602 20.7058C294.238 21.0778 294.712 21.5458 295.024 22.1098V20.3098H296.68V30.1738H295.024V28.3378C294.7 28.9138 294.214 29.3938 293.566 29.7778C292.93 30.1498 292.186 30.3358 291.334 30.3358C290.458 30.3358 289.666 30.1198 288.958 29.6878C288.25 29.2558 287.692 28.6498 287.284 27.8698C286.876 27.0898 286.672 26.2018 286.672 25.2058ZM295.024 25.2238C295.024 24.4798 294.874 23.8318 294.574 23.2798C294.274 22.7278 293.866 22.3078 293.35 22.0198C292.846 21.7198 292.288 21.5698 291.676 21.5698C291.064 21.5698 290.506 21.7138 290.002 22.0018C289.498 22.2898 289.096 22.7098 288.796 23.2618C288.496 23.8138 288.346 24.4618 288.346 25.2058C288.346 25.9618 288.496 26.6218 288.796 27.1858C289.096 27.7378 289.498 28.1638 290.002 28.4638C290.506 28.7518 291.064 28.8958 291.676 28.8958C292.288 28.8958 292.846 28.7518 293.35 28.4638C293.866 28.1638 294.274 27.7378 294.574 27.1858C294.874 26.6218 295.024 25.9678 295.024 25.2238ZM302.941 30.3358C302.185 30.3358 301.507 30.2098 300.907 29.9578C300.307 29.6938 299.833 29.3338 299.485 28.8778C299.137 28.4098 298.945 27.8758 298.909 27.2758H300.601C300.649 27.7678 300.877 28.1698 301.285 28.4818C301.705 28.7938 302.251 28.9498 302.923 28.9498C303.547 28.9498 304.039 28.8118 304.399 28.5358C304.759 28.2598 304.939 27.9118 304.939 27.4918C304.939 27.0598 304.747 26.7418 304.363 26.5378C303.979 26.3218 303.385 26.1118 302.581 25.9078C301.849 25.7158 301.249 25.5238 300.781 25.3318C300.325 25.1278 299.929 24.8338 299.593 24.4498C299.269 24.0538 299.107 23.5378 299.107 22.9018C299.107 22.3978 299.257 21.9358 299.557 21.5158C299.857 21.0958 300.283 20.7658 300.835 20.5258C301.387 20.2738 302.017 20.1478 302.725 20.1478C303.817 20.1478 304.699 20.4238 305.371 20.9758C306.043 21.5278 306.403 22.2838 306.451 23.2438H304.813C304.777 22.7278 304.567 22.3138 304.183 22.0018C303.811 21.6898 303.307 21.5338 302.671 21.5338C302.083 21.5338 301.615 21.6598 301.267 21.9118C300.919 22.1638 300.745 22.4938 300.745 22.9018C300.745 23.2258 300.847 23.4958 301.051 23.7118C301.267 23.9158 301.531 24.0838 301.843 24.2158C302.167 24.3358 302.611 24.4738 303.175 24.6298C303.883 24.8218 304.459 25.0138 304.903 25.2058C305.347 25.3858 305.725 25.6618 306.037 26.0338C306.361 26.4058 306.529 26.8918 306.541 27.4918C306.541 28.0318 306.391 28.5178 306.091 28.9498C305.791 29.3818 305.365 29.7238 304.813 29.9758C304.273 30.2158 303.649 30.3358 302.941 30.3358ZM317.853 24.8638C317.853 25.1758 317.835 25.5058 317.799 25.8538H309.915C309.975 26.8258 310.305 27.5878 310.905 28.1398C311.517 28.6798 312.255 28.9498 313.119 28.9498C313.827 28.9498 314.415 28.7878 314.883 28.4638C315.363 28.1278 315.699 27.6838 315.891 27.1318H317.655C317.391 28.0798 316.863 28.8538 316.071 29.4538C315.279 30.0418 314.295 30.3358 313.119 30.3358C312.183 30.3358 311.343 30.1258 310.599 29.7058C309.867 29.2858 309.291 28.6918 308.871 27.9238C308.451 27.1438 308.241 26.2438 308.241 25.2238C308.241 24.2038 308.445 23.3098 308.853 22.5418C309.261 21.7738 309.831 21.1858 310.563 20.7778C311.307 20.3578 312.159 20.1478 313.119 20.1478C314.055 20.1478 314.883 20.3518 315.603 20.7598C316.323 21.1678 316.875 21.7318 317.259 22.4518C317.655 23.1598 317.853 23.9638 317.853 24.8638ZM316.161 24.5218C316.161 23.8978 316.023 23.3638 315.747 22.9198C315.471 22.4638 315.093 22.1218 314.613 21.8938C314.145 21.6538 313.623 21.5338 313.047 21.5338C312.219 21.5338 311.511 21.7978 310.923 22.3258C310.347 22.8538 310.017 23.5858 309.933 24.5218H316.161ZM326.452 22.1278C326.776 21.5638 327.256 21.0958 327.892 20.7238C328.54 20.3398 329.29 20.1478 330.142 20.1478C331.018 20.1478 331.81 20.3578 332.518 20.7778C333.238 21.1978 333.802 21.7918 334.21 22.5598C334.618 23.3158 334.822 24.1978 334.822 25.2058C334.822 26.2018 334.618 27.0898 334.21 27.8698C333.802 28.6498 333.238 29.2558 332.518 29.6878C331.81 30.1198 331.018 30.3358 330.142 30.3358C329.302 30.3358 328.558 30.1498 327.91 29.7778C327.274 29.3938 326.788 28.9198 326.452 28.3558V34.8538H324.814V20.3098H326.452V22.1278ZM333.148 25.2058C333.148 24.4618 332.998 23.8138 332.698 23.2618C332.398 22.7098 331.99 22.2898 331.474 22.0018C330.97 21.7138 330.412 21.5698 329.8 21.5698C329.2 21.5698 328.642 21.7198 328.126 22.0198C327.622 22.3078 327.214 22.7338 326.902 23.2978C326.602 23.8498 326.452 24.4918 326.452 25.2238C326.452 25.9678 326.602 26.6218 326.902 27.1858C327.214 27.7378 327.622 28.1638 328.126 28.4638C328.642 28.7518 329.2 28.8958 329.8 28.8958C330.412 28.8958 330.97 28.7518 331.474 28.4638C331.99 28.1638 332.398 27.7378 332.698 27.1858C332.998 26.6218 333.148 25.9618 333.148 25.2058ZM345.978 24.8638C345.978 25.1758 345.96 25.5058 345.924 25.8538H338.04C338.1 26.8258 338.43 27.5878 339.03 28.1398C339.642 28.6798 340.38 28.9498 341.244 28.9498C341.952 28.9498 342.54 28.7878 343.008 28.4638C343.488 28.1278 343.824 27.6838 344.016 27.1318H345.78C345.516 28.0798 344.988 28.8538 344.196 29.4538C343.404 30.0418 342.42 30.3358 341.244 30.3358C340.308 30.3358 339.468 30.1258 338.724 29.7058C337.992 29.2858 337.416 28.6918 336.996 27.9238C336.576 27.1438 336.366 26.2438 336.366 25.2238C336.366 24.2038 336.57 23.3098 336.978 22.5418C337.386 21.7738 337.956 21.1858 338.688 20.7778C339.432 20.3578 340.284 20.1478 341.244 20.1478C342.18 20.1478 343.008 20.3518 343.728 20.7598C344.448 21.1678 345 21.7318 345.384 22.4518C345.78 23.1598 345.978 23.9638 345.978 24.8638ZM344.286 24.5218C344.286 23.8978 344.148 23.3638 343.872 22.9198C343.596 22.4638 343.218 22.1218 342.738 21.8938C342.27 21.6538 341.748 21.5338 341.172 21.5338C340.344 21.5338 339.636 21.7978 339.048 22.3258C338.472 22.8538 338.142 23.5858 338.058 24.5218H344.286ZM349.778 21.9118C350.066 21.3478 350.474 20.9098 351.002 20.5978C351.542 20.2858 352.196 20.1298 352.964 20.1298V21.8218H352.532C350.696 21.8218 349.778 22.8178 349.778 24.8098V30.1738H348.14V20.3098H349.778V21.9118ZM358.347 30.3358C357.591 30.3358 356.913 30.2098 356.313 29.9578C355.713 29.6938 355.239 29.3338 354.891 28.8778C354.543 28.4098 354.351 27.8758 354.315 27.2758H356.007C356.055 27.7678 356.283 28.1698 356.691 28.4818C357.111 28.7938 357.657 28.9498 358.329 28.9498C358.953 28.9498 359.445 28.8118 359.805 28.5358C360.165 28.2598 360.345 27.9118 360.345 27.4918C360.345 27.0598 360.153 26.7418 359.769 26.5378C359.385 26.3218 358.791 26.1118 357.987 25.9078C357.255 25.7158 356.655 25.5238 356.187 25.3318C355.731 25.1278 355.335 24.8338 354.999 24.4498C354.675 24.0538 354.513 23.5378 354.513 22.9018C354.513 22.3978 354.663 21.9358 354.963 21.5158C355.263 21.0958 355.689 20.7658 356.241 20.5258C356.793 20.2738 357.423 20.1478 358.131 20.1478C359.223 20.1478 360.105 20.4238 360.777 20.9758C361.449 21.5278 361.809 22.2838 361.857 23.2438H360.219C360.183 22.7278 359.973 22.3138 359.589 22.0018C359.217 21.6898 358.713 21.5338 358.077 21.5338C357.489 21.5338 357.021 21.6598 356.673 21.9118C356.325 22.1638 356.151 22.4938 356.151 22.9018C356.151 23.2258 356.253 23.4958 356.457 23.7118C356.673 23.9158 356.937 24.0838 357.249 24.2158C357.573 24.3358 358.017 24.4738 358.581 24.6298C359.289 24.8218 359.865 25.0138 360.309 25.2058C360.753 25.3858 361.131 25.6618 361.443 26.0338C361.767 26.4058 361.935 26.8918 361.947 27.4918C361.947 28.0318 361.797 28.5178 361.497 28.9498C361.197 29.3818 360.771 29.7238 360.219 29.9758C359.679 30.2158 359.055 30.3358 358.347 30.3358ZM368.561 30.3358C367.637 30.3358 366.797 30.1258 366.041 29.7058C365.297 29.2858 364.709 28.6918 364.277 27.9238C363.857 27.1438 363.647 26.2438 363.647 25.2238C363.647 24.2158 363.863 23.3278 364.295 22.5598C364.739 21.7798 365.339 21.1858 366.095 20.7778C366.851 20.3578 367.697 20.1478 368.633 20.1478C369.569 20.1478 370.415 20.3578 371.171 20.7778C371.927 21.1858 372.521 21.7738 372.953 22.5418C373.397 23.3098 373.619 24.2038 373.619 25.2238C373.619 26.2438 373.391 27.1438 372.935 27.9238C372.491 28.6918 371.885 29.2858 371.117 29.7058C370.349 30.1258 369.497 30.3358 368.561 30.3358ZM368.561 28.8958C369.149 28.8958 369.701 28.7578 370.217 28.4818C370.733 28.2058 371.147 27.7918 371.459 27.2398C371.783 26.6878 371.945 26.0158 371.945 25.2238C371.945 24.4318 371.789 23.7598 371.477 23.2078C371.165 22.6558 370.757 22.2478 370.253 21.9838C369.749 21.7078 369.203 21.5698 368.615 21.5698C368.015 21.5698 367.463 21.7078 366.959 21.9838C366.467 22.2478 366.071 22.6558 365.771 23.2078C365.471 23.7598 365.321 24.4318 365.321 25.2238C365.321 26.0278 365.465 26.7058 365.753 27.2578C366.053 27.8098 366.449 28.2238 366.941 28.4998C367.433 28.7638 367.973 28.8958 368.561 28.8958ZM380.579 20.1298C381.779 20.1298 382.751 20.4958 383.495 21.2278C384.239 21.9478 384.611 22.9918 384.611 24.3598V30.1738H382.991V24.5938C382.991 23.6098 382.745 22.8598 382.253 22.3438C381.761 21.8158 381.089 21.5518 380.237 21.5518C379.373 21.5518 378.683 21.8218 378.167 22.3618C377.663 22.9018 377.411 23.6878 377.411 24.7198V30.1738H375.773V20.3098H377.411V21.7138C377.735 21.2098 378.173 20.8198 378.725 20.5438C379.289 20.2678 379.907 20.1298 380.579 20.1298ZM386.674 25.2058C386.674 24.1978 386.878 23.3158 387.286 22.5598C387.694 21.7918 388.252 21.1978 388.96 20.7778C389.68 20.3578 390.478 20.1478 391.354 20.1478C392.218 20.1478 392.968 20.3338 393.604 20.7058C394.24 21.0778 394.714 21.5458 395.026 22.1098V20.3098H396.682V30.1738H395.026V28.3378C394.702 28.9138 394.216 29.3938 393.568 29.7778C392.932 30.1498 392.188 30.3358 391.336 30.3358C390.46 30.3358 389.668 30.1198 388.96 29.6878C388.252 29.2558 387.694 28.6498 387.286 27.8698C386.878 27.0898 386.674 26.2018 386.674 25.2058ZM395.026 25.2238C395.026 24.4798 394.876 23.8318 394.576 23.2798C394.276 22.7278 393.868 22.3078 393.352 22.0198C392.848 21.7198 392.29 21.5698 391.678 21.5698C391.066 21.5698 390.508 21.7138 390.004 22.0018C389.5 22.2898 389.098 22.7098 388.798 23.2618C388.498 23.8138 388.348 24.4618 388.348 25.2058C388.348 25.9618 388.498 26.6218 388.798 27.1858C389.098 27.7378 389.5 28.1638 390.004 28.4638C390.508 28.7518 391.066 28.8958 391.678 28.8958C392.29 28.8958 392.848 28.7518 393.352 28.4638C393.868 28.1638 394.276 27.7378 394.576 27.1858C394.876 26.6218 395.026 25.9678 395.026 25.2238ZM401.088 16.8538V30.1738H399.45V16.8538H401.088ZM404.726 18.7078C404.414 18.7078 404.15 18.5998 403.934 18.3838C403.718 18.1678 403.61 17.9038 403.61 17.5918C403.61 17.2798 403.718 17.0158 403.934 16.7998C404.15 16.5838 404.414 16.4758 404.726 16.4758C405.026 16.4758 405.278 16.5838 405.482 16.7998C405.698 17.0158 405.806 17.2798 405.806 17.5918C405.806 17.9038 405.698 18.1678 405.482 18.3838C405.278 18.5998 405.026 18.7078 404.726 18.7078ZM405.518 20.3098V30.1738H403.88V20.3098H405.518ZM409.534 28.8238H414.376V30.1738H407.662V28.8238L412.45 21.6418H407.698V20.3098H414.34V21.6418L409.534 28.8238ZM415.889 25.2058C415.889 24.1978 416.093 23.3158 416.501 22.5598C416.909 21.7918 417.467 21.1978 418.175 20.7778C418.895 20.3578 419.693 20.1478 420.569 20.1478C421.433 20.1478 422.183 20.3338 422.819 20.7058C423.455 21.0778 423.929 21.5458 424.241 22.1098V20.3098H425.897V30.1738H424.241V28.3378C423.917 28.9138 423.431 29.3938 422.783 29.7778C422.147 30.1498 421.403 30.3358 420.551 30.3358C419.675 30.3358 418.883 30.1198 418.175 29.6878C417.467 29.2558 416.909 28.6498 416.501 27.8698C416.093 27.0898 415.889 26.2018 415.889 25.2058ZM424.241 25.2238C424.241 24.4798 424.091 23.8318 423.791 23.2798C423.491 22.7278 423.083 22.3078 422.567 22.0198C422.063 21.7198 421.505 21.5698 420.893 21.5698C420.281 21.5698 419.723 21.7138 419.219 22.0018C418.715 22.2898 418.313 22.7098 418.013 23.2618C417.713 23.8138 417.563 24.4618 417.563 25.2058C417.563 25.9618 417.713 26.6218 418.013 27.1858C418.313 27.7378 418.715 28.1638 419.219 28.4638C419.723 28.7518 420.281 28.8958 420.893 28.8958C421.505 28.8958 422.063 28.7518 422.567 28.4638C423.083 28.1638 423.491 27.7378 423.791 27.1858C424.091 26.6218 424.241 25.9678 424.241 25.2238ZM428.053 25.2058C428.053 24.1978 428.257 23.3158 428.665 22.5598C429.073 21.7918 429.631 21.1978 430.339 20.7778C431.059 20.3578 431.863 20.1478 432.751 20.1478C433.519 20.1478 434.233 20.3278 434.893 20.6878C435.553 21.0358 436.057 21.4978 436.405 22.0738V16.8538H438.061V30.1738H436.405V28.3198C436.081 28.9078 435.601 29.3938 434.965 29.7778C434.329 30.1498 433.585 30.3358 432.733 30.3358C431.857 30.3358 431.059 30.1198 430.339 29.6878C429.631 29.2558 429.073 28.6498 428.665 27.8698C428.257 27.0898 428.053 26.2018 428.053 25.2058ZM436.405 25.2238C436.405 24.4798 436.255 23.8318 435.955 23.2798C435.655 22.7278 435.247 22.3078 434.731 22.0198C434.227 21.7198 433.669 21.5698 433.057 21.5698C432.445 21.5698 431.887 21.7138 431.383 22.0018C430.879 22.2898 430.477 22.7098 430.177 23.2618C429.877 23.8138 429.727 24.4618 429.727 25.2058C429.727 25.9618 429.877 26.6218 430.177 27.1858C430.477 27.7378 430.879 28.1638 431.383 28.4638C431.887 28.7518 432.445 28.8958 433.057 28.8958C433.669 28.8958 434.227 28.7518 434.731 28.4638C435.247 28.1638 435.655 27.7378 435.955 27.1858C436.255 26.6218 436.405 25.9678 436.405 25.2238ZM440.217 25.2058C440.217 24.1978 440.421 23.3158 440.829 22.5598C441.237 21.7918 441.795 21.1978 442.503 20.7778C443.223 20.3578 444.021 20.1478 444.897 20.1478C445.761 20.1478 446.511 20.3338 447.147 20.7058C447.783 21.0778 448.257 21.5458 448.569 22.1098V20.3098H450.225V30.1738H448.569V28.3378C448.245 28.9138 447.759 29.3938 447.111 29.7778C446.475 30.1498 445.731 30.3358 444.879 30.3358C444.003 30.3358 443.211 30.1198 442.503 29.6878C441.795 29.2558 441.237 28.6498 440.829 27.8698C440.421 27.0898 440.217 26.2018 440.217 25.2058ZM448.569 25.2238C448.569 24.4798 448.419 23.8318 448.119 23.2798C447.819 22.7278 447.411 22.3078 446.895 22.0198C446.391 21.7198 445.833 21.5698 445.221 21.5698C444.609 21.5698 444.051 21.7138 443.547 22.0018C443.043 22.2898 442.641 22.7098 442.341 23.2618C442.041 23.8138 441.891 24.4618 441.891 25.2058C441.891 25.9618 442.041 26.6218 442.341 27.1858C442.641 27.7378 443.043 28.1638 443.547 28.4638C444.051 28.7518 444.609 28.8958 445.221 28.8958C445.833 28.8958 446.391 28.7518 446.895 28.4638C447.411 28.1638 447.819 27.7378 448.119 27.1858C448.419 26.6218 448.569 25.9678 448.569 25.2238Z" fill="#0A0F0B"/>
<path d="M541.999 27.0939V30.0939C542.001 30.3724 541.944 30.6481 541.832 30.9033C541.72 31.1585 541.557 31.3875 541.352 31.5758C541.146 31.7641 540.904 31.9074 540.64 31.9966C540.376 32.0859 540.097 32.119 539.819 32.0939C536.742 31.7596 533.786 30.7081 531.189 29.0239C528.773 27.4886 526.725 25.4401 525.189 23.0239C523.499 20.4151 522.448 17.4449 522.119 14.3539C522.094 14.0774 522.127 13.7987 522.216 13.5355C522.305 13.2724 522.447 13.0306 522.634 12.8255C522.821 12.6205 523.049 12.4566 523.303 12.3444C523.557 12.2323 523.832 12.1742 524.109 12.1739H527.109C527.595 12.1691 528.065 12.341 528.433 12.6575C528.801 12.9739 529.042 13.4134 529.109 13.8939C529.236 14.854 529.471 15.7967 529.809 16.7039C529.944 17.0618 529.973 17.4508 529.893 17.8248C529.814 18.1988 529.628 18.542 529.359 18.8139L528.089 20.0839C529.513 22.5875 531.586 24.6604 534.089 26.0839L535.359 24.8139C535.631 24.5451 535.975 24.3598 536.349 24.28C536.723 24.2003 537.112 24.2294 537.469 24.3639C538.377 24.7025 539.319 24.9373 540.279 25.0639C540.765 25.1325 541.209 25.3771 541.526 25.7514C541.843 26.1257 542.012 26.6035 541.999 27.0939Z" stroke="#0A0F0B" stroke-width="2" stroke-linecap="round" stroke-linejoin="round"/>
<path d="M559.292 17.6278C560.66 17.6278 561.842 17.8858 562.838 18.4018C563.846 18.9058 564.614 19.6318 565.142 20.5798C565.682 21.5278 565.952 22.6438 565.952 23.9278C565.952 25.2118 565.682 26.3278 565.142 27.2758C564.614 28.2118 563.846 28.9318 562.838 29.4358C561.842 29.9278 560.66 30.1738 559.292 30.1738H555.386V17.6278H559.292ZM559.292 28.8238C560.912 28.8238 562.148 28.3978 563 27.5458C563.852 26.6818 564.278 25.4758 564.278 23.9278C564.278 22.3678 563.846 21.1498 562.982 20.2738C562.13 19.3978 560.9 18.9598 559.292 18.9598H557.024V28.8238H559.292ZM577.113 24.8638C577.113 25.1758 577.095 25.5058 577.059 25.8538H569.175C569.235 26.8258 569.565 27.5878 570.165 28.1398C570.777 28.6798 571.515 28.9498 572.379 28.9498C573.087 28.9498 573.675 28.7878 574.143 28.4638C574.623 28.1278 574.959 27.6838 575.151 27.1318H576.915C576.651 28.0798 576.123 28.8538 575.331 29.4538C574.539 30.0418 573.555 30.3358 572.379 30.3358C571.443 30.3358 570.603 30.1258 569.859 29.7058C569.127 29.2858 568.551 28.6918 568.131 27.9238C567.711 27.1438 567.501 26.2438 567.501 25.2238C567.501 24.2038 567.705 23.3098 568.113 22.5418C568.521 21.7738 569.091 21.1858 569.823 20.7778C570.567 20.3578 571.419 20.1478 572.379 20.1478C573.315 20.1478 574.143 20.3518 574.863 20.7598C575.583 21.1678 576.135 21.7318 576.519 22.4518C576.915 23.1598 577.113 23.9638 577.113 24.8638ZM575.421 24.5218C575.421 23.8978 575.283 23.3638 575.007 22.9198C574.731 22.4638 574.353 22.1218 573.873 21.8938C573.405 21.6538 572.883 21.5338 572.307 21.5338C571.479 21.5338 570.771 21.7978 570.183 22.3258C569.607 22.8538 569.277 23.5858 569.193 24.5218H575.421ZM582.767 30.3358C582.011 30.3358 581.333 30.2098 580.733 29.9578C580.133 29.6938 579.659 29.3338 579.311 28.8778C578.963 28.4098 578.771 27.8758 578.735 27.2758H580.427C580.475 27.7678 580.703 28.1698 581.111 28.4818C581.531 28.7938 582.077 28.9498 582.749 28.9498C583.373 28.9498 583.865 28.8118 584.225 28.5358C584.585 28.2598 584.765 27.9118 584.765 27.4918C584.765 27.0598 584.573 26.7418 584.189 26.5378C583.805 26.3218 583.211 26.1118 582.407 25.9078C581.675 25.7158 581.075 25.5238 580.607 25.3318C580.151 25.1278 579.755 24.8338 579.419 24.4498C579.095 24.0538 578.933 23.5378 578.933 22.9018C578.933 22.3978 579.083 21.9358 579.383 21.5158C579.683 21.0958 580.109 20.7658 580.661 20.5258C581.213 20.2738 581.843 20.1478 582.551 20.1478C583.643 20.1478 584.525 20.4238 585.197 20.9758C585.869 21.5278 586.229 22.2838 586.277 23.2438H584.639C584.603 22.7278 584.393 22.3138 584.009 22.0018C583.637 21.6898 583.133 21.5338 582.497 21.5338C581.909 21.5338 581.441 21.6598 581.093 21.9118C580.745 22.1638 580.571 22.4938 580.571 22.9018C580.571 23.2258 580.673 23.4958 580.877 23.7118C581.093 23.9158 581.357 24.0838 581.669 24.2158C581.993 24.3358 582.437 24.4738 583.001 24.6298C583.709 24.8218 584.285 25.0138 584.729 25.2058C585.173 25.3858 585.551 25.6618 585.863 26.0338C586.187 26.4058 586.355 26.8918 586.367 27.4918C586.367 28.0318 586.217 28.5178 585.917 28.9498C585.617 29.3818 585.191 29.7238 584.639 29.9758C584.099 30.2158 583.475 30.3358 582.767 30.3358ZM588.067 25.2238C588.067 24.2038 588.271 23.3158 588.679 22.5598C589.087 21.7918 589.651 21.1978 590.371 20.7778C591.103 20.3578 591.937 20.1478 592.873 20.1478C594.085 20.1478 595.081 20.4418 595.861 21.0298C596.653 21.6178 597.175 22.4338 597.427 23.4778H595.663C595.495 22.8778 595.165 22.4038 594.673 22.0558C594.193 21.7078 593.593 21.5338 592.873 21.5338C591.937 21.5338 591.181 21.8578 590.605 22.5058C590.029 23.1418 589.741 24.0478 589.741 25.2238C589.741 26.4118 590.029 27.3298 590.605 27.9778C591.181 28.6258 591.937 28.9498 592.873 28.9498C593.593 28.9498 594.193 28.7818 594.673 28.4458C595.153 28.1098 595.483 27.6298 595.663 27.0058H597.427C597.163 28.0138 596.635 28.8238 595.843 29.4358C595.051 30.0358 594.061 30.3358 592.873 30.3358C591.937 30.3358 591.103 30.1258 590.371 29.7058C589.651 29.2858 589.087 28.6918 588.679 27.9238C588.271 27.1558 588.067 26.2558 588.067 25.2238ZM599.001 25.2058C599.001 24.1978 599.205 23.3158 599.613 22.5598C600.021 21.7918 600.579 21.1978 601.287 20.7778C602.007 20.3578 602.805 20.1478 603.681 20.1478C604.545 20.1478 605.295 20.3338 605.931 20.7058C606.567 21.0778 607.041 21.5458 607.353 22.1098V20.3098H609.009V30.1738H607.353V28.3378C607.029 28.9138 606.543 29.3938 605.895 29.7778C605.259 30.1498 604.515 30.3358 603.663 30.3358C602.787 30.3358 601.995 30.1198 601.287 29.6878C600.579 29.2558 600.021 28.6498 599.613 27.8698C599.205 27.0898 599.001 26.2018 599.001 25.2058ZM607.353 25.2238C607.353 24.4798 607.203 23.8318 606.903 23.2798C606.603 22.7278 606.195 22.3078 605.679 22.0198C605.175 21.7198 604.617 21.5698 604.005 21.5698C603.393 21.5698 602.835 21.7138 602.331 22.0018C601.827 22.2898 601.425 22.7098 601.125 23.2618C600.825 23.8138 600.675 24.4618 600.675 25.2058C600.675 25.9618 600.825 26.6218 601.125 27.1858C601.425 27.7378 601.827 28.1638 602.331 28.4638C602.835 28.7518 603.393 28.8958 604.005 28.8958C604.617 28.8958 605.175 28.7518 605.679 28.4638C606.195 28.1638 606.603 27.7378 606.903 27.1858C607.203 26.6218 607.353 25.9678 607.353 25.2238ZM613.415 21.9118C613.703 21.3478 614.111 20.9098 614.639 20.5978C615.179 20.2858 615.833 20.1298 616.601 20.1298V21.8218H616.169C614.333 21.8218 613.415 22.8178 613.415 24.8098V30.1738H611.777V20.3098H613.415V21.9118ZM622.559 20.1478C623.411 20.1478 624.155 20.3338 624.791 20.7058C625.439 21.0778 625.919 21.5458 626.231 22.1098V20.3098H627.887V30.3898C627.887 31.2898 627.695 32.0878 627.311 32.7838C626.927 33.4918 626.375 34.0438 625.655 34.4398C624.947 34.8358 624.119 35.0338 623.171 35.0338C621.875 35.0338 620.795 34.7278 619.931 34.1158C619.067 33.5038 618.557 32.6698 618.401 31.6138H620.021C620.201 32.2138 620.573 32.6938 621.137 33.0538C621.701 33.4258 622.379 33.6118 623.171 33.6118C624.071 33.6118 624.803 33.3298 625.367 32.7658C625.943 32.2018 626.231 31.4098 626.231 30.3898V28.3198C625.907 28.8958 625.427 29.3758 624.791 29.7598C624.155 30.1438 623.411 30.3358 622.559 30.3358C621.683 30.3358 620.885 30.1198 620.165 29.6878C619.457 29.2558 618.899 28.6498 618.491 27.8698C618.083 27.0898 617.879 26.2018 617.879 25.2058C617.879 24.1978 618.083 23.3158 618.491 22.5598C618.899 21.7918 619.457 21.1978 620.165 20.7778C620.885 20.3578 621.683 20.1478 622.559 20.1478ZM626.231 25.2238C626.231 24.4798 626.081 23.8318 625.781 23.2798C625.481 22.7278 625.073 22.3078 624.557 22.0198C624.053 21.7198 623.495 21.5698 622.883 21.5698C622.271 21.5698 621.713 21.7138 621.209 22.0018C620.705 22.2898 620.303 22.7098 620.003 23.2618C619.703 23.8138 619.553 24.4618 619.553 25.2058C619.553 25.9618 619.703 26.6218 620.003 27.1858C620.303 27.7378 620.705 28.1638 621.209 28.4638C621.713 28.7518 622.271 28.8958 622.883 28.8958C623.495 28.8958 624.053 28.7518 624.557 28.4638C625.073 28.1638 625.481 27.7378 625.781 27.1858C626.081 26.6218 626.231 25.9678 626.231 25.2238ZM630.044 25.2058C630.044 24.1978 630.248 23.3158 630.656 22.5598C631.064 21.7918 631.622 21.1978 632.33 20.7778C633.05 20.3578 633.848 20.1478 634.724 20.1478C635.588 20.1478 636.338 20.3338 636.974 20.7058C637.61 21.0778 638.084 21.5458 638.396 22.1098V20.3098H640.052V30.1738H638.396V28.3378C638.072 28.9138 637.586 29.3938 636.938 29.7778C636.302 30.1498 635.558 30.3358 634.706 30.3358C633.83 30.3358 633.038 30.1198 632.33 29.6878C631.622 29.2558 631.064 28.6498 630.656 27.8698C630.248 27.0898 630.044 26.2018 630.044 25.2058ZM638.396 25.2238C638.396 24.4798 638.246 23.8318 637.946 23.2798C637.646 22.7278 637.238 22.3078 636.722 22.0198C636.218 21.7198 635.66 21.5698 635.048 21.5698C634.436 21.5698 633.878 21.7138 633.374 22.0018C632.87 22.2898 632.468 22.7098 632.168 23.2618C631.868 23.8138 631.718 24.4618 631.718 25.2058C631.718 25.9618 631.868 26.6218 632.168 27.1858C632.468 27.7378 632.87 28.1638 633.374 28.4638C633.878 28.7518 634.436 28.8958 635.048 28.8958C635.66 28.8958 636.218 28.7518 636.722 28.4638C637.238 28.1638 637.646 27.7378 637.946 27.1858C638.246 26.6218 638.396 25.9678 638.396 25.2238ZM644.458 21.9118C644.746 21.3478 645.154 20.9098 645.682 20.5978C646.222 20.2858 646.876 20.1298 647.644 20.1298V21.8218H647.212C645.376 21.8218 644.458 22.8178 644.458 24.8098V30.1738H642.82V20.3098H644.458V21.9118ZM653.721 23.8918C653.721 22.6678 653.997 21.5698 654.549 20.5978C655.101 19.6138 655.851 18.8458 656.799 18.2938C657.759 17.7418 658.821 17.4658 659.985 17.4658C661.353 17.4658 662.547 17.7958 663.567 18.4558C664.587 19.1158 665.331 20.0518 665.799 21.2638H663.837C663.489 20.5078 662.985 19.9258 662.325 19.5178C661.677 19.1098 660.897 18.9058 659.985 18.9058C659.109 18.9058 658.323 19.1098 657.627 19.5178C656.931 19.9258 656.385 20.5078 655.989 21.2638C655.593 22.0078 655.395 22.8838 655.395 23.8918C655.395 24.8878 655.593 25.7638 655.989 26.5198C656.385 27.2638 656.931 27.8398 657.627 28.2478C658.323 28.6558 659.109 28.8598 659.985 28.8598C660.897 28.8598 661.677 28.6618 662.325 28.2658C662.985 27.8578 663.489 27.2758 663.837 26.5198H665.799C665.331 27.7198 664.587 28.6498 663.567 29.3098C662.547 29.9578 661.353 30.2818 659.985 30.2818C658.821 30.2818 657.759 30.0118 656.799 29.4718C655.851 28.9198 655.101 28.1578 654.549 27.1858C653.997 26.2138 653.721 25.1158 653.721 23.8918ZM678.606 17.6278L673.872 30.1738H671.982L667.248 17.6278H668.994L672.936 28.4458L676.878 17.6278H678.606Z" fill="#0A0F0B"/>
</svg>
