<svg width="81" height="113" viewBox="0 0 81 113" fill="none" xmlns="http://www.w3.org/2000/svg">
<g clip-path="url(#clip0_107_2357)">
<path d="M78.071 37.1604L43.6235 2.71413C41.641 0.730381 38.4235 0.730381 36.4379 2.71413L29.2854 9.86788L38.3591 18.9416C40.4685 18.2298 42.886 18.7073 44.5666 20.3879C46.256 22.0791 46.7297 24.5173 46.0004 26.6335L54.7454 35.3791C56.861 34.6498 59.3029 35.121 60.9916 36.8135C63.3541 39.1741 63.3541 43.001 60.9916 45.3629C60.4302 45.9246 59.7636 46.3702 59.0299 46.6742C58.2962 46.9782 57.5098 47.1346 56.7157 47.1346C55.9215 47.1346 55.1351 46.9782 54.4014 46.6742C53.6678 46.3702 53.0012 45.9246 52.4397 45.3629C51.5962 44.5189 51.0212 43.4442 50.7871 42.2741C50.553 41.104 50.6703 39.8908 51.1241 38.7873L42.9691 30.6323L42.9679 52.0954C43.5595 52.3868 44.0997 52.7727 44.5672 53.2379C46.9285 55.5985 46.9285 59.4241 44.5672 61.7898C42.2054 64.1504 38.3772 64.1504 36.0179 61.7898C33.6566 59.4248 33.6566 55.5991 36.0179 53.2379C36.5836 52.6713 37.2565 52.223 37.9972 51.9191V30.2573C37.2559 29.9543 36.5828 29.5056 36.0179 28.9379C34.2291 27.1504 33.7985 24.5254 34.716 22.3279L25.7704 13.3823L2.15036 37.001C1.19743 37.9542 0.662109 39.2469 0.662109 40.5948C0.662109 41.9426 1.19743 43.2353 2.15036 44.1885L36.5985 78.6348C38.5822 80.6185 41.7985 80.6185 43.7854 78.6348L78.0716 44.3485C79.0243 43.395 79.5595 42.1022 79.5593 40.7543C79.5592 39.4064 79.0239 38.1137 78.071 37.1604Z" fill="#545454"/>
</g>
<defs>
<clipPath id="clip0_107_2357">
<rect width="80" height="80" fill="white" transform="translate(0.111328 0.674072)"/>
</clipPath>
</defs>
</svg>
