<svg width="81" height="113" viewBox="0 0 81 113" fill="none" xmlns="http://www.w3.org/2000/svg">
<path fill-rule="evenodd" clip-rule="evenodd" d="M40.889 3.86353C20.0471 3.86353 3.14648 20.7604 3.14648 41.606C3.14648 58.2823 13.9609 72.4291 28.9571 77.4204C30.8427 77.7704 31.5352 76.6016 31.5352 75.6048C31.5352 74.7048 31.5002 71.7317 31.484 68.5779C20.984 70.861 18.7684 64.1248 18.7684 64.1248C17.0515 59.7623 14.5777 58.6023 14.5777 58.6023C11.1527 56.2598 14.8359 56.3085 14.8359 56.3085C18.6252 56.5741 20.6215 60.1979 20.6215 60.1979C23.9877 65.9666 29.4509 64.2991 31.6046 63.3354C31.9434 60.896 32.9215 59.2304 34.0009 58.2879C25.6177 57.3348 16.8046 54.0979 16.8046 39.636C16.8046 35.5154 18.2796 32.1485 20.694 29.5048C20.3015 28.5548 19.0096 24.716 21.059 19.5173C21.059 19.5173 24.2277 18.5029 31.4402 23.386C34.4515 22.5491 37.6809 22.1285 40.889 22.1141C44.0952 22.1285 47.3265 22.5479 50.3434 23.3848C57.5471 18.5016 60.7121 19.516 60.7121 19.516C62.7665 24.7141 61.4746 28.5535 61.0827 29.5035C63.5027 32.1473 64.9671 35.5141 64.9671 39.6348C64.9671 54.131 56.1377 57.3223 47.7334 58.2573C49.0877 59.4285 50.294 61.726 50.294 65.2466C50.294 70.2966 50.2502 74.361 50.2502 75.6041C50.2502 76.6085 50.9302 77.7854 52.8427 77.4148C67.8302 72.4185 78.6321 58.276 78.6321 41.606C78.6315 20.7616 61.7327 3.86353 40.889 3.86353Z" fill="#545454"/>
<path d="M17.4412 58.0528C17.358 58.2403 17.063 58.2966 16.7943 58.1685C16.5193 58.046 16.3662 57.7903 16.4549 57.6022C16.5362 57.4085 16.8318 57.3553 17.1049 57.4847C17.3799 57.6078 17.5362 57.866 17.4405 58.0535L17.4412 58.0528ZM18.9699 59.7585C18.7905 59.9253 18.4387 59.8478 18.1999 59.5835C17.9524 59.321 17.9062 58.9691 18.0893 58.7997C18.2755 58.6335 18.6168 58.7122 18.8643 58.9747C19.1105 59.241 19.1593 59.5897 18.9705 59.7591L18.9699 59.7585ZM20.4587 61.9316C20.2274 62.0928 19.8487 61.9422 19.6149 61.6066C19.3837 61.2703 19.3837 60.8672 19.6212 60.7066C19.8543 60.5453 20.2274 60.691 20.4649 61.0235C20.6949 61.3641 20.6949 61.7678 20.4587 61.9316ZM22.4968 64.0322C22.2905 64.2603 21.8493 64.1991 21.5268 63.8885C21.1974 63.5841 21.1055 63.151 21.3124 62.9235C21.5224 62.6947 21.9655 62.7585 22.2899 63.0672C22.6193 63.371 22.7187 63.8047 22.498 64.0316L22.4968 64.0322ZM25.3093 65.2516C25.2174 65.5472 24.7937 65.6816 24.3655 65.5553C23.9387 65.426 23.6593 65.0803 23.7468 64.7816C23.8343 64.4835 24.2612 64.3441 24.6918 64.4785C25.1187 64.6072 25.398 64.951 25.3093 65.2516ZM28.3987 65.4772C28.4093 65.7885 28.0468 66.046 27.5987 66.0522C27.1468 66.0628 26.7812 65.8103 26.7768 65.5041C26.7768 65.1897 27.1318 64.9353 27.583 64.9266C28.0312 64.9185 28.3993 65.1685 28.3993 65.4766L28.3987 65.4772ZM31.2724 64.9885C31.3262 65.2916 31.0143 65.6035 30.5687 65.6866C30.1312 65.7678 29.7249 65.5791 29.6687 65.2785C29.6149 64.9672 29.9324 64.6553 30.3699 64.5747C30.8162 64.4978 31.2162 64.6803 31.2724 64.9885Z" fill="#545454"/>
</svg>
