<svg width="88" height="89" viewBox="0 0 88 89" fill="none" xmlns="http://www.w3.org/2000/svg">
<path d="M18.7358 7.29053L14.8638 11.157L20.625 16.9155L24.4915 13.049L18.733 7.29053H18.7358ZM69.267 7.29053L63.5058 13.049L67.375 16.9155L73.1335 11.1598L69.267 7.29053ZM44 9.00653C43.0925 9.01753 42.174 9.06978 41.25 9.18253C41.2225 9.18253 41.195 9.17703 41.1675 9.18253C30.0135 10.4613 21.1365 19.473 19.5938 30.5775C18.3617 39.515 22.0467 47.6193 28.1875 52.8388C30.6994 54.9825 32.3984 57.9242 33 61.1713V77.6713H39.27C40.227 79.313 41.9733 80.4213 44 80.4213C46.0267 80.4213 47.773 79.313 48.73 77.6713H55V66.6713H55.2585V63.4043C55.2585 59.3728 57.354 55.3083 60.7585 52.1485C65.3125 47.589 68.75 41.1128 68.75 33.674C68.75 20.089 57.5685 8.88003 44 9.00653ZM44 14.5065C54.6287 14.358 63.25 23.059 63.25 33.674C63.25 39.4325 60.5825 44.5035 56.8893 48.194L56.9772 48.282C53.307 51.6665 50.9338 56.2262 50.2673 61.174H38.2388C37.6338 56.4605 35.6125 51.8983 31.7927 48.6258C26.9335 44.5008 24.0378 38.2858 25.0058 31.2678C26.2075 22.6053 33.2365 15.6395 41.8495 14.6853C42.5606 14.5861 43.2767 14.5274 43.9945 14.5093L44 14.5065ZM5.5 33.674V39.174H13.75V33.674H5.5ZM74.25 33.674V39.174H82.5V33.674H74.25ZM20.625 55.9325L14.8665 61.6883L18.7358 65.5575L24.4887 59.799L20.625 55.9325ZM67.375 55.9325L63.5085 59.799L69.2643 65.5575L73.1335 61.6883L67.375 55.9325ZM38.5 66.674H49.5V72.174H38.5V66.674Z" fill="#474646"/>
</svg>
