<svg width="101" height="113" viewBox="0 0 101 113" fill="none" xmlns="http://www.w3.org/2000/svg">
<g clip-path="url(#clip0_107_2359)">
<path d="M11.916 1.29907V79.4241H90.041V1.29907H11.916ZM53.2404 67.8697C52.0873 70.2128 49.886 71.7522 47.3354 72.4953C43.416 73.3953 39.6673 72.8822 36.8785 71.2085C35.0123 70.0634 33.5548 68.3009 32.5654 66.2703L38.5154 62.6266C38.5673 62.6484 38.7235 62.9309 38.9323 63.2959C39.691 64.5672 40.3454 65.4672 41.6316 66.0991C42.8954 66.5303 45.6698 66.8059 46.741 64.5822C47.3954 63.4509 47.1873 59.8147 47.1873 55.7916C47.1866 49.4697 47.216 43.1741 47.216 36.9241H54.5341C54.5341 43.7991 54.5716 50.3103 54.5341 57.0191C54.5498 61.1316 54.9066 64.7978 53.2404 67.8697ZM83.5991 65.8022C81.0554 74.5034 66.8729 74.7859 61.2054 69.0372C60.0079 67.6841 59.2573 66.9772 58.5429 65.4153C61.5548 63.6828 61.5548 63.6828 64.4854 61.9872C66.0773 64.4341 67.5491 65.7797 70.1973 66.3303C73.7898 66.7691 77.4041 65.5347 76.5935 61.7191C75.7604 58.6028 69.2373 57.8447 64.7979 54.5122C60.291 51.4853 59.2348 44.1303 62.9385 39.9278C64.1729 38.3734 66.2779 37.2134 68.4866 36.6559L70.7916 36.3578C75.2173 36.2684 77.9835 37.4372 80.0141 39.7047C80.5791 40.2772 81.0404 40.8947 81.9029 42.2328C79.5454 43.7353 79.5529 43.7209 76.176 45.9072C75.4548 44.3534 74.2579 43.3784 72.9929 42.9547C71.0291 42.3597 68.5529 43.0066 68.0391 45.0816C67.861 45.7209 67.8979 46.3159 68.181 47.3722C68.9766 49.1866 71.6466 49.9753 74.0416 51.0759C80.936 53.8722 83.2641 56.8703 83.8366 60.4391C84.3879 63.5116 83.7035 65.5047 83.5991 65.8022Z" fill="#545454"/>
</g>
<defs>
<clipPath id="clip0_107_2359">
<rect width="80" height="80" fill="white" transform="translate(10.666 0.674072)"/>
</clipPath>
</defs>
</svg>
