<svg width="88" height="89" viewBox="0 0 88 89" fill="none" xmlns="http://www.w3.org/2000/svg">
<path d="M47.6673 45.3158L55.9173 53.5658C56.5895 54.238 56.9257 55.0789 56.9257 56.0884C56.9257 57.098 56.5895 57.9682 55.9173 58.6991C55.184 59.4324 54.3125 59.7991 53.303 59.7991C52.2934 59.7991 51.4232 59.4324 50.6923 58.6991L42.9007 50.9074C42.0451 50.0519 41.4034 49.1047 40.9757 48.0658C40.5479 47.0269 40.334 45.8963 40.334 44.6741V33.6741C40.334 32.6352 40.686 31.7638 41.39 31.0598C42.094 30.3558 42.9642 30.005 44.0007 30.0074C45.0395 30.0074 45.911 30.3594 46.615 31.0634C47.319 31.7674 47.6698 32.6377 47.6673 33.6741V45.3158ZM44.0007 15.3408C45.0395 15.3408 45.911 15.6928 46.615 16.3968C47.319 17.1008 47.6698 17.971 47.6673 19.0074C47.6673 20.0463 47.3153 20.9178 46.6113 21.6218C45.9073 22.3258 45.0371 22.6766 44.0007 22.6741C42.9618 22.6741 42.0903 22.3221 41.3863 21.6181C40.6823 20.9141 40.3315 20.0439 40.334 19.0074C40.334 17.9686 40.686 17.0971 41.39 16.3931C42.094 15.6891 42.9642 15.3383 44.0007 15.3408ZM73.334 44.6741C73.334 45.713 72.982 46.5844 72.278 47.2884C71.574 47.9924 70.7038 48.3432 69.6673 48.3408C68.6284 48.3408 67.757 47.9888 67.053 47.2848C66.349 46.5808 65.9982 45.7106 66.0007 44.6741C66.0007 43.6352 66.3527 42.7638 67.0567 42.0598C67.7607 41.3558 68.6309 41.005 69.6673 41.0074C70.7062 41.0074 71.5777 41.3594 72.2816 42.0634C72.9856 42.7674 73.3364 43.6377 73.334 44.6741ZM44.0007 66.6741C45.0395 66.6741 45.911 67.0261 46.615 67.7301C47.319 68.4341 47.6698 69.3043 47.6673 70.3408C47.6673 71.3797 47.3153 72.2511 46.6113 72.9551C45.9073 73.6591 45.0371 74.0099 44.0007 74.0074C42.9618 74.0074 42.0903 73.6554 41.3863 72.9514C40.6823 72.2474 40.3315 71.3772 40.334 70.3408C40.334 69.3019 40.686 68.4305 41.39 67.7265C42.094 67.0224 42.9642 66.6717 44.0007 66.6741ZM22.0007 44.6741C22.0007 45.713 21.6487 46.5844 20.9447 47.2884C20.2407 47.9924 19.3704 48.3432 18.334 48.3408C17.2951 48.3408 16.4237 47.9888 15.7197 47.2848C15.0157 46.5808 14.6649 45.7106 14.6673 44.6741C14.6673 43.6352 15.0193 42.7638 15.7233 42.0598C16.4273 41.3558 17.2975 41.005 18.334 41.0074C19.3729 41.0074 20.2443 41.3594 20.9483 42.0634C21.6523 42.7674 22.0031 43.6377 22.0007 44.6741ZM44.0007 81.3408C38.9284 81.3408 34.1618 80.3777 29.7007 78.4514C25.2395 76.5252 21.359 73.9133 18.059 70.6158C14.759 67.3158 12.1471 63.4352 10.2233 58.9741C8.29954 54.513 7.33643 49.7463 7.33398 44.6741C7.33398 39.6019 8.2971 34.8352 10.2233 30.3741C12.1495 25.913 14.7614 22.0324 18.059 18.7324C21.359 15.4324 25.2395 12.8206 29.7007 10.8968C34.1618 8.973 38.9284 8.00989 44.0007 8.00745C49.0729 8.00745 53.8395 8.97056 58.3007 10.8968C62.7618 12.823 66.6423 15.4349 69.9423 18.7324C73.2423 22.0324 75.8554 25.913 77.7816 30.3741C79.7079 34.8352 80.6698 39.6019 80.6673 44.6741C80.6673 49.7463 79.7042 54.513 77.778 58.9741C75.8518 63.4352 73.2399 67.3158 69.9423 70.6158C66.6423 73.9158 62.7618 76.5289 58.3007 78.4551C53.8395 80.3813 49.0729 81.3432 44.0007 81.3408ZM44.0007 74.0074C52.1895 74.0074 59.1256 71.1658 64.809 65.4824C70.4923 59.7991 73.334 52.863 73.334 44.6741C73.334 36.4852 70.4923 29.5491 64.809 23.8658C59.1256 18.1824 52.1895 15.3408 44.0007 15.3408C35.8118 15.3408 28.8757 18.1824 23.1923 23.8658C17.509 29.5491 14.6673 36.4852 14.6673 44.6741C14.6673 52.863 17.509 59.7991 23.1923 65.4824C28.8757 71.1658 35.8118 74.0074 44.0007 74.0074Z" fill="#474646"/>
</svg>
