<svg width="88" height="89" viewBox="0 0 88 89" fill="none" xmlns="http://www.w3.org/2000/svg">
<path d="M10.9993 15.3408V59.3408H76.9993V15.3408H10.9993ZM10.9993 8.00745H76.9993C78.9443 8.00745 80.8095 8.78006 82.1848 10.1553C83.5601 11.5306 84.3327 13.3959 84.3327 15.3408V59.3408C84.3327 61.2841 83.5627 63.1541 82.1693 64.5108C80.8127 65.9041 78.9427 66.6741 76.9993 66.6741H51.3327V74.0074H58.666V81.3408H29.3327V74.0074H36.666V66.6741H10.9993C9.05602 66.6741 7.18602 65.9041 5.82935 64.5108C4.43602 63.1541 3.66602 61.2841 3.66602 59.3408V15.3408C3.66602 11.2708 6.92935 8.00745 10.9993 8.00745ZM39.746 33.4174C40.8827 32.3174 42.4227 31.6574 43.9993 31.6574C45.576 31.6941 47.116 32.3174 48.2527 33.4541C49.3527 34.5541 50.0127 36.0941 50.0127 37.6708C50.0127 39.2841 49.3527 40.7874 48.2527 41.9241C47.116 43.0608 45.576 43.6841 43.9993 43.6841C42.4227 43.6841 40.8827 43.0241 39.746 41.9241C38.646 40.7874 37.986 39.2841 37.986 37.6708C37.986 36.0941 38.646 34.5541 39.746 33.4174ZM36.9227 44.6741C37.8391 45.6261 38.9382 46.3833 40.1542 46.9006C41.3701 47.4179 42.6779 47.6845 43.9993 47.6845C45.3207 47.6845 46.6286 47.4179 47.8445 46.9006C49.0605 46.3833 50.1596 45.6261 51.076 44.6741C52.946 42.8408 54.0093 40.3108 54.0093 37.6708C54.0093 35.0308 52.946 32.4641 51.076 30.5941C49.206 28.7241 46.6393 27.6608 43.9993 27.6608C41.3593 27.6608 38.7927 28.7241 36.9227 30.5941C35.0527 32.4641 33.9893 35.0308 33.9893 37.6708C33.9893 40.3108 35.0527 42.8408 36.9227 44.6741ZM21.9993 37.6708C23.7369 33.2513 26.7646 29.4572 30.6885 26.7825C34.6124 24.1077 39.2506 22.6761 43.9993 22.6741C54.0093 22.6741 62.5527 28.9074 65.9993 37.6708C64.2742 42.0987 61.2495 45.901 57.3228 48.5777C53.3962 51.2543 48.7515 52.6801 43.9993 52.6674C33.9893 52.6674 25.446 46.5074 21.9993 37.6708Z" fill="#474646"/>
</svg>
