<svg width="88" height="89" viewBox="0 0 88 89" fill="none" xmlns="http://www.w3.org/2000/svg">
<g clip-path="url(#clip0_624_370)">
<path d="M14.6628 22.6744V59.3411H32.9961V44.6744C32.9961 42.7295 33.7687 40.8642 35.144 39.489C36.5192 38.1137 38.3845 37.3411 40.3294 37.3411H58.6628C60.6077 37.3411 62.4729 38.1137 63.8482 39.489C65.2235 40.8642 65.9961 42.7295 65.9961 44.6744V59.3411H73.3294V22.6744H14.6628ZM-0.00390625 74.0077V66.6744H14.6628C12.7178 66.6744 10.8526 65.9018 9.47731 64.5265C8.10204 63.1512 7.32943 61.286 7.32943 59.3411V22.6744C7.32943 20.7295 8.10204 18.8642 9.47731 17.4889C10.8526 16.1137 12.7178 15.3411 14.6628 15.3411H73.3294C75.2744 15.3411 77.1396 16.1137 78.5149 17.4889C79.8901 18.8642 80.6628 20.7295 80.6628 22.6744V59.3411C80.6628 61.286 79.8901 63.1512 78.5149 64.5265C77.1396 65.9018 75.2744 66.6744 73.3294 66.6744H87.9961V74.0077H65.9961C65.9961 75.9527 65.2235 77.8179 63.8482 79.1932C62.4729 80.5685 60.6077 81.3411 58.6628 81.3411H40.3294C38.3845 81.3411 36.5192 80.5685 35.144 79.1932C33.7687 77.8179 32.9961 75.9527 32.9961 74.0077H-0.00390625ZM42.1628 74.0077C41.6765 74.0077 41.2102 74.2009 40.8664 74.5447C40.5226 74.8885 40.3294 75.3548 40.3294 75.8411C40.3294 76.3273 40.5226 76.7936 40.8664 77.1374C41.2102 77.4812 41.6765 77.6744 42.1628 77.6744C42.649 77.6744 43.1153 77.4812 43.4591 77.1374C43.8029 76.7936 43.9961 76.3273 43.9961 75.8411C43.9961 75.3548 43.8029 74.8885 43.4591 74.5447C43.1153 74.2009 42.649 74.0077 42.1628 74.0077ZM56.8294 74.0077C56.3432 74.0077 55.8769 74.2009 55.5331 74.5447C55.1892 74.8885 54.9961 75.3548 54.9961 75.8411C54.9961 76.3273 55.1892 76.7936 55.5331 77.1374C55.8769 77.4812 56.3432 77.6744 56.8294 77.6744C57.3157 77.6744 57.782 77.4812 58.1258 77.1374C58.4696 76.7936 58.6628 76.3273 58.6628 75.8411C58.6628 75.3548 58.4696 74.8885 58.1258 74.5447C57.782 74.2009 57.3157 74.0077 56.8294 74.0077ZM47.6628 74.0077V77.6744H51.3294V74.0077H47.6628ZM40.3294 44.6744V70.3411H58.6628V44.6744H40.3294Z" fill="#474646"/>
</g>
<defs>
<clipPath id="clip0_624_370">
<rect width="88" height="88" fill="white" transform="translate(0 0.674072)"/>
</clipPath>
</defs>
</svg>
