<svg width="88" height="89" viewBox="0 0 88 89" fill="none" xmlns="http://www.w3.org/2000/svg">
<path d="M75.1673 41.0074H69.6673V26.3407C69.6673 24.3958 68.8947 22.5305 67.5194 21.1552C66.1442 19.78 64.2789 19.0074 62.334 19.0074H47.6673V13.5074C47.6673 11.0762 46.7015 8.74464 44.9825 7.02555C43.2634 5.30647 40.9318 4.3407 38.5007 4.3407C36.0695 4.3407 33.7379 5.30647 32.0188 7.02555C30.2998 8.74464 29.334 11.0762 29.334 13.5074V19.0074H14.6673C12.7224 19.0074 10.8571 19.78 9.48187 21.1552C8.1066 22.5305 7.33398 24.3958 7.33398 26.3407V40.274H12.834C18.334 40.274 22.734 44.674 22.734 50.174C22.734 55.674 18.334 60.074 12.834 60.074H7.33398V74.0074C7.33398 75.9523 8.1066 77.8176 9.48187 79.1928C10.8571 80.5681 12.7224 81.3407 14.6673 81.3407H28.6007V75.8407C28.6007 70.3407 33.0007 65.9407 38.5007 65.9407C44.0007 65.9407 48.4007 70.3407 48.4007 75.8407V81.3407H62.334C64.2789 81.3407 66.1442 80.5681 67.5194 79.1928C68.8947 77.8176 69.6673 75.9523 69.6673 74.0074V59.3407H75.1673C77.5985 59.3407 79.93 58.3749 81.6491 56.6558C83.3682 54.9368 84.334 52.6052 84.334 50.174C84.334 47.7429 83.3682 45.4113 81.6491 43.6922C79.93 41.9731 77.5985 41.0074 75.1673 41.0074Z" fill="#474646"/>
</svg>
