<svg width="80" height="113" viewBox="0 0 80 113" fill="none" xmlns="http://www.w3.org/2000/svg">
<path d="M70.4238 19.6328L42.8344 3.62971C41.0963 2.63971 38.8194 2.63971 37.0675 3.62971L9.2625 19.6328C7.46937 20.6647 6.25 22.6041 6.25 24.6785V56.6422C6.25 58.7166 7.495 60.6566 9.28875 61.6941L16.6194 65.8741C20.1362 67.6066 21.1106 67.6066 22.7106 67.6066C27.9194 67.6066 30.6244 64.4572 30.6244 58.9641V27.4078C30.625 26.9622 30.9031 26.2991 30.465 26.2991H26.9513C26.5063 26.2991 25.625 26.9622 25.625 27.4072V58.9635C25.625 61.3985 23.365 63.8216 19.2488 61.7635L11.6725 57.3803C11.4088 57.2366 11.25 56.9472 11.25 56.6422V24.6785C11.25 24.3772 11.5394 24.0747 11.8069 23.9203L39.5431 7.94471C39.6793 7.87237 39.8311 7.83454 39.9853 7.83454C40.1395 7.83454 40.2913 7.87237 40.4275 7.94471L67.9044 23.9166C68.1675 24.0747 68.1256 24.3678 68.1256 24.6785V56.6422C68.1256 56.9472 68.1831 57.2441 67.9238 57.391L40.3406 73.3759C40.1044 73.5178 39.7969 73.5178 39.5375 73.3759L32.4644 69.1578C32.2513 69.0341 31.9944 68.9897 31.7894 69.1041C29.8237 70.2185 29.4587 70.3666 27.615 71.006C27.1606 71.1641 26.4906 71.4384 27.87 72.2116L37.1187 77.6828C38.0017 78.1929 39.0034 78.4615 40.0231 78.4616C41.0468 78.4632 42.0528 78.1946 42.9394 77.6828L70.4244 61.6941C72.2188 60.6491 73.1256 58.7166 73.1256 56.6422V24.6785C73.125 22.6041 72.2181 20.6697 70.4238 19.6328ZM48.5794 51.5772C41.25 51.5772 39.6362 49.5553 39.0981 45.9109C39.0344 45.5185 38.7019 45.0491 38.3019 45.0491H34.7206C34.2775 45.0491 33.9206 45.5866 33.9206 46.0278C33.9206 50.6941 36.4581 56.3478 48.5794 56.3478C57.3531 56.3478 62.3844 52.9385 62.3844 46.9047C62.3844 40.9222 58.3425 39.3522 49.8331 38.226C41.2319 37.0891 40.3581 36.5147 40.3581 34.4997C40.3581 32.8385 41.0981 30.6228 47.4669 30.6228C53.1569 30.6228 55.2544 31.8441 56.1175 35.6797C56.1919 36.0403 56.5212 36.2991 56.8931 36.2991H60.4894C60.7106 36.2991 60.9212 36.2097 61.0762 36.0516C61.2269 35.8816 61.3056 35.6685 61.2862 35.4397C60.7281 28.8341 56.3406 25.756 47.4662 25.756C39.5713 25.756 34.8625 29.0897 34.8625 34.6778C34.8625 40.7391 39.5481 42.4141 47.1263 43.1635C56.1919 44.0522 56.8969 45.3772 56.8969 47.1603C56.8969 50.2578 54.4106 51.5772 48.5794 51.5772Z" fill="#545454"/>
</svg>
