<svg width="81" height="113" viewBox="0 0 81 113" fill="none" xmlns="http://www.w3.org/2000/svg">
<path d="M40.4453 47.7991C44.3803 47.7991 47.5703 44.6091 47.5703 40.6741C47.5703 36.739 44.3803 33.5491 40.4453 33.5491C36.5103 33.5491 33.3203 36.739 33.3203 40.6741C33.3203 44.6091 36.5103 47.7991 40.4453 47.7991Z" fill="#545454"/>
<path d="M67.5078 28.9241C66.1328 28.4241 64.6953 27.9241 63.1953 27.4866C63.5703 25.9866 63.8828 24.4866 64.1328 23.0491C65.4453 14.7991 64.0078 8.98657 60.0078 6.73657C58.8203 6.04907 57.5078 5.73657 56.0078 5.73657C51.6328 5.73657 46.0703 8.98657 40.4453 14.4241C34.8203 8.98657 29.2578 5.73657 24.8828 5.73657C23.3828 5.73657 22.0703 6.04907 20.8828 6.73657C16.8828 9.04907 15.4453 14.8616 16.7578 23.0491C17.0078 24.4866 17.3203 25.9866 17.6953 27.4866C16.1953 27.9241 14.7578 28.3616 13.3828 28.9241C5.57031 31.9241 1.32031 36.0491 1.32031 40.6741C1.32031 45.2991 5.63281 49.4241 13.3828 52.4241C14.7578 52.9241 16.1953 53.4241 17.6953 53.8616C17.3203 55.3616 17.0078 56.8616 16.7578 58.2991C15.4453 66.5491 16.8828 72.3616 20.8828 74.6116C22.0703 75.2991 23.3828 75.6116 24.8828 75.6116C29.3203 75.6116 34.8828 72.3616 40.4453 66.9241C46.0703 72.3616 51.6328 75.6116 56.0078 75.6116C57.5078 75.6116 58.8203 75.2991 60.0078 74.6116C64.0078 72.2991 65.4453 66.4866 64.1328 58.2991C63.8828 56.8616 63.5703 55.3616 63.1953 53.8616C64.6953 53.4241 66.1328 52.9866 67.5078 52.4241C75.3203 49.4241 79.5703 45.2991 79.5703 40.6741C79.5703 36.0491 75.3203 31.9241 67.5078 28.9241ZM58.2578 9.86157C60.8203 11.3616 61.6953 15.9866 60.6328 22.5491C60.4453 23.8616 60.1328 25.2366 59.7578 26.6741C56.5078 25.9241 53.0703 25.4241 49.4453 25.1116C47.3203 22.1116 45.1328 19.4241 42.9453 16.9866C47.5703 12.4241 52.2578 9.29907 56.0703 9.29907C56.8828 9.29907 57.6328 9.48657 58.2578 9.86157ZM51.2578 46.9241C50.1328 48.9241 48.8203 50.9241 47.4453 52.9241C45.1328 53.1116 42.8203 53.1741 40.4453 53.1741C38.0078 53.1741 35.6953 53.1116 33.4453 52.9241C32.0703 50.9241 30.8203 48.9241 29.6953 46.9241C28.5078 44.8616 27.3828 42.7366 26.3828 40.6741C27.3828 38.6116 28.5078 36.4866 29.6953 34.4241C30.8203 32.4241 32.1328 30.4241 33.5078 28.4241C35.8203 28.2366 38.1328 28.1741 40.5078 28.1741C42.9453 28.1741 45.2578 28.2366 47.5078 28.4241C48.8828 30.4241 50.1328 32.4241 51.2578 34.4241C52.4453 36.4866 53.5703 38.6116 54.5703 40.6741C53.5078 42.7366 52.4453 44.7991 51.2578 46.9241ZM56.4453 44.8616C57.3828 47.0491 58.1328 49.1741 58.8203 51.2991C56.6953 51.7991 54.4453 52.1741 52.0703 52.4866C52.8203 51.2991 53.6328 50.0491 54.3203 48.7366C55.0703 47.4241 55.7578 46.1116 56.4453 44.8616ZM40.4453 61.7991C38.9453 60.1741 37.5078 58.4241 36.1328 56.6116C37.5703 56.6741 39.0078 56.7366 40.4453 56.7366C41.8828 56.7366 43.3203 56.6741 44.7578 56.6116C43.3828 58.4241 41.9453 60.1741 40.4453 61.7991ZM28.8203 52.4241C26.4453 52.1116 24.1953 51.7366 22.0703 51.2366C22.7578 49.1741 23.5078 46.9866 24.4453 44.7991C25.1328 46.0491 25.8203 47.3616 26.5703 48.6116C27.3203 49.9866 28.0703 51.1741 28.8203 52.4241ZM24.4453 36.4866C23.5078 34.2991 22.7578 32.1741 22.0703 30.0491C24.1953 29.5491 26.4453 29.1741 28.8203 28.8616C28.0703 30.0491 27.2578 31.2991 26.5703 32.6116C25.8203 33.9241 25.1328 35.2366 24.4453 36.4866ZM40.4453 19.5491C41.9453 21.1741 43.3828 22.9241 44.7578 24.7366C43.3203 24.6741 41.8828 24.6116 40.4453 24.6116C39.0078 24.6116 37.5703 24.6741 36.1328 24.7366C37.5078 22.9241 38.9453 21.1741 40.4453 19.5491ZM54.3203 32.6741L52.0703 28.9241C54.4453 29.2366 56.6953 29.6116 58.8203 30.1116C58.1328 32.1741 57.3828 34.3616 56.4453 36.5491C55.7578 35.2366 55.0703 33.9241 54.3203 32.6741ZM20.2578 22.5491C19.1953 15.9866 20.0703 11.3616 22.6328 9.86157C23.2578 9.48657 24.0078 9.29907 24.8203 9.29907C28.5703 9.29907 33.2578 12.3616 37.9453 16.9866C35.7578 19.3616 33.5703 22.1116 31.4453 25.1116C27.8203 25.4241 24.3828 25.9866 21.1328 26.6741C20.7578 25.2366 20.5078 23.8616 20.2578 22.5491ZM4.82031 40.6741C4.82031 37.7366 8.38281 34.6116 14.6328 32.2991C15.8828 31.7991 17.2578 31.3616 18.6328 30.9866C19.6328 34.1116 20.8828 37.4241 22.3828 40.7366C20.8828 44.0491 19.5703 47.2991 18.6328 50.4241C10.0078 47.9241 4.82031 44.1741 4.82031 40.6741ZM22.6328 71.4866C20.0703 69.9866 19.1953 65.3616 20.2578 58.7991C20.4453 57.4866 20.7578 56.1116 21.1328 54.6741C24.3828 55.4241 27.8203 55.9241 31.4453 56.2366C33.5703 59.2366 35.7578 61.9241 37.9453 64.3616C33.3203 68.9241 28.6328 72.0491 24.8203 72.0491C24.0078 72.0491 23.2578 71.8616 22.6328 71.4866ZM60.6328 58.7991C61.6953 65.3616 60.8203 69.9866 58.2578 71.4866C57.6328 71.8616 56.8828 72.0491 56.0703 72.0491C52.3203 72.0491 47.6328 68.9866 42.9453 64.3616C45.1328 61.9866 47.3203 59.2366 49.4453 56.2366C53.0703 55.9241 56.5078 55.3616 59.7578 54.6741C60.1328 56.1116 60.3828 57.4866 60.6328 58.7991ZM66.2578 49.0491C65.0078 49.5491 63.6328 49.9866 62.2578 50.3616C61.2578 47.2366 60.0078 43.9241 58.5078 40.6116C60.0078 37.2991 61.3203 34.0491 62.2578 30.9241C70.8828 33.4241 76.0703 37.1741 76.0703 40.6741C76.0703 43.6116 72.4453 46.7366 66.2578 49.0491Z" fill="#545454"/>
</svg>
