<svg width="81" height="113" viewBox="0 0 81 113" fill="none" xmlns="http://www.w3.org/2000/svg">
<path fill-rule="evenodd" clip-rule="evenodd" d="M1.31641 35.7716C1.31641 36.2109 1.44578 36.5009 1.51828 36.7828C1.99078 38.6159 3.00641 40.1891 4.21141 41.6241C5.92766 43.6691 8.02953 45.3153 10.1827 46.8634C12.0502 48.2059 13.9558 49.5184 15.8308 50.8509C16.1527 51.0797 16.457 51.3428 16.8064 51.6234C16.5058 51.7859 16.2558 51.9291 15.9958 52.0609C13.5214 53.3159 11.1408 54.7228 8.94641 56.4272C7.62391 57.4547 6.34516 58.5466 5.44203 59.9734C3.98891 62.2684 3.47453 64.7134 4.55766 67.3241C4.87391 68.0866 5.35641 68.7453 6.03703 69.2322C6.25766 69.3897 6.50516 69.5459 6.76328 69.6072C7.42453 69.7628 8.09828 69.8647 8.76766 69.9878L10.6633 69.9866C12.7595 69.7997 14.6677 69.0816 16.392 67.8916C19.087 66.0316 20.9027 63.5378 21.6833 60.3372C22.2508 58.0109 22.2739 55.6822 21.6052 53.3666C21.5412 53.152 21.4673 52.9406 21.3839 52.7328C21.3027 52.5247 21.207 52.3222 21.0945 52.0628L25.392 49.5916L25.4564 49.6466C25.3783 49.9022 25.2952 50.1572 25.2245 50.4153C24.7139 52.2803 24.3745 54.1778 24.4964 56.1134C24.6264 58.1759 25.202 60.1066 26.4095 61.8297C27.3858 63.2234 29.712 63.2753 30.7495 61.8766C31.1177 61.3797 31.4745 60.8603 31.7427 60.306C32.4433 58.8591 33.092 57.3866 33.7614 55.9241L33.8783 55.6566C33.8302 56.3491 33.7739 56.9572 33.7483 57.5659C33.7083 58.5166 33.7639 59.4616 34.0889 60.366C34.367 61.1397 34.8402 61.7178 35.7264 61.8197C36.3327 61.8891 36.8158 61.6116 37.2614 61.2597C37.9518 60.7141 38.524 60.0339 38.9433 59.2603C40.1314 57.0784 41.3514 54.9097 42.4283 52.6728C43.5933 50.2534 44.612 47.7634 45.6939 45.3028L45.8727 44.8666C46.1283 45.8709 46.3064 46.8547 46.6345 47.7859C47.0158 48.8666 47.4877 49.9216 48.0014 50.9472C48.2445 51.4316 48.2164 51.7459 47.8795 52.1522C46.4695 53.8522 45.0839 55.5728 43.697 57.2916C43.3902 57.6709 43.0845 58.0572 42.8289 58.4716C42.6738 58.7332 42.5719 59.0229 42.5289 59.3241C42.4859 59.6013 42.5519 59.8844 42.713 60.1141C42.8742 60.3437 43.118 60.5021 43.3933 60.5559C43.949 60.6756 44.5188 60.7162 45.0858 60.6766C47.0214 60.5341 48.7789 59.8547 50.3327 58.7034C52.3458 57.2122 52.992 55.1772 52.5045 52.7653C52.3727 52.1109 52.1395 51.4747 51.9127 50.8441C51.8108 50.5597 51.8039 50.3603 51.9895 50.0953C53.5989 47.7972 54.9739 45.3591 56.2527 42.8647C56.3033 42.7666 56.3552 42.6684 56.4439 42.5634C56.8583 44.7197 57.482 46.7978 58.5995 48.6834C58.0295 49.2328 57.4652 49.7309 56.9545 50.2797C55.8302 51.4884 54.8552 52.8009 54.3464 54.4016C54.1277 55.0916 53.9595 55.7928 54.057 56.5297C54.2083 57.6741 55.1458 58.4178 56.2714 58.1572C58.6802 57.5997 60.7595 56.4647 62.2789 54.4541C63.3014 53.1003 63.3945 51.5903 62.9664 50.0084C62.8489 49.5784 62.7095 49.1553 62.5595 48.6622C63.1539 48.4778 63.7333 48.2566 64.3327 48.1197C67.4445 47.4097 70.5227 47.5334 73.5214 48.6572C75.272 49.3134 76.6864 50.4116 77.5252 52.1391C78.5495 54.2509 77.9833 56.2547 75.9927 57.5897C75.807 57.7141 75.5945 57.8122 75.4408 57.9678C75.3915 58.0249 75.3547 58.0916 75.3326 58.1637C75.3106 58.2358 75.3038 58.3117 75.3127 58.3866C75.3258 58.4634 75.5289 58.5597 75.6458 58.5584C76.3002 58.5534 76.8308 58.2103 77.3402 57.8578C78.6164 56.9747 79.5477 55.7866 79.7483 54.2222L79.7877 54.1047L79.7395 53.0859C79.7202 53.0272 79.7539 52.9691 79.7495 52.9247C79.4783 50.6466 78.2614 48.8797 76.4914 47.4947C74.4414 45.8916 72.0208 45.2316 69.4608 45.1272C67.3845 45.0378 65.3109 45.357 63.3577 46.0666C62.797 46.2697 62.2414 46.5103 61.6777 46.7372C61.602 46.6003 61.5208 46.4691 61.4539 46.3334C60.8752 45.1484 60.1739 44.0159 60.0189 42.6572C59.9089 41.6922 59.7739 40.7284 60.0033 39.7741C60.2239 38.8559 60.5114 37.9534 60.782 37.0478C60.9214 36.5816 60.8233 36.3203 60.3783 36.1103C60.2232 36.033 60.0577 35.9787 59.887 35.9491C58.7933 35.7903 57.7145 35.8809 56.6552 36.1891C56.2802 36.2984 56.0077 36.5084 55.9245 36.9234C55.877 37.1616 55.7802 37.3897 55.7127 37.6247C55.4358 38.6016 55.2395 39.5972 54.792 40.5278C53.6708 42.8622 52.3908 45.1084 51.0808 47.3384C50.9389 47.5791 50.7895 47.8153 50.6108 48.1072C50.1508 47.1447 49.6602 46.2809 49.5114 45.2684C49.3433 44.1234 49.2108 42.9803 49.4958 41.8441C49.7077 40.9966 49.9845 40.1647 50.2395 39.3284C50.3602 38.9309 50.3045 38.7222 49.9445 38.5128C49.7627 38.4072 49.557 38.3134 49.352 38.2828C48.2305 38.112 47.0846 38.2057 46.0058 38.5566C45.6664 38.6666 45.4883 38.8859 45.3845 39.2359C45.0795 40.2684 44.8195 41.3259 44.3914 42.3078C42.6577 46.2828 40.8739 50.2372 39.092 54.1909C38.7202 55.0166 38.2845 55.8134 37.8652 56.6172C37.7589 56.8209 37.6039 57.0003 37.4714 57.1916C37.3652 57.0659 37.3239 56.9797 37.3245 56.8934C37.3277 56.3853 37.267 55.8622 37.3639 55.3709C37.6614 53.8852 37.9902 52.4059 38.3502 50.9341C38.6439 49.7178 38.9858 48.5128 39.3114 47.3047C39.4208 46.9003 39.4227 46.5222 39.132 46.1822C38.6439 45.6128 37.6239 45.4878 37.0189 45.9266L36.7514 46.0778L36.8033 45.6466C36.9308 44.7222 36.9564 43.8009 36.7027 42.8903C36.3864 41.7553 35.5764 41.1022 34.3989 41.1384C33.8502 41.1553 33.2739 41.2491 32.7658 41.4491C30.6289 42.2866 28.9858 43.7697 27.587 45.5541C27.4574 45.7197 27.2967 45.8586 27.1139 45.9628C25.3058 46.9653 23.492 47.9553 21.6789 48.9491L19.6608 50.0547C19.1195 49.5384 18.6277 49.0028 18.0695 48.5484C16.3652 47.1584 14.6333 45.8028 12.917 44.4285C11.3958 43.2103 9.92203 41.9416 8.79453 40.3284C7.95578 39.1284 7.41516 37.8153 7.36328 36.3316C7.29766 34.4409 7.83391 32.7134 8.79641 31.1053C10.0277 29.0478 11.707 27.3966 13.5533 25.9009C15.5064 24.3197 17.6189 22.9772 19.8083 21.7516C22.8714 20.0372 26.022 18.5197 29.4002 17.5178C32.8639 16.4903 36.3783 15.9022 40.0033 16.3122C41.4283 16.4734 42.812 16.7997 44.0827 17.4966C45.0558 18.0297 45.8539 18.7278 46.2252 19.8191C46.5914 20.8928 46.5802 21.9809 46.3264 23.0716C45.8108 25.2803 44.6014 27.1009 43.0795 28.7278C40.5833 31.3947 37.5383 33.2103 34.1102 34.4097C32.1391 35.1002 30.0883 35.5377 28.007 35.7116C26.3014 35.8547 24.6314 35.7034 23.0164 35.1103C21.947 34.7172 21.0158 34.1159 20.267 33.2434C20.1333 33.0872 19.962 32.9178 19.7127 33.0641C19.4683 33.2078 19.4252 33.4403 19.507 33.6759C19.6439 34.0672 19.7702 34.4747 19.9833 34.8247C20.5189 35.7028 21.3002 36.3397 22.1602 36.8859C23.812 37.9366 25.6583 38.2897 27.5727 38.3716C30.4777 38.4972 33.312 38.0634 36.1064 37.2841C40.0958 36.1716 43.5645 34.2066 46.3464 31.1066C48.6627 28.5253 50.317 25.6122 50.6714 22.0947C50.8445 20.3778 50.6602 18.6959 49.8564 17.1297C48.9845 15.4328 47.5983 14.1709 45.9408 13.3016C43.527 12.0359 40.922 11.2991 38.2333 11.2991H35.5395C32.2833 11.2991 29.1352 12.2322 26.0752 13.3453C23.7589 14.1884 21.4877 15.1834 19.2827 16.2847C14.4808 18.6841 10.0089 21.5772 6.33578 25.5553C4.50578 27.5372 2.95641 29.7241 2.06516 32.2991C1.79616 33.0679 1.56443 33.8492 1.37078 34.6403M18.7702 57.1484C18.562 59.9353 17.2989 62.1947 15.2345 64.0247C14.0733 65.0534 12.7414 65.7859 11.1902 66.0434C10.6277 66.1366 10.052 66.1591 9.50641 65.9259C8.72828 65.5934 8.55391 64.9028 8.53891 64.1672C8.51578 62.9947 8.92641 61.9347 9.48953 60.9259C10.2245 59.6109 11.302 58.6084 12.4527 57.6722C14.2652 56.1966 16.2314 54.9478 18.2452 53.7691L18.397 53.7066C18.7083 54.8566 18.8564 55.9922 18.7702 57.1484ZM34.4939 45.0366C34.347 45.9266 34.1633 46.8172 33.9033 47.6797C33.0045 50.6653 31.8502 53.5584 30.602 56.4128C30.3714 56.9409 30.0358 57.4228 29.7439 57.9234C29.6943 58.0004 29.6348 58.0706 29.567 58.1322C29.2058 58.4891 28.8633 58.4703 28.6808 58.0034C28.4683 57.4609 28.3377 56.8803 28.2252 56.3059C28.1495 55.9203 28.1677 55.5153 28.1439 55.1203C28.1683 52.3116 29.0252 49.7591 30.4789 47.3828C31.0783 46.4028 31.7308 45.4691 32.7277 44.8491C33.0378 44.6563 33.3733 44.5077 33.7245 44.4078C34.2558 44.2584 34.582 44.5041 34.4939 45.0366ZM45.2214 58.7041L49.077 54.2022C49.2377 55.8741 46.3958 59.2116 45.2214 58.7041ZM57.5358 55.6747C57.2633 55.8309 56.9664 55.9434 56.687 56.0878C56.4314 56.2203 56.347 56.0866 56.3395 55.8666C56.3358 55.7143 56.3554 55.5623 56.3977 55.4159C56.9183 53.5797 57.8764 52.0122 59.302 50.7372L59.402 50.6859C60.0802 52.5828 59.2964 54.6659 57.5358 55.6747Z" fill="#545454"/>
</svg>
