<svg width="1437" height="145" viewBox="0 0 1437 145" fill="none" xmlns="http://www.w3.org/2000/svg">
<g opacity="0.8">
<path d="M85.6445 17.9241L91.8977 87.9822L119.958 95.7328L148.095 87.9909L154.355 17.9241H85.6445ZM141.348 34.5109L140.956 38.9934L140.784 41.0491H107.868L108.654 49.7991H140.001L139.791 51.9684L137.771 74.5428L137.622 75.9616L120 80.8047V80.8059L119.978 80.8172L102.368 76.1778L101.172 62.9241H109.806L110.418 69.7484L119.973 72.2991H120V71.9578L129.596 69.5359L130.599 58.5491H100.788L98.6733 34.7259L98.4677 32.2991H141.555L141.348 34.5109Z" fill="#545454"/>
<path d="M216.252 17.2991L222.536 87.8509L250.735 95.7134L279.013 87.8222L285.302 17.2991H216.252ZM272.246 33.4628L270.154 56.9659L270.161 57.0928L270.152 57.3847V57.3822L268.666 73.8159L268.502 75.2759L250.777 80.1784L250.763 80.1909L233.069 75.2609L231.871 61.6741H240.548L241.163 68.5828L250.779 71.1891L250.777 71.1941V71.1928L260.429 68.5497L261.449 57.2991H241.272L241.099 55.3972L240.704 50.9416L240.498 48.5491H262.216L263.006 39.7991H229.927L229.754 37.8984L229.36 33.4416L229.153 31.0491H272.453L272.246 33.4628Z" fill="#545454"/>
<path fill-rule="evenodd" clip-rule="evenodd" d="M342.316 51.7716C342.316 52.2109 342.446 52.5009 342.518 52.7828C342.991 54.6159 344.006 56.1891 345.211 57.6241C346.928 59.6691 349.03 61.3153 351.183 62.8634C353.05 64.2059 354.956 65.5184 356.831 66.8509C357.153 67.0797 357.457 67.3428 357.806 67.6234C357.506 67.7859 357.256 67.9291 356.996 68.0609C354.521 69.3159 352.141 70.7228 349.946 72.4272C348.624 73.4547 347.345 74.5466 346.442 75.9734C344.989 78.2684 344.475 80.7134 345.558 83.3241C345.874 84.0866 346.356 84.7453 347.037 85.2322C347.258 85.3897 347.505 85.5459 347.763 85.6072C348.425 85.7628 349.098 85.8647 349.768 85.9878L351.663 85.9866C353.76 85.7997 355.668 85.0816 357.392 83.8916C360.087 82.0316 361.903 79.5378 362.683 76.3372C363.251 74.0109 363.274 71.6822 362.605 69.3666C362.541 69.152 362.467 68.9406 362.384 68.7328C362.303 68.5247 362.207 68.3222 362.095 68.0628L366.392 65.5916L366.456 65.6466C366.378 65.9022 366.295 66.1572 366.225 66.4153C365.714 68.2803 365.375 70.1778 365.496 72.1134C365.626 74.1759 366.202 76.1066 367.41 77.8297C368.386 79.2234 370.712 79.2753 371.75 77.8766C372.118 77.3797 372.475 76.8603 372.743 76.306C373.443 74.8591 374.092 73.3866 374.761 71.9241L374.878 71.6566C374.83 72.3491 374.774 72.9572 374.748 73.5659C374.708 74.5166 374.764 75.4616 375.089 76.366C375.367 77.1397 375.84 77.7178 376.726 77.8197C377.333 77.8891 377.816 77.6116 378.261 77.2597C378.952 76.7141 379.524 76.0339 379.943 75.2603C381.131 73.0784 382.351 70.9097 383.428 68.6728C384.593 66.2534 385.612 63.7634 386.694 61.3028L386.873 60.8666C387.128 61.8709 387.306 62.8547 387.635 63.7859C388.016 64.8666 388.488 65.9216 389.001 66.9472C389.245 67.4316 389.216 67.7459 388.88 68.1522C387.47 69.8522 386.084 71.5728 384.697 73.2916C384.39 73.6709 384.085 74.0572 383.829 74.4716C383.674 74.7332 383.572 75.0229 383.529 75.3241C383.486 75.6013 383.552 75.8844 383.713 76.1141C383.874 76.3437 384.118 76.5021 384.393 76.5559C384.949 76.6756 385.519 76.7162 386.086 76.6766C388.021 76.5341 389.779 75.8547 391.333 74.7034C393.346 73.2122 393.992 71.1772 393.505 68.7653C393.373 68.1109 393.14 67.4747 392.913 66.8441C392.811 66.5597 392.804 66.3603 392.99 66.0953C394.599 63.7972 395.974 61.3591 397.253 58.8647C397.303 58.7666 397.355 58.6684 397.444 58.5634C397.858 60.7197 398.482 62.7978 399.6 64.6834C399.03 65.2328 398.465 65.7309 397.955 66.2797C396.83 67.4884 395.855 68.8009 395.346 70.4016C395.128 71.0916 394.96 71.7928 395.057 72.5297C395.208 73.6741 396.146 74.4178 397.271 74.1572C399.68 73.5997 401.76 72.4647 403.279 70.4541C404.301 69.1003 404.395 67.5903 403.966 66.0084C403.849 65.5784 403.71 65.1553 403.56 64.6622C404.154 64.4778 404.733 64.2566 405.333 64.1197C408.445 63.4097 411.523 63.5334 414.521 64.6572C416.272 65.3134 417.686 66.4116 418.525 68.1391C419.55 70.2509 418.983 72.2547 416.993 73.5897C416.807 73.7141 416.595 73.8122 416.441 73.9678C416.392 74.0249 416.355 74.0916 416.333 74.1637C416.311 74.2358 416.304 74.3117 416.313 74.3866C416.326 74.4634 416.529 74.5597 416.646 74.5584C417.3 74.5534 417.831 74.2103 418.34 73.8578C419.616 72.9747 420.548 71.7866 420.748 70.2222L420.788 70.1047L420.74 69.0859C420.72 69.0272 420.754 68.9691 420.75 68.9247C420.478 66.6466 419.261 64.8797 417.491 63.4947C415.441 61.8916 413.021 61.2316 410.461 61.1272C408.385 61.0378 406.311 61.357 404.358 62.0666C403.797 62.2697 403.241 62.5103 402.678 62.7372C402.602 62.6003 402.521 62.4691 402.454 62.3334C401.875 61.1484 401.174 60.0159 401.019 58.6572C400.909 57.6922 400.774 56.7284 401.003 55.7741C401.224 54.8559 401.511 53.9534 401.782 53.0478C401.921 52.5816 401.823 52.3203 401.378 52.1103C401.223 52.033 401.058 51.9787 400.887 51.9491C399.793 51.7903 398.715 51.8809 397.655 52.1891C397.28 52.2984 397.008 52.5084 396.925 52.9234C396.877 53.1616 396.78 53.3897 396.713 53.6247C396.436 54.6016 396.24 55.5972 395.792 56.5278C394.671 58.8622 393.391 61.1084 392.081 63.3384C391.939 63.5791 391.79 63.8153 391.611 64.1072C391.151 63.1447 390.66 62.2809 390.511 61.2684C390.343 60.1234 390.211 58.9803 390.496 57.8441C390.708 56.9966 390.985 56.1647 391.24 55.3284C391.36 54.9309 391.305 54.7222 390.945 54.5128C390.763 54.4072 390.557 54.3134 390.352 54.2828C389.231 54.112 388.085 54.2057 387.006 54.5566C386.666 54.6666 386.488 54.8859 386.385 55.2359C386.08 56.2684 385.82 57.3259 385.391 58.3078C383.658 62.2828 381.874 66.2372 380.092 70.1909C379.72 71.0166 379.285 71.8134 378.865 72.6172C378.759 72.8209 378.604 73.0003 378.471 73.1916C378.365 73.0659 378.324 72.9797 378.325 72.8934C378.328 72.3853 378.267 71.8622 378.364 71.3709C378.661 69.8852 378.99 68.4059 379.35 66.9341C379.644 65.7178 379.986 64.5128 380.311 63.3047C380.421 62.9003 380.423 62.5222 380.132 62.1822C379.644 61.6128 378.624 61.4878 378.019 61.9266L377.751 62.0778L377.803 61.6466C377.931 60.7222 377.956 59.8009 377.703 58.8903C377.386 57.7553 376.576 57.1022 375.399 57.1384C374.85 57.1553 374.274 57.2491 373.766 57.4491C371.629 58.2866 369.986 59.7697 368.587 61.5541C368.457 61.7197 368.297 61.8586 368.114 61.9628C366.306 62.9653 364.492 63.9553 362.679 64.9491L360.661 66.0547C360.12 65.5384 359.628 65.0028 359.07 64.5484C357.365 63.1584 355.633 61.8028 353.917 60.4285C352.396 59.2103 350.922 57.9416 349.795 56.3284C348.956 55.1284 348.415 53.8153 348.363 52.3316C348.298 50.4409 348.834 48.7134 349.796 47.1053C351.028 45.0478 352.707 43.3966 354.553 41.9009C356.506 40.3197 358.619 38.9772 360.808 37.7516C363.871 36.0372 367.022 34.5197 370.4 33.5178C373.864 32.4903 377.378 31.9022 381.003 32.3122C382.428 32.4734 383.812 32.7997 385.083 33.4966C386.056 34.0297 386.854 34.7278 387.225 35.8191C387.591 36.8928 387.58 37.9809 387.326 39.0716C386.811 41.2803 385.601 43.1009 384.08 44.7278C381.583 47.3947 378.538 49.2103 375.11 50.4097C373.139 51.1002 371.088 51.5377 369.007 51.7116C367.301 51.8547 365.631 51.7034 364.016 51.1103C362.947 50.7172 362.016 50.1159 361.267 49.2434C361.133 49.0872 360.962 48.9178 360.713 49.0641C360.468 49.2078 360.425 49.4403 360.507 49.6759C360.644 50.0672 360.77 50.4747 360.983 50.8247C361.519 51.7028 362.3 52.3397 363.16 52.8859C364.812 53.9366 366.658 54.2897 368.573 54.3716C371.478 54.4972 374.312 54.0634 377.106 53.2841C381.096 52.1716 384.565 50.2066 387.346 47.1066C389.663 44.5253 391.317 41.6122 391.671 38.0947C391.845 36.3778 391.66 34.6959 390.856 33.1297C389.985 31.4328 388.598 30.1709 386.941 29.3016C384.527 28.0359 381.922 27.2991 379.233 27.2991H376.54C373.283 27.2991 370.135 28.2322 367.075 29.3453C364.759 30.1884 362.488 31.1834 360.283 32.2847C355.481 34.6841 351.009 37.5772 347.336 41.5553C345.506 43.5372 343.956 45.7241 343.065 48.2991C342.796 49.0679 342.564 49.8492 342.371 50.6403M359.77 73.1484C359.562 75.9353 358.299 78.1947 356.235 80.0247C355.073 81.0534 353.741 81.7859 352.19 82.0434C351.628 82.1366 351.052 82.1591 350.506 81.9259C349.728 81.5934 349.554 80.9028 349.539 80.1672C349.516 78.9947 349.926 77.9347 350.49 76.9259C351.225 75.6109 352.302 74.6084 353.453 73.6722C355.265 72.1966 357.231 70.9478 359.245 69.7691L359.397 69.7066C359.708 70.8566 359.856 71.9922 359.77 73.1484ZM375.494 61.0366C375.347 61.9266 375.163 62.8172 374.903 63.6797C374.005 66.6653 372.85 69.5584 371.602 72.4128C371.371 72.9409 371.036 73.4228 370.744 73.9234C370.694 74.0004 370.635 74.0706 370.567 74.1322C370.206 74.4891 369.863 74.4703 369.681 74.0034C369.468 73.4609 369.338 72.8803 369.225 72.3059C369.15 71.9203 369.168 71.5153 369.144 71.1203C369.168 68.3116 370.025 65.7591 371.479 63.3828C372.078 62.4028 372.731 61.4691 373.728 60.8491C374.038 60.6563 374.373 60.5077 374.725 60.4078C375.256 60.2584 375.582 60.5041 375.494 61.0366ZM386.221 74.7041L390.077 70.2022C390.238 71.8741 387.396 75.2116 386.221 74.7041ZM398.536 71.6747C398.263 71.8309 397.966 71.9434 397.687 72.0878C397.431 72.2203 397.347 72.0866 397.34 71.8666C397.336 71.7143 397.355 71.5623 397.398 71.4159C397.918 69.5797 398.876 68.0122 400.302 66.7372L400.402 66.6859C401.08 68.5828 400.296 70.6659 398.536 71.6747Z" fill="#545454"/>
<g clip-path="url(#clip0_107_2352)">
<path d="M500.771 97.2991C508.209 97.2991 514.209 91.2991 514.209 83.8616V70.4241H500.771C493.334 70.4241 487.334 76.4241 487.334 83.8616C487.334 91.2991 493.334 97.2991 500.771 97.2991Z" fill="#545454"/>
<path d="M487.334 56.9866C487.334 49.5491 493.334 43.5491 500.771 43.5491H514.209V70.4241H500.771C493.334 70.4241 487.334 64.4241 487.334 56.9866Z" fill="#545454"/>
<path d="M487.334 30.1116C487.334 22.6741 493.334 16.6741 500.771 16.6741H514.209V43.5491H500.771C493.334 43.5491 487.334 37.5491 487.334 30.1116Z" fill="#545454"/>
<path d="M514.209 16.6741H527.646C535.084 16.6741 541.084 22.6741 541.084 30.1116C541.084 37.5491 535.084 43.5491 527.646 43.5491H514.209V16.6741Z" fill="#545454"/>
<path d="M541.084 56.9866C541.084 64.4241 535.084 70.4241 527.646 70.4241C520.209 70.4241 514.209 64.4241 514.209 56.9866C514.209 49.5491 520.209 43.5491 527.646 43.5491C535.084 43.5491 541.084 49.5491 541.084 56.9866Z" fill="#545454"/>
</g>
<g clip-path="url(#clip1_107_2352)">
<path d="M681.071 53.1604L646.623 18.7141C644.641 16.7304 641.423 16.7304 639.438 18.7141L632.285 25.8679L641.359 34.9416C643.468 34.2298 645.886 34.7073 647.567 36.3879C649.256 38.0791 649.73 40.5173 649 42.6335L657.745 51.3791C659.861 50.6498 662.303 51.121 663.992 52.8135C666.354 55.1741 666.354 59.001 663.992 61.3629C663.43 61.9246 662.764 62.3702 662.03 62.6742C661.296 62.9782 660.51 63.1346 659.716 63.1346C658.922 63.1346 658.135 62.9782 657.401 62.6742C656.668 62.3702 656.001 61.9246 655.44 61.3629C654.596 60.5189 654.021 59.4442 653.787 58.2741C653.553 57.104 653.67 55.8908 654.124 54.7873L645.969 46.6323L645.968 68.0954C646.56 68.3868 647.1 68.7727 647.567 69.2379C649.928 71.5985 649.928 75.4241 647.567 77.7898C645.205 80.1504 641.377 80.1504 639.018 77.7898C636.657 75.4248 636.657 71.5991 639.018 69.2379C639.584 68.6713 640.256 68.223 640.997 67.9191V46.2573C640.256 45.9543 639.583 45.5056 639.018 44.9379C637.229 43.1504 636.798 40.5254 637.716 38.3279L628.77 29.3823L605.15 53.001C604.197 53.9542 603.662 55.2469 603.662 56.5948C603.662 57.9426 604.197 59.2353 605.15 60.1885L639.598 94.6348C641.582 96.6185 644.798 96.6185 646.785 94.6348L681.072 60.3485C682.024 59.395 682.559 58.1022 682.559 56.7543C682.559 55.4064 682.024 54.1137 681.071 53.1604Z" fill="#545454"/>
</g>
<path fill-rule="evenodd" clip-rule="evenodd" d="M773.889 19.8635C753.047 19.8635 736.146 36.7604 736.146 57.606C736.146 74.2823 746.961 88.4291 761.957 93.4204C763.843 93.7704 764.535 92.6016 764.535 91.6048C764.535 90.7048 764.5 87.7317 764.484 84.5779C753.984 86.861 751.768 80.1248 751.768 80.1248C750.051 75.7623 747.578 74.6023 747.578 74.6023C744.153 72.2598 747.836 72.3085 747.836 72.3085C751.625 72.5741 753.621 76.1979 753.621 76.1979C756.988 81.9666 762.451 80.2991 764.605 79.3354C764.943 76.896 765.921 75.2304 767.001 74.2879C758.618 73.3348 749.805 70.0979 749.805 55.636C749.805 51.5154 751.28 48.1485 753.694 45.5048C753.301 44.5548 752.01 40.716 754.059 35.5173C754.059 35.5173 757.228 34.5029 764.44 39.386C767.451 38.5491 770.681 38.1285 773.889 38.1141C777.095 38.1285 780.326 38.5479 783.343 39.3848C790.547 34.5016 793.712 35.516 793.712 35.516C795.766 40.7141 794.475 44.5535 794.083 45.5035C796.503 48.1473 797.967 51.5141 797.967 55.6348C797.967 70.131 789.138 73.3223 780.733 74.2573C782.088 75.4285 783.294 77.726 783.294 81.2466C783.294 86.2966 783.25 90.361 783.25 91.6041C783.25 92.6085 783.93 93.7854 785.843 93.4148C800.83 88.4185 811.632 74.276 811.632 57.606C811.631 36.7616 794.733 19.8635 773.889 19.8635Z" fill="#545454"/>
<path d="M750.441 74.0528C750.358 74.2403 750.063 74.2966 749.794 74.1685C749.519 74.046 749.366 73.7903 749.455 73.6022C749.536 73.4085 749.832 73.3553 750.105 73.4847C750.38 73.6078 750.536 73.866 750.441 74.0535L750.441 74.0528ZM751.97 75.7585C751.791 75.9253 751.439 75.8478 751.2 75.5835C750.952 75.321 750.906 74.9691 751.089 74.7997C751.276 74.6335 751.617 74.7122 751.864 74.9747C752.111 75.241 752.159 75.5897 751.971 75.7591L751.97 75.7585ZM753.459 77.9316C753.227 78.0928 752.849 77.9422 752.615 77.6066C752.384 77.2703 752.384 76.8672 752.621 76.7066C752.854 76.5453 753.227 76.691 753.465 77.0235C753.695 77.3641 753.695 77.7678 753.459 77.9316ZM755.497 80.0322C755.291 80.2603 754.849 80.1991 754.527 79.8885C754.197 79.5841 754.106 79.151 754.312 78.9235C754.522 78.6947 754.966 78.7585 755.29 79.0672C755.619 79.371 755.719 79.8047 755.498 80.0316L755.497 80.0322ZM758.309 81.2516C758.217 81.5472 757.794 81.6816 757.366 81.5553C756.939 81.426 756.659 81.0803 756.747 80.7816C756.834 80.4835 757.261 80.3441 757.692 80.4785C758.119 80.6072 758.398 80.951 758.309 81.2516ZM761.399 81.4772C761.409 81.7885 761.047 82.046 760.599 82.0522C760.147 82.0628 759.781 81.8103 759.777 81.5041C759.777 81.1897 760.132 80.9353 760.583 80.9266C761.031 80.9185 761.399 81.1685 761.399 81.4766L761.399 81.4772ZM764.272 80.9885C764.326 81.2916 764.014 81.6035 763.569 81.6866C763.131 81.7678 762.725 81.5791 762.669 81.2785C762.615 80.9672 762.932 80.6553 763.37 80.5747C763.816 80.4978 764.216 80.6803 764.272 80.9885Z" fill="#545454"/>
<g clip-path="url(#clip2_107_2352)">
<path d="M875.916 17.2991V95.4241H954.041V17.2991H875.916ZM917.24 83.8697C916.087 86.2128 913.886 87.7522 911.335 88.4953C907.416 89.3953 903.667 88.8822 900.879 87.2085C899.012 86.0634 897.555 84.3009 896.565 82.2703L902.515 78.6266C902.567 78.6484 902.724 78.9309 902.932 79.2959C903.691 80.5672 904.345 81.4672 905.632 82.0991C906.895 82.5303 909.67 82.8059 910.741 80.5822C911.395 79.4509 911.187 75.8147 911.187 71.7916C911.187 65.4697 911.216 59.1741 911.216 52.9241H918.534C918.534 59.7991 918.572 66.3103 918.534 73.0191C918.55 77.1316 918.907 80.7978 917.24 83.8697ZM947.599 81.8022C945.055 90.5034 930.873 90.7859 925.205 85.0372C924.008 83.6841 923.257 82.9772 922.543 81.4153C925.555 79.6828 925.555 79.6828 928.485 77.9872C930.077 80.4341 931.549 81.7797 934.197 82.3303C937.79 82.7691 941.404 81.5347 940.594 77.7191C939.76 74.6028 933.237 73.8447 928.798 70.5122C924.291 67.4853 923.235 60.1303 926.939 55.9278C928.173 54.3734 930.278 53.2134 932.487 52.6559L934.792 52.3578C939.217 52.2684 941.984 53.4372 944.014 55.7047C944.579 56.2772 945.04 56.8947 945.903 58.2328C943.545 59.7353 943.553 59.7209 940.176 61.9072C939.455 60.3534 938.258 59.3784 936.993 58.9547C935.029 58.3597 932.553 59.0066 932.039 61.0816C931.861 61.7209 931.898 62.3159 932.181 63.3722C932.977 65.1866 935.647 65.9753 938.042 67.0759C944.936 69.8722 947.264 72.8703 947.837 76.4391C948.388 79.5116 947.704 81.5047 947.599 81.8022Z" fill="#545454"/>
</g>
<path d="M1055.45 63.7991C1059.38 63.7991 1062.57 60.6091 1062.57 56.6741C1062.57 52.739 1059.38 49.5491 1055.45 49.5491C1051.51 49.5491 1048.32 52.739 1048.32 56.6741C1048.32 60.6091 1051.51 63.7991 1055.45 63.7991Z" fill="#545454"/>
<path d="M1082.51 44.9241C1081.13 44.4241 1079.7 43.9241 1078.2 43.4866C1078.57 41.9866 1078.88 40.4866 1079.13 39.0491C1080.45 30.7991 1079.01 24.9866 1075.01 22.7366C1073.82 22.0491 1072.51 21.7366 1071.01 21.7366C1066.63 21.7366 1061.07 24.9866 1055.45 30.4241C1049.82 24.9866 1044.26 21.7366 1039.88 21.7366C1038.38 21.7366 1037.07 22.0491 1035.88 22.7366C1031.88 25.0491 1030.45 30.8616 1031.76 39.0491C1032.01 40.4866 1032.32 41.9866 1032.7 43.4866C1031.2 43.9241 1029.76 44.3616 1028.38 44.9241C1020.57 47.9241 1016.32 52.0491 1016.32 56.6741C1016.32 61.2991 1020.63 65.4241 1028.38 68.4241C1029.76 68.9241 1031.2 69.4241 1032.7 69.8616C1032.32 71.3616 1032.01 72.8616 1031.76 74.2991C1030.45 82.5491 1031.88 88.3616 1035.88 90.6116C1037.07 91.2991 1038.38 91.6116 1039.88 91.6116C1044.32 91.6116 1049.88 88.3616 1055.45 82.9241C1061.07 88.3616 1066.63 91.6116 1071.01 91.6116C1072.51 91.6116 1073.82 91.2991 1075.01 90.6116C1079.01 88.2991 1080.45 82.4866 1079.13 74.2991C1078.88 72.8616 1078.57 71.3616 1078.2 69.8616C1079.7 69.4241 1081.13 68.9866 1082.51 68.4241C1090.32 65.4241 1094.57 61.2991 1094.57 56.6741C1094.57 52.0491 1090.32 47.9241 1082.51 44.9241ZM1073.26 25.8616C1075.82 27.3616 1076.7 31.9866 1075.63 38.5491C1075.45 39.8616 1075.13 41.2366 1074.76 42.6741C1071.51 41.9241 1068.07 41.4241 1064.45 41.1116C1062.32 38.1116 1060.13 35.4241 1057.95 32.9866C1062.57 28.4241 1067.26 25.2991 1071.07 25.2991C1071.88 25.2991 1072.63 25.4866 1073.26 25.8616ZM1066.26 62.9241C1065.13 64.9241 1063.82 66.9241 1062.45 68.9241C1060.13 69.1116 1057.82 69.1741 1055.45 69.1741C1053.01 69.1741 1050.7 69.1116 1048.45 68.9241C1047.07 66.9241 1045.82 64.9241 1044.7 62.9241C1043.51 60.8616 1042.38 58.7366 1041.38 56.6741C1042.38 54.6116 1043.51 52.4866 1044.7 50.4241C1045.82 48.4241 1047.13 46.4241 1048.51 44.4241C1050.82 44.2366 1053.13 44.1741 1055.51 44.1741C1057.95 44.1741 1060.26 44.2366 1062.51 44.4241C1063.88 46.4241 1065.13 48.4241 1066.26 50.4241C1067.45 52.4866 1068.57 54.6116 1069.57 56.6741C1068.51 58.7366 1067.45 60.7991 1066.26 62.9241ZM1071.45 60.8616C1072.38 63.0491 1073.13 65.1741 1073.82 67.2991C1071.7 67.7991 1069.45 68.1741 1067.07 68.4866C1067.82 67.2991 1068.63 66.0491 1069.32 64.7366C1070.07 63.4241 1070.76 62.1116 1071.45 60.8616ZM1055.45 77.7991C1053.95 76.1741 1052.51 74.4241 1051.13 72.6116C1052.57 72.6741 1054.01 72.7366 1055.45 72.7366C1056.88 72.7366 1058.32 72.6741 1059.76 72.6116C1058.38 74.4241 1056.95 76.1741 1055.45 77.7991ZM1043.82 68.4241C1041.45 68.1116 1039.2 67.7366 1037.07 67.2366C1037.76 65.1741 1038.51 62.9866 1039.45 60.7991C1040.13 62.0491 1040.82 63.3616 1041.57 64.6116C1042.32 65.9866 1043.07 67.1741 1043.82 68.4241ZM1039.45 52.4866C1038.51 50.2991 1037.76 48.1741 1037.07 46.0491C1039.2 45.5491 1041.45 45.1741 1043.82 44.8616C1043.07 46.0491 1042.26 47.2991 1041.57 48.6116C1040.82 49.9241 1040.13 51.2366 1039.45 52.4866ZM1055.45 35.5491C1056.95 37.1741 1058.38 38.9241 1059.76 40.7366C1058.32 40.6741 1056.88 40.6116 1055.45 40.6116C1054.01 40.6116 1052.57 40.6741 1051.13 40.7366C1052.51 38.9241 1053.95 37.1741 1055.45 35.5491ZM1069.32 48.6741L1067.07 44.9241C1069.45 45.2366 1071.7 45.6116 1073.82 46.1116C1073.13 48.1741 1072.38 50.3616 1071.45 52.5491C1070.76 51.2366 1070.07 49.9241 1069.32 48.6741ZM1035.26 38.5491C1034.2 31.9866 1035.07 27.3616 1037.63 25.8616C1038.26 25.4866 1039.01 25.2991 1039.82 25.2991C1043.57 25.2991 1048.26 28.3616 1052.95 32.9866C1050.76 35.3616 1048.57 38.1116 1046.45 41.1116C1042.82 41.4241 1039.38 41.9866 1036.13 42.6741C1035.76 41.2366 1035.51 39.8616 1035.26 38.5491ZM1019.82 56.6741C1019.82 53.7366 1023.38 50.6116 1029.63 48.2991C1030.88 47.7991 1032.26 47.3616 1033.63 46.9866C1034.63 50.1116 1035.88 53.4241 1037.38 56.7366C1035.88 60.0491 1034.57 63.2991 1033.63 66.4241C1025.01 63.9241 1019.82 60.1741 1019.82 56.6741ZM1037.63 87.4866C1035.07 85.9866 1034.2 81.3616 1035.26 74.7991C1035.45 73.4866 1035.76 72.1116 1036.13 70.6741C1039.38 71.4241 1042.82 71.9241 1046.45 72.2366C1048.57 75.2366 1050.76 77.9241 1052.95 80.3616C1048.32 84.9241 1043.63 88.0491 1039.82 88.0491C1039.01 88.0491 1038.26 87.8616 1037.63 87.4866ZM1075.63 74.7991C1076.7 81.3616 1075.82 85.9866 1073.26 87.4866C1072.63 87.8616 1071.88 88.0491 1071.07 88.0491C1067.32 88.0491 1062.63 84.9866 1057.95 80.3616C1060.13 77.9866 1062.32 75.2366 1064.45 72.2366C1068.07 71.9241 1071.51 71.3616 1074.76 70.6741C1075.13 72.1116 1075.38 73.4866 1075.63 74.7991ZM1081.26 65.0491C1080.01 65.5491 1078.63 65.9866 1077.26 66.3616C1076.26 63.2366 1075.01 59.9241 1073.51 56.6116C1075.01 53.2991 1076.32 50.0491 1077.26 46.9241C1085.88 49.4241 1091.07 53.1741 1091.07 56.6741C1091.07 59.6116 1087.45 62.7366 1081.26 65.0491Z" fill="#545454"/>
<path d="M1163.32 66.999L1169.99 24.224C1170.22 22.7678 1172.18 22.4178 1172.87 23.724L1180.04 37.149L1163.32 66.999ZM1210.78 77.3928L1204.41 37.9928C1204.22 36.7678 1202.68 36.2678 1201.8 37.149L1161.67 77.3928L1183.88 89.8615C1184.57 90.2397 1185.34 90.4381 1186.12 90.4381C1186.91 90.4381 1187.68 90.2397 1188.37 89.8615L1210.78 77.3928ZM1192.75 43.0178L1187.6 33.2365C1187.03 32.124 1185.45 32.124 1184.88 33.2365L1162.28 73.5178L1192.75 43.0178Z" fill="#545454"/>
<path d="M1347.42 35.6328L1319.83 19.6297C1318.1 18.6397 1315.82 18.6397 1314.07 19.6297L1286.26 35.6328C1284.47 36.6647 1283.25 38.6041 1283.25 40.6785V72.6422C1283.25 74.7166 1284.5 76.6566 1286.29 77.6941L1293.62 81.8741C1297.14 83.6066 1298.11 83.6066 1299.71 83.6066C1304.92 83.6066 1307.62 80.4572 1307.62 74.9641V43.4078C1307.62 42.9622 1307.9 42.2991 1307.47 42.2991H1303.95C1303.51 42.2991 1302.62 42.9622 1302.62 43.4072V74.9635C1302.62 77.3985 1300.36 79.8216 1296.25 77.7635L1288.67 73.3803C1288.41 73.2366 1288.25 72.9472 1288.25 72.6422V40.6785C1288.25 40.3772 1288.54 40.0747 1288.81 39.9203L1316.54 23.9447C1316.68 23.8724 1316.83 23.8345 1316.99 23.8345C1317.14 23.8345 1317.29 23.8724 1317.43 23.9447L1344.9 39.9166C1345.17 40.0747 1345.13 40.3678 1345.13 40.6785V72.6422C1345.13 72.9472 1345.18 73.2441 1344.92 73.391L1317.34 89.3759C1317.1 89.5178 1316.8 89.5178 1316.54 89.3759L1309.46 85.1578C1309.25 85.0341 1308.99 84.9897 1308.79 85.1041C1306.82 86.2185 1306.46 86.3666 1304.61 87.006C1304.16 87.1641 1303.49 87.4384 1304.87 88.2116L1314.12 93.6828C1315 94.1929 1316 94.4615 1317.02 94.4616C1318.05 94.4632 1319.05 94.1946 1319.94 93.6828L1347.42 77.6941C1349.22 76.6491 1350.13 74.7166 1350.13 72.6422V40.6785C1350.12 38.6041 1349.22 36.6697 1347.42 35.6328ZM1325.58 67.5772C1318.25 67.5772 1316.64 65.5553 1316.1 61.9109C1316.03 61.5185 1315.7 61.0491 1315.3 61.0491H1311.72C1311.28 61.0491 1310.92 61.5866 1310.92 62.0278C1310.92 66.6941 1313.46 72.3478 1325.58 72.3478C1334.35 72.3478 1339.38 68.9385 1339.38 62.9047C1339.38 56.9222 1335.34 55.3522 1326.83 54.226C1318.23 53.0891 1317.36 52.5147 1317.36 50.4997C1317.36 48.8385 1318.1 46.6228 1324.47 46.6228C1330.16 46.6228 1332.25 47.8441 1333.12 51.6797C1333.19 52.0403 1333.52 52.2991 1333.89 52.2991H1337.49C1337.71 52.2991 1337.92 52.2097 1338.08 52.0516C1338.23 51.8816 1338.31 51.6685 1338.29 51.4397C1337.73 44.8341 1333.34 41.756 1324.47 41.756C1316.57 41.756 1311.86 45.0897 1311.86 50.6778C1311.86 56.7391 1316.55 58.4141 1324.13 59.1635C1333.19 60.0522 1333.9 61.3772 1333.9 63.1603C1333.9 66.2578 1331.41 67.5772 1325.58 67.5772Z" fill="#545454"/>
</g>
<defs>
<clipPath id="clip0_107_2352">
<rect width="80" height="80" fill="white" transform="translate(472.334 16.6741)"/>
</clipPath>
<clipPath id="clip1_107_2352">
<rect width="80" height="80" fill="white" transform="translate(603.111 16.6741)"/>
</clipPath>
<clipPath id="clip2_107_2352">
<rect width="80" height="80" fill="white" transform="translate(874.666 16.6741)"/>
</clipPath>
</defs>
</svg>
