<svg width="32" height="32" viewBox="0 0 32 32" fill="none" xmlns="http://www.w3.org/2000/svg">
<path id="Vector" d="M16 26.0769C15.3462 26.0769 14.8154 26.6077 14.8154 27.2615V30.8154C14.8154 31.4692 15.3462 32 16 32C16.6538 32 17.1846 31.4692 17.1846 30.8154V27.2615C17.1846 26.6077 16.6538 26.0769 16 26.0769ZM16 0C15.3462 0 14.8154 0.530769 14.8154 1.18462V4.73846C14.8154 5.39231 15.3462 5.92308 16 5.92308C16.6538 5.92308 17.1846 5.39231 17.1846 4.73846V1.18462C17.1846 0.530769 16.6538 0 16 0ZM5.92308 16C5.92308 15.3462 5.39231 14.8154 4.73846 14.8154H1.18462C0.530769 14.8154 0 15.3462 0 16C0 16.6538 0.530769 17.1846 1.18462 17.1846H4.73846C5.39231 17.1846 5.92308 16.6538 5.92308 16ZM30.8154 14.8154H27.2615C26.6077 14.8154 26.0769 15.3462 26.0769 16C26.0769 16.6538 26.6077 17.1846 27.2615 17.1846H30.8154C31.4692 17.1846 32 16.6538 32 16C32 15.3462 31.4692 14.8154 30.8154 14.8154ZM8.03846 22.7769C7.72308 22.7769 7.42308 22.9 7.2 23.1231L4.68462 25.6385C4.46154 25.8615 4.33846 26.1615 4.33846 26.4769C4.33846 26.7923 4.46154 27.0923 4.68462 27.3154C4.90769 27.5385 5.20769 27.6615 5.52308 27.6615C5.83846 27.6615 6.13846 27.5385 6.36154 27.3154L8.87692 24.8C9.33846 24.3385 9.33846 23.5846 8.87692 23.1231C8.65385 22.9 8.35385 22.7769 8.03846 22.7769ZM23.9615 9.22308C24.2769 9.22308 24.5769 9.1 24.8 8.87692L27.3154 6.36154C27.5385 6.13846 27.6615 5.83846 27.6615 5.52308C27.6615 5.20769 27.5385 4.90769 27.3154 4.68462C27.0923 4.46154 26.7923 4.33846 26.4769 4.33846C26.1615 4.33846 25.8615 4.46154 25.6385 4.68462L23.1231 7.2C22.9 7.42308 22.7769 7.72308 22.7769 8.03846C22.7769 8.35385 22.9 8.65385 23.1231 8.87692C23.3462 9.1 23.6462 9.22308 23.9615 9.22308ZM6.36154 4.68462C6.13846 4.46154 5.83846 4.33846 5.52308 4.33846C5.20769 4.33846 4.90769 4.46154 4.68462 4.68462C4.46154 4.90769 4.33846 5.20769 4.33846 5.52308C4.33846 5.83846 4.46154 6.13846 4.68462 6.36154L7.2 8.87692C7.42308 9.1 7.72308 9.22308 8.03846 9.22308C8.35385 9.22308 8.65385 9.1 8.87692 8.87692C9.1 8.65385 9.22308 8.35385 9.22308 8.03846C9.22308 7.72308 9.1 7.42308 8.87692 7.2L6.36154 4.68462ZM24.8 23.1231C24.5769 22.9 24.2769 22.7769 23.9615 22.7769C23.6462 22.7769 23.3462 22.9 23.1231 23.1231C22.6615 23.5846 22.6615 24.3385 23.1231 24.8L25.6385 27.3154C25.8615 27.5385 26.1615 27.6615 26.4769 27.6615C26.7923 27.6615 27.0923 27.5385 27.3154 27.3154C27.5385 27.0923 27.6615 26.7923 27.6615 26.4769C27.6615 26.1615 27.5385 25.8615 27.3154 25.6385L24.8 23.1231ZM16 8.61539C11.9308 8.61539 8.61539 11.9308 8.61539 16C8.61539 20.0692 11.9308 23.3846 16 23.3846C20.0692 23.3846 23.3846 20.0692 23.3846 16C23.3846 11.9308 20.0692 8.61539 16 8.61539Z" fill="#0A0F0B"/>
</svg>
